<svg width="180" height="42" viewBox="0 0 180 42" xmlns="http://www.w3.org/2000/svg">
    <g fill-rule="nonzero" fill="none">
        <g fill="#0075B2">
            <path d="M51.859 16.237h.123c.901-1.437 3.011-4.074 7.412-4.074 6.875 0 9.89 5.813 9.89 14.917 0 7.972-2.774 14.92-12.117 14.92-7.54 0-12-4.256-12-12.76V0h6.692v16.237zm5.308 21.091c4.28 0 5.005-5.578 5.005-10.248 0-5.149-.543-10.665-5.005-10.665-4.04 0-5.308 5.874-5.308 10.665 0 7.127 1.088 10.248 5.308 10.248zM73.202 0h6.691v41.342h-6.691zM106.242 40.857c-2.417.783-4.946 1.143-8.026 1.143-9.28 0-14.465-5.93-14.465-16.414 0-7.97 3.617-13.424 12.3-13.424 7.292 0 10.913 4.613 10.913 11.56v1.622H89.958c0 3.95 2.717 11.984 10.795 11.984 2.112 0 4.277-.663 5.49-1.08v4.609h-.001zm-5.607-19.528c0-1.796-.904-4.914-5.071-4.914-3.912 0-5.243 3.236-5.427 4.914h10.498zM125.233 18.872c-.725-.36-3.442-1.917-6.395-1.917-2.045 0-4.464.96-4.464 2.637 0 3.772 12.607 5.69 12.607 13.841 0 5.868-4.529 8.567-10.86 8.567-3.914 0-6.267-.718-7.591-1.143v-5.75c1.931.837 4.58 1.74 7.292 1.74 1.63 0 4.944-.301 4.944-2.577 0-3.356-12.36-6.174-12.36-13.72 0-5.333 4.1-8.388 10.313-8.388 2.83 0 5.124.72 6.514 1.08v5.63zM146.633 41.52c-1.812.298-3.677.48-5.489.48-7.597 0-8.804-3.598-8.804-7.848V17.435h-5.606v-4.61h5.606V6.05l6.696-4.013v10.786h8.504v4.611h-8.504v13.479c0 3.42.423 6.414 4.517 6.414 1.089 0 2.111-.24 3.08-.482v4.674zM163.572 38.041h-.123c-.905 1.863-2.888 3.959-7.472 3.959-4.827 0-8.44-2.88-8.44-7.487 0-9.469 12.054-9.532 16.035-9.648v-2.817c0-2.817-.72-5.211-4.044-5.211-3.676 0-4.397 2.456-4.397 4.375h-6.514c0-5.454 3.62-9.05 10.911-9.05 7.118 0 10.432 3.055 10.432 8.868v20.312h-6.388v-3.301zm-5.972-.713c4.348 0 5.972-4.677 5.972-8.567-4.345 0-9.524 1.314-9.524 5.149 0 2.214 1.26 3.418 3.552 3.418z"/>
        </g>
        <path d="M170.996 7.835h-1.608v-.92h4.187v.92h-1.607v5.424h-.972V7.835zm3.3-.92h1.76l1.057 4.986h.046l1.08-4.987H180v6.345h-.965V7.527h-.046l-1.255 5.732h-1.164l-1.256-5.732h-.046v5.732h-.972V6.914zM10.499 20.359h3.86a2.21 2.21 0 0 0 2.21-2.198v-3.838c0-1.21-.994-2.196-2.21-2.196H10.5c-1.22 0-2.212.986-2.212 2.196v3.838c0 1.21.992 2.198 2.212 2.198zM30.931 20.359a2.212 2.212 0 0 0 2.212-2.198v-3.838c0-1.21-.997-2.196-2.212-2.196H27.07c-1.216 0-2.214.986-2.214 2.196v3.838c0 1.21.998 2.198 2.214 2.198h3.862z" fill="#0075B2"/>
        <path d="M39.218 25.505h-3.862a2.217 2.217 0 0 0-2.213 2.202v3.838c0 1.207-.997 2.192-2.212 2.192H10.499a2.205 2.205 0 0 1-2.212-2.192v-3.838a2.217 2.217 0 0 0-2.215-2.202H2.21c-1.215 0-2.21.993-2.21 2.202v3.838c0 1.207.995 2.192 2.21 2.192h3.862c1.218 0 2.215.99 2.215 2.195v3.842c0 1.212.992 2.199 2.212 2.199h20.432a2.211 2.211 0 0 0 2.212-2.199v-3.842c0-1.205.998-2.195 2.213-2.195h3.861c1.215 0 2.214-.985 2.214-2.192v-3.838a2.217 2.217 0 0 0-2.213-2.202z" fill="#6AB31D"/>
    </g>
</svg>
