<svg width="171" height="67" xmlns="http://www.w3.org/2000/svg"><path d="M85.753 0c6.091 0 11.589 2.458 15.583 6.462 3.995 4.004 6.407 9.554 6.407 15.659a22.014 22.014 0 0 1-6.446 15.619 21.911 21.911 0 0 1-15.583 6.462A21.911 21.911 0 0 1 70.13 37.74a22.014 22.014 0 0 1-6.447-15.62A22.107 22.107 0 0 1 70.13 6.463 22.004 22.004 0 0 1 85.753 0Zm0 1.03c-5.814 0-11.074 2.38-14.87 6.185a21.057 21.057 0 0 0-6.17 14.906c0 5.788 2.333 11.02 6.13 14.866 3.796 3.845 9.057 6.184 14.87 6.184 5.815 0 11.075-2.379 14.872-6.184 3.836-3.806 6.17-9.078 6.21-14.866 0-5.828-2.374-11.1-6.17-14.906-3.798-3.806-9.058-6.184-14.872-6.184Zm.805 24.824v1.517c.483.039.926.078 1.328.156.442.077.845.194 1.126.35l-.483 1.44c-.16-.04-.321-.117-.563-.195a3.598 3.598 0 0 0-.764-.195c-.322-.039-.644-.078-1.006-.078-.442 0-.804.078-1.086.195a1 1 0 0 0-.603.428c-.12.194-.201.389-.201.583 0 .273.08.467.241.662.161.194.402.35.724.505.322.156.724.35 1.247.506.644.234 1.207.467 1.65.74.442.272.764.583.965.894a2.5 2.5 0 0 1 .322 1.245c0 .428-.121.817-.282 1.167-.16.39-.442.7-.804.973a4.013 4.013 0 0 1-1.368.661l-.483.117v1.673h-1.367v-1.556h-.08c-.403 0-.805-.04-1.208-.078a24.268 24.268 0 0 1-1.086-.234 3.1 3.1 0 0 1-.804-.31l.482-1.518c.242.117.523.233.805.311l.965.234c.322.038.684.077 1.046.077.443 0 .805-.039 1.127-.155.321-.117.563-.273.724-.467.16-.195.24-.428.24-.7 0-.234-.08-.467-.2-.662-.12-.194-.362-.389-.644-.544-.281-.156-.684-.312-1.166-.467a7.485 7.485 0 0 1-1.69-.7c-.482-.273-.844-.584-1.086-.934-.281-.35-.402-.778-.402-1.245 0-.39.08-.778.281-1.128.161-.35.443-.623.805-.895.362-.272.764-.467 1.287-.623.201-.077.443-.116.644-.155v-1.595h1.367Zm-.825-22.518c10.26 0 18.607 8.3 18.685 18.595l-8.543-8.613-2.886 2.897 6.28 6.303H72.197l6.28-6.303-2.886-2.897-8.582 8.613c.117-10.296 8.465-18.595 18.724-18.595Zm0 .861c-1.482 0-2.691.9-2.691 1.958v4.15h-5.306l7.997 8.416 7.997-8.417h-5.305v-4.15c0-1.096-1.21-1.957-2.692-1.957ZM2.53 59.241c0 .368.06.706.151 1.043.091.337.242.613.454.89.212.245.453.46.756.582.302.153.665.215 1.088.215.575 0 1.059-.123 1.422-.4.362-.244.635-.643.786-1.164h1.905c-.09.49-.303.95-.544 1.349-.273.399-.575.736-.938.981-.363.276-.786.46-1.21.614a5.497 5.497 0 0 1-1.42.214c-.726 0-1.361-.122-1.906-.368-.544-.245-1.028-.582-1.39-1.012-.394-.43-.666-.95-.877-1.533a6.668 6.668 0 0 1-.303-1.963c0-.644.09-1.288.303-1.87.211-.583.483-1.104.876-1.564.394-.46.847-.798 1.391-1.074.545-.276 1.15-.398 1.845-.398.726 0 1.36.153 1.935.46a4.513 4.513 0 0 1 1.421 1.196c.363.49.635 1.073.817 1.717.181.644.212 1.319.12 1.993H2.53v.092Zm4.657-1.318c-.03-.307-.09-.644-.212-.92a2.689 2.689 0 0 0-.453-.767 1.99 1.99 0 0 0-.696-.521 2.226 2.226 0 0 0-.937-.215c-.363 0-.666.061-.968.184a1.857 1.857 0 0 0-.726.521c-.211.215-.363.49-.483.767a3.339 3.339 0 0 0-.212.95h4.687Zm11.158 3.373c0 .245.03.43.09.521.061.092.182.154.394.154h.211c.091 0 .182 0 .272-.031v1.41c-.06.031-.15.062-.272.093-.12.03-.211.061-.332.092-.121.03-.242.03-.363.061-.121.03-.212.03-.303.03-.423 0-.756-.091-1.028-.245-.272-.153-.453-.46-.514-.89-.393.4-.877.676-1.481.86a5.581 5.581 0 0 1-1.694.276 3.66 3.66 0 0 1-1.18-.184 3.793 3.793 0 0 1-.997-.491c-.302-.215-.514-.49-.695-.828-.182-.337-.242-.736-.242-1.196 0-.583.09-1.043.302-1.38.212-.368.484-.644.816-.828.333-.215.696-.337 1.12-.43.423-.091.846-.153 1.27-.214.362-.061.695-.123 1.027-.153.333-.031.605-.092.877-.154.242-.061.454-.184.605-.337.151-.153.212-.368.212-.675 0-.276-.06-.49-.182-.644a1.43 1.43 0 0 0-.453-.398 1.986 1.986 0 0 0-.605-.184c-.212-.031-.423-.031-.635-.031-.575 0-1.028.123-1.391.368s-.575.613-.605 1.104h-1.995c.03-.583.18-1.073.423-1.472.242-.399.574-.705.937-.95a3.7 3.7 0 0 1 1.3-.491 7.833 7.833 0 0 1 1.482-.154c.454 0 .877.062 1.33.154.424.092.817.245 1.18.46.333.214.635.49.847.828.211.337.302.766.302 1.226v4.723h-.03Zm-1.996-2.576c-.302.215-.665.337-1.119.368-.453.03-.877.092-1.33.184-.212.03-.424.092-.605.153a1.387 1.387 0 0 0-.514.276 1.355 1.355 0 0 0-.363.46c-.09.184-.12.399-.12.675 0 .215.06.43.18.583.121.153.273.276.454.368.182.092.393.153.605.184.212.03.423.06.574.06.212 0 .454-.03.726-.091a1.93 1.93 0 0 0 .726-.307c.242-.153.423-.337.574-.552a1.38 1.38 0 0 0 .242-.797V58.72h-.03Zm5.685 1.656c.06.583.272 1.012.665 1.257.393.246.847.368 1.391.368.181 0 .393 0 .635-.03.242-.031.454-.092.665-.184.212-.092.393-.215.514-.368.121-.154.182-.368.182-.644s-.09-.491-.272-.644a2.035 2.035 0 0 0-.666-.4 5.933 5.933 0 0 0-.937-.244c-.363-.062-.695-.154-1.058-.246-.363-.092-.726-.184-1.089-.306-.333-.123-.665-.276-.937-.491a2.69 2.69 0 0 1-.666-.767c-.15-.306-.241-.705-.241-1.165 0-.49.12-.92.362-1.257.242-.338.545-.614.908-.828a3.318 3.318 0 0 1 1.24-.43 6.42 6.42 0 0 1 1.3-.122c.483 0 .907.06 1.36.153.424.092.817.276 1.15.49.332.215.634.522.876.89s.363.797.424 1.319h-2.087c-.09-.491-.302-.828-.665-.982a2.897 2.897 0 0 0-1.18-.245 3.25 3.25 0 0 0-1.058.153 1.024 1.024 0 0 0-.423.276c-.121.123-.181.276-.181.49 0 .246.09.46.241.614.182.154.394.276.666.399.272.092.574.184.937.245.363.062.726.154 1.089.246s.725.184 1.058.306c.363.123.665.276.937.49.273.216.484.46.666.768.181.306.242.705.242 1.134 0 .552-.121 1.012-.363 1.38a2.8 2.8 0 0 1-.968.92c-.393.246-.816.399-1.3.522a7.733 7.733 0 0 1-1.421.153 6.577 6.577 0 0 1-1.603-.184 4.045 4.045 0 0 1-1.27-.583 3.018 3.018 0 0 1-.847-1.012c-.211-.398-.302-.858-.332-1.41h2.056v-.031Zm6.592-6.256h2.207l2.389 6.9h.03l2.298-6.9h2.087l-3.538 9.721c-.151.43-.333.828-.484 1.196a5.461 5.461 0 0 1-.574 1.012 2.686 2.686 0 0 1-.847.706c-.333.184-.786.245-1.3.245-.484 0-.938-.03-1.391-.092v-1.717c.15.03.332.061.484.092.15.03.302.03.483.03.242 0 .424-.03.575-.092a1.71 1.71 0 0 0 .393-.245c.09-.123.181-.245.242-.399.06-.153.12-.337.181-.521l.242-.705-3.477-9.231Zm17.115 9.23v-1.747h-.03a2.914 2.914 0 0 1-.515.828 4.03 4.03 0 0 1-.786.644 3.602 3.602 0 0 1-.937.398 3.753 3.753 0 0 1-.998.154c-.696 0-1.3-.123-1.814-.399a3.545 3.545 0 0 1-1.27-1.043c-.333-.46-.605-.95-.756-1.564a7.357 7.357 0 0 1 0-3.741 4.68 4.68 0 0 1 .756-1.564c.332-.46.756-.797 1.27-1.073.514-.276 1.118-.4 1.814-.4.333 0 .665.032.998.124.332.092.635.214.907.398.272.184.544.399.756.644.212.246.393.552.514.89h.03v-5.306h1.12V63.32h-1.06v.03Zm-6.078-3.189c.12.46.302.89.514 1.258.242.368.544.674.937.889.363.245.817.337 1.361.337.575 0 1.089-.122 1.482-.337.393-.245.725-.521.998-.89.241-.367.423-.797.544-1.257.12-.46.181-.95.181-1.41 0-.491-.06-.951-.181-1.411a4.267 4.267 0 0 0-.544-1.257 2.576 2.576 0 0 0-.998-.89c-.393-.245-.907-.337-1.482-.337a2.8 2.8 0 0 0-1.36.337c-.364.246-.696.522-.938.89a3.551 3.551 0 0 0-.514 1.257c-.121.46-.182.95-.182 1.41 0 .46.06.92.182 1.411Zm10.341-9.568v1.81h-1.118v-1.81h1.118Zm0 3.527v9.2h-1.118v-9.2h1.118Zm9.586 10.304a3.688 3.688 0 0 1-.696 1.38c-.302.368-.725.675-1.24.89-.513.214-1.148.306-1.874.306a6.32 6.32 0 0 1-1.33-.153 4.01 4.01 0 0 1-1.18-.491 3.35 3.35 0 0 1-.877-.859c-.242-.337-.363-.766-.393-1.257h1.119c.06.337.181.644.332.859.182.245.363.429.605.552.242.153.514.245.786.306.303.062.605.092.908.092 1.028 0 1.784-.306 2.237-.889.454-.583.696-1.441.696-2.576v-1.257h-.03c-.273.582-.636 1.042-1.15 1.38-.483.337-1.088.521-1.753.521-.726 0-1.361-.123-1.875-.368a3.468 3.468 0 0 1-1.27-1.012 4.075 4.075 0 0 1-.726-1.503 7.299 7.299 0 0 1-.242-1.84c0-.644.09-1.226.272-1.778.182-.552.454-1.074.787-1.472.332-.43.786-.767 1.27-1.012.514-.246 1.088-.368 1.753-.368.333 0 .666.06.968.153.302.092.575.215.816.399.242.184.454.368.666.582.181.215.332.46.453.706h.03V54.12h1.12v8.464a7.03 7.03 0 0 1-.182 1.84Zm-2.57-2.453c.362-.215.665-.491.907-.828a3.74 3.74 0 0 0 .544-1.166c.121-.43.181-.89.181-1.35 0-.46-.06-.888-.15-1.348a3.402 3.402 0 0 0-.515-1.227 2.807 2.807 0 0 0-.907-.89c-.363-.214-.816-.337-1.36-.337a2.8 2.8 0 0 0-1.361.338 3.161 3.161 0 0 0-.938.858c-.242.338-.423.767-.544 1.227-.121.46-.181.92-.181 1.41 0 .46.06.92.181 1.35.12.43.302.828.544 1.165.242.338.545.614.938.828.363.215.816.307 1.33.307.575-.03.968-.123 1.33-.337Zm6.017-11.378v1.81h-1.119v-1.81h1.12Zm0 3.527v9.2h-1.119v-9.2h1.12Zm5.745 0v.95h-1.844v6.195c0 .368.06.644.151.859.09.215.363.337.756.337.302 0 .635-.03.937-.061v.95c-.15 0-.332 0-.483.031-.152 0-.333.031-.484.031-.726 0-1.27-.153-1.542-.43-.303-.275-.424-.827-.424-1.625v-6.286h-1.572v-.951h1.572v-2.76h1.119v2.76h1.814Zm1.815 1.441a2.62 2.62 0 0 1 .756-.95c.332-.246.695-.43 1.149-.552a5.223 5.223 0 0 1 1.451-.184c.393 0 .786.03 1.21.122.393.092.756.215 1.058.43a2.8 2.8 0 0 1 .786.889c.212.399.303.89.303 1.503v4.876c0 .46.211.674.665.674.12 0 .242-.03.363-.061v.95c-.121.031-.242.031-.333.062-.09 0-.212.03-.393.03-.272 0-.514-.03-.665-.122-.182-.092-.303-.184-.393-.337a1.325 1.325 0 0 1-.182-.522c-.03-.184-.03-.398-.03-.644h-.03a9.002 9.002 0 0 1-.605.798 2.53 2.53 0 0 1-.696.582 3.299 3.299 0 0 1-.876.368c-.333.092-.696.123-1.15.123-.423 0-.816-.061-1.179-.153a2.636 2.636 0 0 1-.967-.491 2.574 2.574 0 0 1-.666-.828 2.9 2.9 0 0 1-.242-1.196c0-.644.152-1.135.424-1.503.272-.368.665-.644 1.119-.828a5.92 5.92 0 0 1 1.572-.398c.574-.092 1.18-.154 1.754-.215.242-.03.453-.061.605-.092.181-.03.332-.092.453-.184a.836.836 0 0 0 .272-.368c.06-.153.091-.368.091-.613 0-.368-.06-.706-.181-.951a1.585 1.585 0 0 0-.515-.583c-.211-.153-.483-.245-.755-.306a4.631 4.631 0 0 0-.938-.092c-.695 0-1.27.184-1.723.52-.454.338-.666.89-.696 1.626h-1.149c.03-.521.151-.981.333-1.38Zm5.533 2.76c-.06.123-.211.215-.393.276a5.847 5.847 0 0 1-.514.123c-.484.092-.968.153-1.451.215-.484.06-.968.153-1.361.306-.423.123-.756.307-.998.552-.272.246-.393.583-.393 1.043 0 .276.06.552.181.767.121.214.273.398.454.582.181.154.393.276.665.368.242.092.484.123.756.123.424 0 .817-.061 1.21-.184s.725-.307.998-.583c.272-.245.514-.552.695-.92.181-.368.242-.766.242-1.226V58.29h-.09v.03Zm4.506-7.728V63.32h-1.119V50.593h1.119ZM91.31 63.351h-1.905v-1.258h-.03c-.272.522-.666.92-1.18 1.166-.514.245-1.058.337-1.633.337-.725 0-1.33-.123-1.874-.399-.545-.245-.968-.613-1.33-1.042-.364-.43-.606-.951-.787-1.564a6.776 6.776 0 0 1-.272-1.932c0-.828.12-1.564.333-2.147a4.261 4.261 0 0 1 .876-1.503 3.236 3.236 0 0 1 1.27-.858 4.058 4.058 0 0 1 1.452-.276c.272 0 .574.03.877.092.302.06.574.153.846.245.273.123.515.276.756.46.242.184.424.399.575.644h.03v-4.723h1.996v12.758Zm-6.985-4.54c0 .4.06.768.151 1.166.09.368.242.706.454 1.012.211.307.453.522.786.706.302.184.695.276 1.119.276.453 0 .816-.092 1.149-.276.332-.184.574-.43.786-.736.212-.307.363-.644.453-1.043a5.4 5.4 0 0 0 .152-1.196c0-1.012-.212-1.81-.666-2.392-.453-.583-1.058-.859-1.844-.859-.484 0-.877.092-1.18.307-.332.184-.574.46-.786.767a3.1 3.1 0 0 0-.453 1.073c-.09.399-.121.797-.121 1.196Zm13.335 4.785c-.726 0-1.36-.123-1.935-.368a4.144 4.144 0 0 1-1.452-1.012 4.56 4.56 0 0 1-.907-1.533c-.212-.583-.302-1.258-.302-1.963 0-.705.09-1.35.302-1.932a4.56 4.56 0 0 1 .907-1.533c.393-.43.877-.767 1.452-1.012.574-.246 1.21-.368 1.935-.368.726 0 1.36.122 1.935.368a4.144 4.144 0 0 1 1.452 1.012c.393.429.695.95.907 1.533.211.583.302 1.257.302 1.932 0 .705-.09 1.38-.302 1.963a4.56 4.56 0 0 1-.907 1.533c-.393.43-.877.767-1.452 1.012-.544.245-1.21.368-1.935.368Zm0-1.625c.454 0 .847-.092 1.149-.276.333-.184.605-.43.816-.736.212-.307.363-.644.454-1.043a5.4 5.4 0 0 0 .151-1.196c0-.399-.06-.797-.151-1.165a2.946 2.946 0 0 0-.454-1.043 2.372 2.372 0 0 0-.816-.736 2.362 2.362 0 0 0-1.149-.276c-.454 0-.847.092-1.15.276-.332.184-.604.43-.816.736a2.946 2.946 0 0 0-.453 1.043c-.09.398-.151.797-.151 1.165 0 .399.06.797.15 1.196.092.399.243.736.454 1.043.212.306.484.552.817.736.333.184.726.276 1.149.276Zm5.443-7.851h2.117l1.784 6.9h.03l1.693-6.9h2.026l1.633 6.9h.03l1.845-6.9h2.026l-2.843 9.23h-2.056l-1.693-6.838h-.03L108 63.35h-2.116l-2.782-9.231Zm14.514 0h1.905v1.35l.03.03c.303-.521.696-.92 1.21-1.196a3.246 3.246 0 0 1 1.633-.43c.998 0 1.784.277 2.359.798.574.521.876 1.319.876 2.361v6.348h-1.995v-5.826c-.03-.736-.182-1.258-.454-1.564-.272-.338-.726-.491-1.33-.491-.333 0-.635.061-.908.184-.272.123-.483.307-.695.521a3.19 3.19 0 0 0-.454.767 3.29 3.29 0 0 0-.15.95v5.429h-1.996V54.12h-.03Zm10.16-3.527h1.996V63.32h-1.996V50.593Zm8.346 13.003c-.726 0-1.36-.123-1.935-.368a4.144 4.144 0 0 1-1.452-1.012 4.56 4.56 0 0 1-.907-1.533c-.211-.583-.302-1.258-.302-1.963 0-.705.09-1.35.302-1.932a4.56 4.56 0 0 1 .907-1.533c.394-.43.877-.767 1.452-1.012.574-.246 1.21-.368 1.935-.368.726 0 1.36.122 1.935.368a4.144 4.144 0 0 1 1.452 1.012c.393.429.695.95.907 1.533.212.583.302 1.257.302 1.932 0 .705-.09 1.38-.302 1.963a4.56 4.56 0 0 1-.907 1.533c-.393.43-.877.767-1.452 1.012-.544.245-1.21.368-1.935.368Zm0-1.625c.454 0 .847-.092 1.15-.276.332-.184.604-.43.816-.736.211-.307.362-.644.453-1.043a5.4 5.4 0 0 0 .151-1.196c0-.399-.06-.797-.15-1.165a2.946 2.946 0 0 0-.454-1.043 2.372 2.372 0 0 0-.817-.736 2.362 2.362 0 0 0-1.149-.276c-.453 0-.847.092-1.149.276-.333.184-.605.43-.816.736a2.946 2.946 0 0 0-.454 1.043c-.09.398-.151.797-.151 1.165 0 .399.06.797.151 1.196.09.399.242.736.454 1.043.211.306.483.552.816.736.333.184.696.276 1.15.276Zm13.88-.675c0 .245.03.43.09.521.06.092.182.154.393.154h.212c.09 0 .181 0 .272-.031v1.41c-.06.031-.151.062-.272.093-.12.03-.212.061-.333.092-.12.03-.242.03-.362.061-.121.03-.212.03-.303.03-.423 0-.756-.091-1.028-.245-.272-.153-.454-.46-.514-.89-.393.4-.877.676-1.482.86a5.581 5.581 0 0 1-1.693.276 3.66 3.66 0 0 1-1.18-.184 3.793 3.793 0 0 1-.997-.491c-.303-.215-.514-.49-.696-.828-.181-.337-.242-.736-.242-1.196 0-.583.091-1.043.303-1.38.211-.368.484-.644.816-.828.333-.215.696-.337 1.12-.43.422-.091.846-.153 1.27-.214.362-.061.695-.123 1.027-.153.333-.031.605-.092.877-.154.242-.061.454-.184.605-.337.151-.153.212-.368.212-.675 0-.276-.06-.49-.182-.644a1.43 1.43 0 0 0-.453-.398 1.986 1.986 0 0 0-.605-.184c-.212-.031-.424-.031-.635-.031-.575 0-1.028.123-1.391.368s-.575.613-.605 1.104h-1.996c.03-.583.182-1.073.424-1.472s.574-.705.937-.95a3.7 3.7 0 0 1 1.3-.491 7.833 7.833 0 0 1 1.482-.154c.454 0 .877.062 1.33.154.424.092.817.245 1.18.46.332.214.635.49.846.828.212.337.303.766.303 1.226v4.723h-.03Zm-1.996-2.576c-.303.215-.665.337-1.119.368-.454.03-.877.092-1.33.184-.212.03-.424.092-.605.153a1.387 1.387 0 0 0-.514.276 1.355 1.355 0 0 0-.363.46c-.09.184-.121.399-.121.675 0 .215.06.43.181.583.121.153.272.276.454.368.181.092.393.153.605.184.211.03.423.06.574.06.212 0 .454-.03.726-.091a1.93 1.93 0 0 0 .726-.307c.242-.153.423-.337.574-.552a1.38 1.38 0 0 0 .242-.797V58.72h-.03Zm12.73 4.63h-1.905v-1.257h-.03c-.272.522-.665.92-1.18 1.166-.513.245-1.058.337-1.632.337-.726 0-1.33-.123-1.875-.399-.544-.245-.968-.613-1.33-1.042-.363-.43-.605-.951-.787-1.564a6.776 6.776 0 0 1-.272-1.932c0-.828.121-1.564.333-2.147a4.261 4.261 0 0 1 .877-1.503 3.236 3.236 0 0 1 1.27-.858 4.058 4.058 0 0 1 1.451-.276c.272 0 .575.03.877.092.302.06.575.153.847.245.272.123.514.276.756.46s.423.399.574.644h.03v-4.723h1.996v12.758Zm-6.985-4.538c0 .399.06.767.151 1.165.091.368.242.706.454 1.012.212.307.453.522.786.706.302.184.696.276 1.119.276.453 0 .816-.092 1.149-.276.333-.184.574-.43.786-.736.212-.307.363-.644.454-1.043a5.4 5.4 0 0 0 .15-1.196c0-1.012-.21-1.81-.664-2.392-.454-.583-1.059-.859-1.845-.859-.484 0-.877.092-1.18.307-.332.184-.574.46-.785.767a3.1 3.1 0 0 0-.454 1.073c-.09.399-.12.797-.12 1.196Zm10.674 1.564c.06.583.272 1.012.665 1.257.394.246.847.368 1.391.368.182 0 .394 0 .635-.03.242-.031.454-.092.666-.184.211-.092.393-.215.514-.368.12-.154.181-.368.181-.644s-.09-.491-.272-.644a2.035 2.035 0 0 0-.665-.4 5.933 5.933 0 0 0-.938-.244c-.362-.062-.695-.154-1.058-.246-.363-.092-.726-.184-1.089-.306-.332-.123-.665-.276-.937-.491a2.69 2.69 0 0 1-.665-.767c-.151-.306-.242-.705-.242-1.165 0-.49.12-.92.363-1.257.242-.338.544-.614.907-.828a3.318 3.318 0 0 1 1.24-.43 6.42 6.42 0 0 1 1.3-.122c.484 0 .907.06 1.36.153.424.092.817.276 1.15.49.332.215.635.522.877.89s.363.797.423 1.319h-2.086c-.091-.491-.303-.828-.666-.982a2.897 2.897 0 0 0-1.179-.245c-.151 0-.302 0-.514.03-.181.031-.363.062-.544.123a1.024 1.024 0 0 0-.424.276c-.12.123-.181.276-.181.49 0 .246.09.46.242.614.181.154.393.276.665.399.272.092.575.184.937.245.363.062.726.154 1.089.246s.726.184 1.089.306c.362.123.665.276.937.49.272.216.484.46.665.768.182.306.242.705.242 1.134 0 .552-.12 1.012-.363 1.38a2.8 2.8 0 0 1-.967.92c-.393.246-.817.399-1.3.522a7.733 7.733 0 0 1-1.422.153 6.577 6.577 0 0 1-1.602-.184 4.045 4.045 0 0 1-1.27-.583 3.018 3.018 0 0 1-.847-1.012c-.212-.398-.302-.858-.333-1.41h2.026v-.031Z" fill="#35495C" fill-rule="nonzero"/></svg>