<svg width="206" height="40" xmlns="http://www.w3.org/2000/svg">
    <defs>
        <linearGradient x1="50%" y1="79.104%" x2="50%" y2="0%" id="a">
            <stop stop-color="#04B6F0" offset="0%"/>
            <stop stop-color="#3ECAF0" offset="100%"/>
        </linearGradient>
    </defs>
    <path d="M20.42 265.852c0 3.074-.916 5.663-2.752 7.758-1.916 2.196-4.406 3.298-7.454 3.298-3.057 0-5.539-1.102-7.455-3.298C.922 271.515 0 268.926 0 265.852c0-3.082.922-5.67 2.759-7.758 1.938-2.175 4.428-3.262 7.455-3.262 3.048 0 5.538 1.087 7.454 3.262 1.836 2.088 2.751 4.676 2.751 7.758zm-6.07 0c0-1.392-.333-2.567-1.001-3.517-.747-1.08-1.793-1.616-3.135-1.616-1.344 0-2.389.536-3.137 1.616-.675.95-1.008 2.125-1.008 3.517 0 1.385.333 2.574 1.008 3.552.748 1.08 1.793 1.618 3.137 1.618 1.342 0 2.388-.538 3.135-1.618.668-.978 1.001-2.167 1.001-3.552zm28.013 0c0 2.871-.828 5.38-2.49 7.526-1.779 2.349-4.072 3.53-6.86 3.53-1.967 0-3.636-.572-5.001-1.703 0 .26.029.891.087 1.9.058 1.014.087 1.84.087 2.493 0 3.604-1.074 5.402-3.223 5.402-.878 0-1.596-.312-2.17-.928-.566-.623-.85-1.371-.85-2.255v-23.44c0-.855.29-1.595.872-2.218.58-.616 1.3-.928 2.156-.928 1.291 0 2.235.644 2.83 1.929 1.27-1.552 3.006-2.328 5.205-2.328 2.795 0 5.081 1.16 6.867 3.487 1.655 2.154 2.49 4.662 2.49 7.533zm-6.07 0c0-1.392-.34-2.567-1.007-3.517-.749-1.08-1.794-1.616-3.137-1.616-1.342 0-2.388.536-3.136 1.616-.667.95-1.001 2.125-1.001 3.517 0 1.385.334 2.574 1.001 3.552.748 1.08 1.794 1.618 3.136 1.618 1.343 0 2.388-.538 3.137-1.618.667-.978 1.008-2.167 1.008-3.552zm28.15-.651c0 1.013-.239 1.71-.718 2.102-.479.383-1.227.58-2.236.58H50.536c0 1.16.544 2.05 1.633 2.674.878.486 1.953.733 3.223.733.988 0 2.17-.327 3.557-.971 1.386-.653 2.279-.973 2.664-.973.704 0 1.3.254 1.793.776.486.515.733 1.139.733 1.857 0 1.66-1.241 2.951-3.724 3.879-1.895.695-3.818 1.05-5.785 1.05-3.165 0-5.72-1.05-7.672-3.145-1.953-2.096-2.933-4.728-2.933-7.91 0-3.032 1.016-5.62 3.048-7.78 2.025-2.161 4.545-3.241 7.55-3.241 2.794 0 5.131 1.022 7.005 3.067 1.872 2.045 2.816 4.48 2.816 7.302zm-6.067-1.524c-.03-.928-.458-1.769-1.285-2.53-.828-.762-1.706-1.138-2.635-1.138-.958 0-1.852.376-2.679 1.137-.827.762-1.241 1.603-1.241 2.531h7.84zm26.458 9.65c0 .885-.283 1.63-.849 2.254-.574.617-1.293.93-2.17.93-2.12 0-3.18-1.683-3.18-5.04 0-.645.043-1.66.13-3.06.095-1.392.139-2.414.139-3.059 0-3.56-1.155-5.343-3.456-5.343S72 261.792 72 265.352c0 .645.036 1.667.102 3.06.072 1.4.109 2.414.109 3.06 0 3.356-1.046 5.038-3.136 5.038-.879 0-1.597-.312-2.163-.929-.574-.623-.857-1.37-.857-2.255v-14.955c0-.879.283-1.624.857-2.227.566-.609 1.292-.913 2.17-.913 1.452 0 2.46.644 3.027 1.929.98-1.552 2.714-2.328 5.197-2.328 2.301 0 4.13.608 5.474 1.82 1.372 1.298 2.054 3.08 2.054 5.35v11.324zm19.04-.645c0 1.37-.892 2.457-2.679 3.256a10.797 10.797 0 0 1-4.507.97c-3.057 0-5.539-1.102-7.455-3.298-1.837-2.095-2.759-4.684-2.759-7.758 0-3.082.937-5.684 2.817-7.815 1.88-2.139 4.34-3.205 7.397-3.205 1.763 0 3.28.26 4.544.776 1.763.696 2.641 1.783 2.641 3.262a3.05 3.05 0 0 1-.697 1.98c-.464.565-1.06.855-1.785.855-.494 0-1.206-.167-2.134-.492-.93-.334-1.669-.494-2.213-.494-1.445 0-2.57.515-3.376 1.544-.748.928-1.126 2.117-1.126 3.59 0 1.384.334 2.559 1.01 3.508.746 1.11 1.8 1.66 3.142 1.66.597 0 1.409-.173 2.447-.53 1.038-.346 1.786-.528 2.25-.528.676 0 1.255.29 1.75.856.486.572.732 1.188.732 1.863zm22.059.644c0 .886-.283 1.632-.85 2.255-.572.617-1.298.93-2.178.93-1.32 0-2.264-.647-2.83-1.93-1.27 1.552-3.005 2.327-5.204 2.327-2.816 0-5.124-1.181-6.911-3.53-1.626-2.146-2.445-4.655-2.445-7.526 0-2.87.82-5.379 2.445-7.533 1.816-2.328 4.116-3.487 6.91-3.487 2.2 0 3.935.776 5.205 2.328.566-1.285 1.51-1.929 2.83-1.929.858 0 1.577.312 2.158.928.58.623.87 1.355.87 2.212v14.955zm-6.068-7.474c0-1.392-.333-2.567-1.002-3.517-.777-1.08-1.822-1.616-3.136-1.616-1.343 0-2.387.536-3.136 1.616-.674.95-1.007 2.125-1.007 3.517 0 1.385.324 2.574.97 3.552.77 1.08 1.83 1.618 3.173 1.618s2.388-.538 3.136-1.618c.669-.978 1.002-2.167 1.002-3.552zm21.551-7.881c0 1.298-.631 2.19-1.894 2.675-1.169.392-2.331.791-3.492 1.203-1.271.726-1.902 2.074-1.902 4.032v7.445c0 .886-.291 1.632-.856 2.255-.574.617-1.3.93-2.178.93-.885 0-1.612-.313-2.177-.93-.574-.623-.857-1.37-.857-2.255v-14.955c0-.879.283-1.624.85-2.227.572-.609 1.3-.913 2.177-.913 1.451 0 2.46.644 3.027 1.929 1.3-1.552 2.694-2.328 4.196-2.328.856 0 1.59.311 2.199.928.602.623.907 1.363.907 2.211zm15.832.276c0 1.348-.53 2.196-1.581 2.56-.517.18-1.6.274-3.247.274v12.245c0 .886-.29 1.632-.855 2.255-.575.617-1.3.93-2.178.93a2.865 2.865 0 0 1-2.165-.93c-.58-.623-.87-1.37-.87-2.255v-12.245c-1.249 0-2.155-.16-2.728-.47-.784-.435-1.171-1.226-1.171-2.364s.4-1.914 1.205-2.328c.545-.305 1.445-.463 2.695-.463v-2.596c0-3.052 1.007-4.574 3.034-4.574 2.017 0 3.033 1.522 3.033 4.574v2.596c1.647 0 2.73.094 3.247.275 1.05.362 1.581 1.204 1.581 2.516zM206 254.565c-.016-1.86-3.46-2.706-12.372-2.706-20.912 0-26.218-.892-31.895-6.859 2.389 3.583 3.695 10.303 25.799 9.969 23.061-.355 8.992 5.94 4.899 13.05 7.382-6.58 13.547-10.918 13.569-13.427v-.027zm-29.386 19.11a3.172 3.172 0 0 1-3.158 3.153 3.158 3.158 0 0 1-3.164-3.153v-.002a3.175 3.175 0 0 1 3.163-3.159h.001a3.158 3.158 0 0 1 3.158 3.161zm14.401 0a3.172 3.172 0 0 1-3.158 3.153 3.159 3.159 0 0 1-3.163-3.153v-.002a3.175 3.175 0 0 1 3.162-3.159h.001a3.158 3.158 0 0 1 3.158 3.161z" transform="translate(0 -245)" fill="url(#a)" fill-rule="nonzero"/>
</svg>
