<svg width="200" height="32" xmlns="http://www.w3.org/2000/svg"><defs><radialGradient cx="66.337%" cy="37.296%" fx="66.337%" fy="37.296%" r="49.995%" gradientTransform="matrix(1 0 0 .98743 0 .005)" id="a"><stop stop-color="#FF4D4D" offset="1.21%"/><stop stop-color="#961E23" offset="100%"/></radialGradient><radialGradient cx="67.071%" cy="34.352%" fx="67.071%" fy="34.352%" r="50%" gradientTransform="matrix(1 0 0 .98743 0 .004)" id="b"><stop stop-color="#5CB0FF" offset="0%"/><stop stop-color="#002C85" offset="100%"/></radialGradient><radialGradient cx="64.774%" cy="36.36%" fx="64.774%" fy="36.36%" r="51.513%" gradientTransform="matrix(1 0 0 .98743 0 .005)" id="c"><stop stop-color="#61FF8A" offset="0%"/><stop stop-color="#5EF882" offset="13.26%"/><stop stop-color="#57E36B" offset="34.32%"/><stop stop-color="#4BC245" offset="60.56%"/><stop stop-color="#3A9411" offset="90.67%"/><stop stop-color="#348500" offset="100%"/></radialGradient></defs><g fill-rule="nonzero" fill="none"><path d="M41.763 20.648c0 2.125-1.705 3.852-3.802 3.852s-3.803-1.727-3.803-3.852v-4.604c0-2.123 1.706-3.85 3.803-3.85s3.802 1.727 3.802 3.85v4.604Zm1.382-4.604c0-2.895-2.326-5.25-5.184-5.25s-5.183 2.355-5.183 5.25v4.604c0 2.895 2.325 5.25 5.183 5.25 2.858 0 5.184-2.355 5.184-5.25v-4.604Zm11.632 5.51c0-.716-.348-1.2-.606-1.71-.259-.51-1.076-1.226-2.178-1.606-1.147-.396-.405-.142-2.137-.668-1.957-.637-2.155-.886-2.268-.968-.519-.387-.757-1.257-.757-1.93 0-.644.251-1.18.726-1.602.662-.527 1.5-.878 2.37-.878 1.185 0 2.233.564 2.93 1.43h1.663a5.18 5.18 0 0 0-4.175-2.798h-.015c-.136-.012-.267-.03-.404-.03-.03 0-.058.006-.087.008-.046-.002-.092-.008-.139-.008-1.385 0-2.348.502-3.113 1.242-.477.46-1.07 1.573-1.076 1.585h.01c-.037.107-.199.866-.199 1.17 0 .685.14 1.302.415 1.833.275.53.669.956 1.166 1.273.524.33 1.606.75 3.22 1.241 1.188.358 1.928.65 2.262.906.525.402.997.97.997 1.684 0 .362-.113.693-.277.997a3.8 3.8 0 0 1-2.497 1.703 5.174 5.174 0 0 1-.653.045c-.459 0-.875-.069-1.255-.192a3.395 3.395 0 0 1-.26-.1c-.058-.023-.113-.053-.168-.079a4.152 4.152 0 0 1-.359-.198 3.056 3.056 0 0 1-.388-.29c-.017-.017-.036-.024-.054-.041a3.897 3.897 0 0 1-.95-1.24h-1.5a5.238 5.238 0 0 0 3.038 3.196l.139.062c.168.061.344.104.52.144.08.021.15.047.235.06.316.061.638.104.972.104a5.02 5.02 0 0 0 1.319-.19c.858-.187 1.585-.54 2.15-1.084.64-.622 1.247-1.503 1.373-2.115.058-.407.01-.62.01-.956Z" fill="#A8AEB5"/><path d="M83.112 19.561c0 2.722-2.308 4.939-5.15 4.939-2.838 0-5.15-2.217-5.15-4.939v-5.704c0-2.722 2.312-4.938 5.15-4.938 2.842 0 5.15 2.216 5.15 4.938v5.704Zm1.381-5.704c0-3.493-2.929-6.336-6.53-6.336-3.6 0-6.528 2.842-6.528 6.336v5.704c0 3.494 2.93 6.337 6.528 6.337 3.602 0 6.53-2.842 6.53-6.337v-5.704Zm-17.326 9.526c-.847.7-1.886 1.117-3.01 1.117-2.84 0-5.15-2.633-5.15-5.867V11.99c0-3.233 2.31-5.865 5.15-5.865 1.17 0 2.245.45 3.11 1.2a5.528 5.528 0 0 1 1.468-.506c-1.179-1.293-2.795-2.093-4.578-2.093-3.6 0-6.53 3.259-6.53 7.263v6.642c0 4.005 2.93 7.265 6.53 7.265 1.727 0 3.298-.757 4.467-1.98a5.51 5.51 0 0 1-1.457-.533ZM106.21 7.52c-2.555 0-4.769 1.436-5.84 3.518-1.072-2.082-3.283-3.518-5.84-3.518a6.592 6.592 0 0 0-5.151 2.454V7.52h-1.38v18.377h1.38v-12.04c0-2.723 2.31-4.94 5.15-4.94 2.84 0 5.15 2.217 5.15 4.94v12.04h1.381v-12.04c0-2.723 2.31-4.94 5.15-4.94 2.84 0 5.15 2.217 5.15 4.94v12.04h1.382v-12.04c-.001-3.494-2.931-6.337-6.532-6.337Zm27.612 0c-2.556 0-4.769 1.436-5.84 3.518-1.071-2.082-3.283-3.518-5.842-3.518a6.587 6.587 0 0 0-5.15 2.454V7.52h-1.38v18.377h1.38v-12.04c0-2.723 2.31-4.94 5.15-4.94 2.841 0 5.15 2.217 5.15 4.94v12.04h1.382v-12.04c0-2.723 2.31-4.94 5.15-4.94 2.84 0 5.15 2.217 5.15 4.94v12.04h1.38v-12.04c0-3.494-2.928-6.337-6.53-6.337Zm23.372 6.156c.005-.171.01-.342.01-.526a.643.643 0 0 0-.08-.236c-.449-2.89-2.903-5.142-5.944-5.37-.078-.026-.16-.06-.232-.075v.064c-.093-.004-.182-.013-.276-.013-3.6 0-6.528 2.842-6.528 6.336v5.704c0 3.494 2.929 6.337 6.528 6.337 1.56 0 3.195-.808 4.149-1.337a4.446 4.446 0 0 1-.83-1.136c-.717.364-1.945 1.075-3.319 1.075-2.84 0-5.15-2.217-5.15-4.939v-1.66h7.265c3.215 0 4.27-.962 4.4-4.044h.015c0-.06-.007-.12-.008-.18Zm-4.406 2.825h-7.264v-2.645c0-2.722 2.31-4.938 5.15-4.938 2.795 0 5.071 2.147 5.143 4.81-.057 2.361-.534 2.773-3.029 2.773Zm47.203-2.825c.004-.171.01-.342.01-.526a.684.684 0 0 0-.08-.236c-.449-2.89-2.904-5.142-5.945-5.37-.077-.026-.16-.06-.232-.075v.064c-.092-.004-.181-.013-.274-.013-3.602 0-6.53 2.842-6.53 6.336v5.704c0 3.494 2.93 6.337 6.53 6.337 1.56 0 3.194-.808 4.146-1.337a4.491 4.491 0 0 1-.829-1.136c-.715.364-1.944 1.075-3.317 1.075-2.84 0-5.152-2.217-5.152-4.939v-1.66h7.267c3.214 0 4.27-.962 4.399-4.044h.016c0-.06-.008-.12-.01-.18Zm-4.405 2.825h-7.267v-2.645c0-2.722 2.312-4.938 5.152-4.938 2.795 0 5.07 2.147 5.142 4.81-.055 2.361-.534 2.773-3.027 2.773Zm-13.42 7.092a5.256 5.256 0 0 1-2.961.906c-2.841 0-5.152-2.217-5.152-4.939v-5.704c0-2.722 2.31-4.938 5.152-4.938 1.207 0 2.316.405 3.197 1.073.363-.31.759-.582 1.173-.83a6.607 6.607 0 0 0-4.37-1.641c-3.6 0-6.53 2.842-6.53 6.336v5.704c0 3.494 2.93 6.337 6.53 6.337a6.604 6.604 0 0 0 4.108-1.42 8.855 8.855 0 0 1-1.148-.884ZM167.24 7.52a6.593 6.593 0 0 0-5.152 2.454V7.52h-1.38v18.377h1.38v-12.04c0-2.723 2.31-4.94 5.152-4.94 1.207 0 2.317.406 3.196 1.074.364-.31.76-.582 1.173-.83a6.61 6.61 0 0 0-4.37-1.641Z" fill="#231F20"/><ellipse cx="6.673" cy="6.758" rx="6.673" ry="6.758" transform="translate(5.981)" fill="url(#a)"/><g transform="translate(9.97 4.505)"><ellipse fill="url(#b)" cx="8.513" cy="8.621" rx="8.513" ry="8.621"/><circle fill="#FFF" opacity=".5" transform="rotate(45 12.826 4.638)" cx="12.826" cy="4.638" r="1"/></g><g transform="translate(0 10.41)"><ellipse fill="url(#c)" cx="10.66" cy="10.795" rx="10.66" ry="10.795"/><circle fill="#FFF" opacity=".5" transform="rotate(45.065 16.062 5.805)" cx="16.062" cy="5.805" r="1"/></g></g></svg>