<svg width="200" height="33" viewBox="0 0 200 33" xmlns="http://www.w3.org/2000/svg">
    <g fill="none" fill-rule="evenodd">
        <g fill-rule="nonzero">
            <path d="M72.813 19.47c-.02-.119-.03-.309-.03-.57 0-1.639.545-2.919 1.636-3.839 1.09-.92 2.295-1.38 3.614-1.38 1.74 0 2.95.66 3.63 1.98l-8.85 3.81zm12.66-2.34c-.02-1.939-.75-3.514-2.19-4.724-1.44-1.21-3.25-1.815-5.43-1.815-1.38 0-2.69.305-3.93.915-1.24.61-2.279 1.56-3.12 2.85-.839 1.29-1.26 2.786-1.26 4.485 0 2.46.81 4.44 2.43 5.94s3.56 2.25 5.82 2.25c2.58 0 4.82-.98 6.72-2.94l-1.98-2.19c-1.16 1.4-2.635 2.1-4.425 2.1s-3.205-.64-4.245-1.92l11.64-4.89-.03-.06zM65.69 11.58a6.953 6.953 0 0 0-2.205 2.46v-3.209h-3.36v15.96h3.36v-6.84c0-1.82.42-3.27 1.26-4.35.84-1.08 2.09-1.62 3.75-1.62h.18l-.03-3.39c-1.04.02-2.025.35-2.955.99M97.515 18.661a9.434 9.434 0 0 0-1.515-.84c-.47-.2-.955-.38-1.455-.54-.5-.16-1.075-.32-1.725-.48-.65-.16-1.155-.33-1.515-.51-.52-.24-.78-.62-.78-1.14 0-.58.25-1.014.75-1.305.5-.29 1.15-.434 1.95-.434 1.52 0 2.93.43 4.23 1.29l1.26-2.49c-1.64-1.08-3.38-1.62-5.22-1.62-1.84 0-3.335.445-4.485 1.335-1.15.89-1.725 2.075-1.725 3.554 0 2.1 1.66 3.6 4.98 4.5.08.02.2.06.36.12 2.12.64 3.18 1.36 3.18 2.16 0 .54-.22.985-.66 1.335-.44.35-1.04.525-1.8.525-1.74 0-3.54-.7-5.4-2.1l-1.62 2.61c.96.76 2.065 1.35 3.315 1.77 1.25.42 2.455.63 3.614.63 1.72 0 3.13-.455 4.23-1.365 1.1-.91 1.65-2.125 1.65-3.645s-.54-2.64-1.62-3.36M53.058 16.306c-.71.75-2.045 1.125-4.005 1.125h-4.11v-8.4h3.6c1.92 0 3.33.3 4.23.9.9.6 1.35 1.625 1.35 3.075 0 1.45-.355 2.55-1.065 3.3m2.505-8.655c-1.46-1.22-3.78-1.83-6.96-1.83h-7.2v20.97h3.54v-6.15h3.72c3.08 0 5.365-.59 6.855-1.77 1.49-1.18 2.235-3.04 2.235-5.58s-.73-4.42-2.19-5.64M106.997 24.12c-.72 0-1.28-.225-1.68-.674-.4-.45-.6-1.055-.6-1.815v-8.1h4.2v-2.7h-4.2v-5.01h-3.36v15.72c0 1.68.505 3.015 1.515 4.005 1.01.99 2.23 1.484 3.66 1.484 1.429 0 2.734-.53 3.914-1.59l-1.38-2.37c-.659.701-1.35 1.05-2.07 1.05M122.374 22.606c-.92.97-2.04 1.454-3.36 1.454-1.32 0-2.47-.48-3.45-1.44s-1.47-2.204-1.47-3.734c0-1.53.48-2.805 1.44-3.825s2.11-1.53 3.45-1.53c1.34 0 2.47.51 3.39 1.53.92 1.02 1.38 2.29 1.38 3.81s-.46 2.765-1.38 3.735m1.32-9.015c-1.36-2-3.09-3-5.19-3-2.1 0-3.92.74-5.46 2.22-1.54 1.48-2.31 3.46-2.31 5.94 0 2.48.75 4.48 2.25 6 1.5 1.52 3.26 2.28 5.28 2.28 1 0 1.995-.245 2.985-.736a6.386 6.386 0 0 0 2.445-2.114v2.61h3.36V10.83h-3.36v2.76z" fill="#1F0047"/>
            <path d="M176.857 22.576c-.95.97-2.155 1.455-3.614 1.455-1.46 0-2.665-.485-3.615-1.455-.95-.97-1.425-2.225-1.425-3.765s.475-2.795 1.425-3.765c.95-.97 2.155-1.455 3.615-1.455 1.46 0 2.665.485 3.614 1.455.95.97 1.425 2.225 1.425 3.765s-.475 2.795-1.425 3.765m-3.614-11.985c-2.4 0-4.4.795-6 2.385-1.6 1.59-2.4 3.535-2.4 5.835s.8 4.245 2.4 5.835c1.6 1.59 3.6 2.385 6 2.385s4.4-.795 6-2.385c1.6-1.59 2.4-3.535 2.4-5.835s-.8-4.245-2.4-5.835c-1.6-1.59-3.6-2.385-6-2.385M195.107 22.59c-.98.96-2.13 1.44-3.45 1.44-1.32 0-2.44-.484-3.36-1.454-.92-.97-1.38-2.215-1.38-3.735s.46-2.785 1.38-3.795c.92-1.01 2.05-1.515 3.39-1.515 1.34 0 2.49.505 3.45 1.515.96 1.01 1.44 2.28 1.44 3.81 0 1.53-.49 2.775-1.47 3.734m2.55-9.779c-1.52-1.48-3.35-2.22-5.49-2.22s-3.87 1.01-5.19 3.03v-2.79h-3.36v21.78h3.36v-8.22c1.6 1.76 3.405 2.64 5.415 2.64 2.01 0 3.77-.77 5.28-2.31 1.51-1.54 2.265-3.54 2.265-6s-.76-4.43-2.28-5.91M157.021 10.591c-1.12 0-2.165.28-3.135.84a5.325 5.325 0 0 0-2.175 2.31v-9.18h-3.36v22.23h3.36v-8.64c0-1.48.43-2.605 1.29-3.375a4.396 4.396 0 0 1 3.03-1.155c2.44 0 3.66 1.47 3.66 4.41v8.76h3.36v-9.78c0-2.08-.555-3.67-1.665-4.77-1.11-1.1-2.565-1.65-4.365-1.65M144.334 16.711c-1.09-.94-2.71-1.67-4.86-2.19-2.15-.52-3.555-1.005-4.215-1.455-.66-.45-.99-1.1-.99-1.95 0-.85.33-1.485.99-1.904.66-.42 1.505-.63 2.535-.63 1.03 0 2.074.18 3.135.54 1.06.36 1.9.82 2.52 1.38l1.89-2.67c-.96-.8-2.1-1.42-3.42-1.86a12.55 12.55 0 0 0-3.99-.66c-2.08 0-3.825.525-5.235 1.574-1.41 1.05-2.115 2.545-2.115 4.485 0 1.94.62 3.38 1.86 4.32.62.5 1.33.905 2.13 1.215.8.31 1.97.65 3.51 1.02 1.54.37 2.624.78 3.254 1.23.63.45.946 1.08.946 1.89 0 .81-.335 1.46-1.006 1.95-.67.49-1.575.735-2.715.735-2.28 0-4.48-.92-6.6-2.76l-2.219 2.67c2.54 2.26 5.45 3.39 8.73 3.39 2.24 0 4.05-.57 5.43-1.71 1.38-1.14 2.07-2.625 2.07-4.455s-.545-3.215-1.635-4.155" fill="#E2066F"/>
        </g>
        <path d="M10.846 25.02c.26-.116.524-.222.79-.322a14.554 14.554 0 0 1 2.07-.614c.526-.112 1.059-.195 1.596-.247a49.814 49.814 0 0 1-.995 2.824c.016.181.024.363.029.546a11.586 11.586 0 0 1 4.49 0c.004-.183.012-.365.028-.546a49.814 49.814 0 0 1-.995-2.824c.537.052 1.07.135 1.597.247a14.348 14.348 0 0 1 2.069.614 14.145 14.145 0 0 1 5.704 3.95c3.462-2.99 5.656-7.409 5.656-12.342 0-9.005-7.3-16.304-16.304-16.304C7.576.002.277 7.302.277 16.306c0 4.933 2.194 9.352 5.656 12.341a14.138 14.138 0 0 1 4.913-3.626z" fill="#A0DBE8" fill-rule="nonzero"/>
        <path d="M11.92 27.97a11.444 11.444 0 0 1 2.416-.763 9.028 9.028 0 0 0-.029-.546c.361-.935.694-1.877.995-2.824-.537.052-1.07.135-1.597.247a14.348 14.348 0 0 0-2.069.614l1.189.288-.904 2.984zM9.119 29.728c.03-.304.048-.61.048-.92 0-.186.15-.337.337-.337H9.8l1.046-3.45a14.149 14.149 0 0 0-4.913 3.626 16.342 16.342 0 0 0 2.458 1.755c.233-.235.476-.46.728-.674zM22.315 25.02l1.046 3.45h.296c.187 0 .337.152.337.338 0 .31.019.616.048.92.253.214.495.44.728.674a16.342 16.342 0 0 0 2.458-1.755 14.148 14.148 0 0 0-4.913-3.626zM20.337 24.986l1.188-.288a14.554 14.554 0 0 0-2.07-.614 14.407 14.407 0 0 0-1.596-.247c.301.947.634 1.889.995 2.824a9.288 9.288 0 0 0-.029.546c.842.166 1.65.425 2.416.763l-.904-2.984z" fill="#525353" fill-rule="nonzero"/>
        <path d="M16.58 28.47h2.298a9.175 9.175 0 0 1-.053-1.263 11.586 11.586 0 0 0-4.489 0c.01.418-.006.84-.053 1.264h2.298zM8.391 30.402c.19.11.38.218.575.32.068-.326.12-.658.153-.994-.252.214-.495.44-.728.674z" fill="#000" fill-rule="nonzero"/>
        <path d="M11.769 28.47h2.514c.047-.423.064-.845.053-1.263-.842.166-1.65.425-2.415.763l-.152.5zM24.042 29.728c.033.336.085.668.153.995.194-.103.386-.21.575-.321a11.54 11.54 0 0 0-.728-.674zM21.392 28.47l-.151-.5a11.441 11.441 0 0 0-2.416-.763c-.011.419.006.84.053 1.264h2.514z" fill="#000" fill-rule="nonzero"/>
        <path d="m11.769 28.47.152-.5.904-2.984-1.188-.288c-.267.1-.53.206-.79.322L9.8 28.47h1.968zM21.241 27.97l.152.5h1.968l-1.045-3.45c-.26-.116-.525-.222-.791-.322l-1.188.288.904 2.985z" fill="#AA9678" fill-rule="nonzero"/>
        <path d="m9.835 29.167.03-.021h-.029l-.001.021zM16.58 29.145H9.867l-.031.022a9.998 9.998 0 0 1-.247 1.87 16.24 16.24 0 0 0 6.993 1.573v-3.465z" fill="#C0B098" fill-rule="nonzero"/>
        <path d="M23.325 29.145h-.03l.032.022-.002-.022z" fill="#AA9678" fill-rule="nonzero"/>
        <path d="M23.296 29.145H16.58v3.465c2.503 0 4.873-.565 6.992-1.573a10.018 10.018 0 0 1-.246-1.87l-.031-.022z" fill="#AA9678" fill-rule="nonzero"/>
        <path fill="#786453" fill-rule="nonzero" d="M16.58 28.808h1v1h-1z"/>
        <path d="M24.042 29.728a9.426 9.426 0 0 1-.048-.92.337.337 0 0 0-.337-.337H9.504a.337.337 0 0 0-.337.337 9.417 9.417 0 0 1-.201 1.915c.205.108.412.214.622.314.139-.608.224-1.232.247-1.87l.001-.021H23.325v.021c.023.637.109 1.262.247 1.87.21-.1.418-.206.623-.314a9.5 9.5 0 0 1-.153-.995z" fill="#8B7460" fill-rule="nonzero"/>
        <g transform="translate(5.165 4.892)">
            <path d="m16.902 8.936.002.004c.204.586.435 1.18.554 1.79l-.013.132a3.907 3.907 0 0 1 .018-.112c-.118-.619-.354-1.22-.56-1.814l-.003.005.002-.005zM21.65 12.622l-.027.015a.838.838 0 0 0 .027-.015zM21.755 12.542c-.011.012-.023.024-.035.034.012-.01.024-.022.035-.034zM16.412 8.507a9.82 9.82 0 0 1 0 0zM20.193 12.415l.009.01-.009-.01zM20.884 13.276l.033.042-.033-.042zM17.408 11.061zM15.81 17.008zM16.904 8.933l.044-.086-.004.003a4.588 4.588 0 0 0-.04.083zM13.668 11.074v.003-.003zM14.65 7.316zM14.733 7.363l-.07-.04.07.04zM15.267 8.676v.116-.116zM13.613 10.933l.001.002-.001-.002zM21.55 14.137l.06.08-.06-.08zM15.265 9.19zM13.709 11.221v.004-.004zM15.2 7.629l-.357-.204.356.204zM14.834 7.42l-.1-.056.1.056zM15.226 7.644zM22.094 11.604l.002-.037v-.01l-.002-.035.002.04-.002.042zM19.425 11.503l.046.054h.003a1.903 1.903 0 0 0-.05-.054zM17.195 9.192zM21.44 10.437zM20.813 11.247l-.01.058.01-.058zM21.592 10.47zM21.842 10.678zM22.082 11.328l-.001-.007c0-.005-.002-.009-.003-.013l.004.021zM22.08 11.804l.002-.01c0 .008-.003.016-.004.024 0-.005.002-.009.003-.014zM21.013 10.715zM21.324 10.458zM18.428 10.407c-.1-.106-.203-.21-.304-.313.102.104.203.207.304.313zM21.44 6.872v-.004 1.516l-.58 2.66-.005.02.005-.015.58-2.66V6.873zM18.97 10.992l-.158-.175.159.175zM22.021 11.048l.02.063c-.006-.023-.013-.042-.02-.063zM20.784 11.556l.003-.03-.003.03zM21.21 10.512zM21.092 10.613zM22.041 12.012a1.49 1.49 0 0 1 .002-.002l-.002.002zM2.171 11.058l.073-.113c-.024.038-.05.075-.073.113zM21.705 10.534zM2.633 10.379l.035-.05-.035.05zM13.747 11.549v-.003h.003l-.004-.009v.012zM1.463 12.357zM1.106 13.19l-.012.03.012-.03zM21.844 7.26l-.001-.002zM4.327 8.55v.001-.001zM3.69 9.143l.097-.096-.098.096zM3.114 9.772c.033-.04.066-.078.1-.116l-.1.116zM22.021 11.049l-.58-2.66.58 2.66zM11.896 13.063l-.032-.009.032.009zM12.051 13.087l-.036-.006.036.006zM1.82 11.654c-.037.067-.071.134-.107.202.036-.068.07-.135.107-.202zM11.462 12.9l-.002-.001h.002zM11.745 13.023l-.02-.008.02.008zM11.6 12.968l-.01-.005.01.005zM10.789 12.139l.001.004-.001-.004zM10.717 11.209l-.01.034.01-.034zM10.875 10.802c0 .002-.002.003-.003.004a.024.024 0 0 0 .003-.004zM11.385 10.265h-.001zM10.757 11.067l-.009.024.009-.024zM10.81 10.932l-.007.014.007-.014zM12.513 10.053l-.007-.001.007.001zM12.792 10.138l-.004-.002.004.002zM11.642 10.133l-.007.003.007-.003zM11.922 10.051l-.01.002.01-.002zM13.735 11.377v.002-.002zM12.22 6.616v-.067.067zM12.22 6.509v-.04.04zM12.22 6.447v-.009.009zM12.22 6.821v-.157.157zM21.89 12.377zM10.689 11.362l-.006.037.006-.037zM10.704 11.856l.001.006v-.006zM21.972 12.217z"/>
            <path d="M16.083 21.252z" fill="#525353" fill-rule="nonzero"/>
            <path d="m16.458 21.624.004.01-.004-.01s-.165-.13-.375-.372c.21.241.375.372.375.372z" fill="#AA9678" fill-rule="nonzero"/>
            <circle fill="#FFF" fill-rule="nonzero" transform="rotate(-4.571 21.485 6.923)" cx="21.485" cy="6.923" r="1"/>
            <path d="M22.096 11.567v-.005.005z" fill="#FFF" fill-rule="nonzero"/>
            <path d="m22.27 7.785-.007-.01a5.559 5.559 0 0 0-.419-.516l-.003-.005a4.652 4.652 0 0 0-.198-.201c-.025-.025-.05-.046-.076-.069-.042-.038-.084-.077-.126-.112V8.39l.58 2.659c.007.02.014.04.02.062l.402.45.004-.004h.421c0-.04.003-.078.003-.117 0-1.254-.206-2.46-.58-3.589l-.02-.065zM22.097 11.562v-.005.005z" fill="#BBBCBD" fill-rule="nonzero"/>
            <path d="m22.078 11.308.003.013.001.007v.001c.008.063.01.127.012.193l.002.036V11.567l-.002.038a1.887 1.887 0 0 1-.012.19l-.001.01-.003.014a1.7 1.7 0 0 1-.037.193l.002-.002.001-.003.399-.446-.402-.451c.016.064.028.13.037.198z" fill="#676A6A" fill-rule="nonzero"/>
            <path d="M22.078 11.819c0-.009.003-.016.004-.025.008-.061.01-.125.012-.19 0-.014.003-.027.003-.042 0-.014-.002-.026-.003-.04a1.955 1.955 0 0 0-.012-.193c0-.007-.003-.014-.004-.021a1.77 1.77 0 0 0-.037-.197l-.02-.063a1.26 1.26 0 0 0-.18-.37.644.644 0 0 0-.137-.144c-.01-.008-.022-.014-.033-.022a.478.478 0 0 0-.114-.054.393.393 0 0 0-.117-.02.394.394 0 0 0-.151.033.49.49 0 0 0-.079.041c-.01.008-.023.014-.034.022a.644.644 0 0 0-.137.144 1.264 1.264 0 0 0-.18.37c0 .006-.003.01-.004.016-.017.058-.03.12-.042.183l-.01.058c-.01.071-.015.145-.016.22l-.002.031h.002c0 .622.294 1.125.657 1.125a.405.405 0 0 0 .206-.06.542.542 0 0 0 .07-.045.748.748 0 0 0 .17-.199c.011-.017.02-.036.03-.054.019-.033.036-.069.052-.106l.017-.04a1.47 1.47 0 0 0 .089-.358zm-.614-.407c-.136 0-.246-.189-.246-.422 0-.232.11-.421.246-.421s.246.189.246.421c0 .233-.11.422-.246.422z" fill="#000" fill-rule="nonzero"/>
            <circle fill="#FFF" fill-rule="nonzero" cx="21.464" cy="10.99" r="1"/>
            <path d="M20.86 11.049a1.255 1.255 0 0 1 .18-.37.663.663 0 0 1 .137-.144c.01-.01.022-.015.033-.023a.457.457 0 0 1 .23-.074.384.384 0 0 1 .152.033.479.479 0 0 1 .079.041l.034.022a.644.644 0 0 1 .137.144l.025.036c.063.094.115.207.154.334l-.58-2.659-.581 2.66z" fill="#909393" fill-rule="nonzero"/>
            <path d="M13.746 11.537c0-.053-.004-.106-.01-.158v-.003a1.591 1.591 0 0 0-.026-.151l-.001-.004a1.46 1.46 0 0 0-.04-.144l-.001-.004a1.552 1.552 0 0 0-.122-.273 1.552 1.552 0 0 0-.754-.663l-.004-.002a1.51 1.51 0 0 0-.275-.082l-.007-.002a1.541 1.541 0 0 0-.584 0l-.01.001a1.502 1.502 0 0 0-.27.08l-.007.003c-.088.036-.172.08-.25.13h-.001c-.08.051-.154.11-.222.174l-.002.005-.006.002c-.11.103-.203.223-.279.355 0 .002-.002.003-.003.005-.023.04-.043.082-.062.125l-.007.014c-.017.04-.032.08-.046.122l-.009.023a1.485 1.485 0 0 0-.031.118l-.01.034a1.66 1.66 0 0 0-.018.12l-.006.036a1.509 1.509 0 0 0 .106.74l.001.004a1.541 1.541 0 0 0 .67.756l.002.001c.041.023.084.044.127.064l.01.005c.04.017.082.032.125.047l.02.007c.04.013.08.023.12.032l.032.008c.039.008.079.014.119.019l.036.006a1.531 1.531 0 0 0 1.575-.93 1.53 1.53 0 0 0 .12-.598V11.538zm-1.535-.18a.577.577 0 1 1 0-1.154.577.577 0 0 1 0 1.154z" fill="#000" fill-rule="nonzero"/>
            <circle fill="#FFF" fill-rule="nonzero" cx="12.211" cy="10.78" r="1"/>
            <path d="m11.154 10.446.006-.001.002-.005 1.057-3.236V6.438a9.021 9.021 0 0 0-1.815-.187c-.207 0-.412.01-.616.023l-.09.006a9.09 9.09 0 0 0-3.075.8c-.83.379-1.602.878-2.296 1.47v.002c-.187.158-.365.325-.54.496l-.098.096c-.164.165-.322.336-.476.512l-.099.116c-.154.182-.304.367-.446.558l-.035.05c-.135.184-.264.373-.389.566l-.073.112c-.1.16-.194.324-.287.488h4.82l4.45-1.1z" fill="#BBBCBD" fill-rule="nonzero"/>
            <path d="M15.223 10.082a14.268 14.268 0 0 0 .044-1.29v-.116a20.31 20.31 0 0 0-.038-1.028l-.002-.002-.002-.002a.54.54 0 0 0-.01-.007l-.016-.008a99.539 99.539 0 0 0-.356-.204l-.009-.005-.1-.057h-.001l-.07-.04-.013-.007a9.594 9.594 0 0 0-.728-.346c-.548-.231-1.286-.434-1.702-.532v.766l1.049 3.24v.003a1.538 1.538 0 0 1 .343.485l.002.003c.02.045.038.091.054.138l.001.004c.016.047.029.095.04.144v.004c.012.05.02.1.026.151v.003c.007.052.01.104.011.158l.004.009h1.284c.087-.47.147-.946.186-1.424 0-.014.002-.027.003-.04z" fill="#E2DDDB" fill-rule="nonzero"/>
            <path d="m16.902 8.936-.002.005.002-.005zM13.757 16.164c.291-.29.566-.568.829-.84.156-.161.308-.321.453-.48 1.073-1.164 1.861-2.254 2.335-3.657.011-.033.023-.077.033-.126l.005-.023c.012-.052.022-.11.033-.176l.013-.131c-.12-.611-.35-1.204-.555-1.79l.003.005c-.002 0-.005-.004-.006-.005l-.12-.108a9.85 9.85 0 0 0-1.55-1.185c.02.343.033.686.037 1.028v.116a17.14 17.14 0 0 1-.02.911c-.006.127-.014.253-.024.379l-.004.04c-.038.478-.098.954-.185 1.424l-.151.713c-.315 1.277-.955 2.435-1.481 3.631-.14.317-.272.638-.388.965l-.033.092c.165-.173.31-.322.42-.431l.356-.352z" fill="#FBB040" fill-rule="nonzero"/>
            <path d="M11.162 10.44a1.527 1.527 0 0 1 .473-.304l.007-.003c.086-.034.176-.062.27-.08l.01-.002a1.536 1.536 0 0 1 .584.001l.007.001a1.533 1.533 0 0 1 .757.395l-.001-.003-1.05-3.24-1.057 3.235z" fill="#909393" fill-rule="nonzero"/>
            <path d="M10.789 12.139a1.533 1.533 0 0 1-.084-.277v-.006a1.542 1.542 0 0 1-.022-.457l.006-.037c.005-.04.01-.08.02-.12l.008-.033c.01-.04.019-.08.031-.118l.009-.024c.014-.041.029-.082.046-.122l.007-.013c.02-.043.04-.085.063-.126l.003-.004c.075-.132.169-.252.278-.356l-4.45 1.1h-.009l4.409 1.075a1.541 1.541 0 0 1-.313-.479l-.002-.003z" fill="#676A6A" fill-rule="nonzero"/>
            <path d="m20.803 11.305.01-.058c.012-.063.025-.125.042-.184l.005-.02.58-2.66V6.868c-.474-.391-.982-.606-1.512-.606-.668 0-1.291.37-1.757.825-.51.5-.904 1.127-1.223 1.76-.015.03-.03.057-.044.087.098.085.195.171.291.259.217.198.43.402.639.609.098.096.193.195.29.293a26.615 26.615 0 0 1 .847.898c.152.169.304.339.453.51v.001c.026.026.043.045.05.053h1.31l.002-.031c.002-.075.007-.15.017-.22zM16.904 8.94l-.002-.004-.002.005.006.005-.002-.006z" fill="#E2DDDB" fill-rule="nonzero"/>
            <path d="m1.094 13.22.012-.03c.084-.22.177-.438.274-.654l.083-.179c.08-.17.163-.336.25-.501.036-.068.07-.135.107-.202.02-.037.043-.072.064-.108.093-.165.186-.329.287-.488l.073-.113c.124-.192.253-.382.389-.567l.035-.049c.142-.19.292-.376.446-.558.033-.039.065-.078.099-.116.153-.176.311-.347.476-.512l.098-.096c.174-.17.352-.338.539-.496V8.55C5.06 6.096 7.3 4.31 9.953 4.31a5.86 5.86 0 0 1 3.039.864 5.955 5.955 0 0 1 2.195 2.396c.012.025.026.048.039.073l.001.003.003.002a9.842 9.842 0 0 1 1.55 1.184c.04.037.081.071.12.108l.003-.004.001-.003.04-.083c.374-2.358 1.415-4.058 2.642-4.058.925 0 1.744.965 2.252 2.45l.005.016.002.001c.143.156.283.328.418.516l.008.01.02.066-.019-.077C20.744 3.254 16.47 0 11.435 0 5.119 0 0 5.12 0 11.435c0 1.245.199 2.443.568 3.559l.002-.007a12.26 12.26 0 0 1 .524-1.768z" fill="#525353" fill-rule="nonzero"/>
            <path d="m22.443 11.561-.399.446v.003a1.497 1.497 0 0 1-.055.166l-.017.04a1.212 1.212 0 0 1-.051.108l-.03.053a.871.871 0 0 1-.136.166l-.035.033a.533.533 0 0 1-.07.046l-.027.015a.408.408 0 0 1-.18.044c-.362 0-.656-.503-.656-1.124h-1.316c.245.283.485.57.722.858l.009.01c.23.281.458.565.682.85.01.015.022.029.033.043.213.271.424.545.632.819l.061.079c.221.29.44.582.657.873l.004.007c.376-1.114.587-2.303.6-3.54h-.423l-.005.005z" fill="#FFF" fill-rule="nonzero"/>
            <path d="m9.699 6.28.089-.006c.204-.014.41-.023.616-.023.62 0 1.226.066 1.815.187V6.729v-.291c.416.098 1.155.3 1.703.532a9.358 9.358 0 0 1 .727.346l.014.008.069.038.002.001.1.057.008.005a83.39 83.39 0 0 1 .372.212l.01.007-.038-.074-.007-.014a5.953 5.953 0 0 0-2.188-2.382 5.86 5.86 0 0 0-3.039-.864C7.3 4.31 5.06 6.096 4.327 8.55a9.831 9.831 0 0 1 2.295-1.47 9.092 9.092 0 0 1 3.077-.8z" fill="#000" fill-rule="nonzero"/>
            <path d="M12.22 6.729v.069"/>
            <path d="M18.17 7.087c.467-.456 1.09-.825 1.758-.825.53 0 1.038.214 1.512.606v.005c.043.034.084.074.126.112.026.023.052.044.077.068.066.064.132.131.197.202l.004.005-.002-.002-.005-.016c-.508-1.484-1.327-2.449-2.252-2.449-1.227 0-2.268 1.7-2.641 4.058l.003-.004c.32-.634.714-1.261 1.224-1.76z" fill="#000" fill-rule="nonzero"/>
            <path d="M7.342 22.101a11.403 11.403 0 0 0 4.094.756c1.51 0 2.95-.295 4.27-.827.07-.028.139-.06.208-.089.112-.047.223-.097.333-.148.1-.046.198-.091.295-.14-.024.003-.047.008-.07.01-.411.047-.818.05-1.216-.007-2.353-.339-2.874-1.473-2.8-2.655a5.87 5.87 0 0 1-.517-.334c-1.81-1.313-2.883-2.712-2.883-2.712s1.396 1.078 3.48 1.884l.131.05c.098-.338.213-.658.314-.942l.033-.092c.116-.327.249-.647.388-.965.526-1.196 1.166-2.354 1.481-3.631l.151-.713h-1.287v.013a1.531 1.531 0 0 1-.938 1.416 1.53 1.53 0 0 1-.758.112l-.036-.006c-.04-.005-.08-.01-.119-.018l-.032-.009c-.04-.009-.08-.019-.12-.031l-.02-.008a1.459 1.459 0 0 1-.124-.047l-.01-.005a1.451 1.451 0 0 1-.128-.063l-.002-.001a1.536 1.536 0 0 1-.357-.277l-4.408-1.076H1.884c-.02.036-.044.072-.064.108-.037.067-.071.135-.107.202a11.744 11.744 0 0 0-.333.68c-.097.216-.19.434-.274.654l-.011.03a12.443 12.443 0 0 0-.524 1.767 11.464 11.464 0 0 0 4.157 5.694c.056.041.116.077.172.117a11.443 11.443 0 0 0 2.442 1.303z" fill="#FFF" fill-rule="nonzero"/>
            <path d="M15.237 18.55a3.122 3.122 0 0 0 .087 1.326c.05.174.112.337.182.488a3.663 3.663 0 0 0 .578.888c.21.241.375.372.375.372l.003.011.01.029c.023-.002.047-.007.07-.01a7.192 7.192 0 0 0 1.53-.384c.259-.093.516-.194.77-.31.077-.035.152-.074.23-.111 2.618-1.267 4.812-3.507 4.812-3.507-3.292 1.617-6.508 1.553-8.647 1.207z" fill="#9F2255" fill-rule="nonzero"/>
            <path d="M21.55 14.137c-.21-.274-.42-.548-.633-.819l-.033-.042c-.225-.286-.452-.57-.682-.85l-.009-.01a42.941 42.941 0 0 0-.768-.912c-.15-.172-.302-.342-.454-.511l-.16-.175a29.469 29.469 0 0 0-.687-.723c-.096-.098-.192-.197-.29-.293-.21-.206-.422-.41-.638-.609a15.003 15.003 0 0 0-.292-.26l-.001.004c.206.593.442 1.195.56 1.814.03.16.056.318.077.47.288 2.144-.4 3.544-1.49 5.385l-.24.403c-.25.416-.41.81-.502 1.18-.031.123-.055.243-.071.361 2.139.345 5.355.41 8.646-1.208 0 0-.645-.948-1.616-2.252a118.08 118.08 0 0 0-.657-.873l-.06-.08z" fill="#E2066F" fill-rule="nonzero"/>
            <path d="M16.458 21.624s-.165-.13-.375-.372a3.982 3.982 0 0 1-.352-.473 3.615 3.615 0 0 1-.408-.904 3.215 3.215 0 0 1-.12-.967 3.55 3.55 0 0 1 .104-.72c.092-.37.252-.764.502-1.18l.002-.003.238-.4c1.09-1.84 1.778-3.24 1.49-5.384a8.755 8.755 0 0 0-.077-.47 4.631 4.631 0 0 1-.05.287l-.005.023a1.326 1.326 0 0 1-.033.126c-.474 1.402-1.262 2.492-2.335 3.657-.145.158-.298.318-.454.48-.262.272-.537.55-.828.84l-.355.352c-.111.11-.256.259-.42.431-.102.284-.218.604-.315.94-.044-.016-.086-.03-.13-.048-2.085-.806-3.481-1.884-3.481-1.884s1.073 1.399 2.883 2.711c.175.128.348.237.517.335-.075 1.182.447 2.316 2.8 2.654.397.058.805.055 1.215.008l-.01-.028c-.001-.007-.003-.01-.003-.01z" fill="#000" fill-rule="nonzero"/>
        </g>
    </g>
</svg>
