<svg width="180" height="44" xmlns="http://www.w3.org/2000/svg"><defs><linearGradient x1="50%" y1="100%" x2="50%" y2="0%" id="a"><stop stop-color="#1D93D2" offset="0%"/><stop stop-color="#38B0E3" offset="100%"/></linearGradient></defs><g fill-rule="nonzero" fill="none"><ellipse fill="url(#a)" cx="21.77" cy="22" rx="21.77" ry="22"/><path d="m14.736 23.608 2.583 7.225s.323.676.669.676c.346 0 5.489-5.407 5.489-5.407l5.719-11.163-14.367 6.804-.093 1.865Z" fill="#C8DAEA"/><path d="m18.161 25.461-.496 5.325s-.207 1.632 1.407 0 3.16-2.89 3.16-2.89" fill="#A9C6D8"/><path d="m14.783 23.866-5.313-1.75s-.635-.26-.43-.85c.042-.122.126-.225.38-.403 1.178-.83 21.79-8.316 21.79-8.316s.582-.199.925-.067a.505.505 0 0 1 .342.377c.037.155.053.315.046.474-.002.138-.018.266-.03.466-.126 2.047-3.883 17.324-3.883 17.324s-.225.894-1.03.924c-.4.013-.788-.138-1.075-.42-1.58-1.374-7.042-5.083-8.25-5.9a.233.233 0 0 1-.098-.164c-.017-.086.075-.193.075-.193s9.511-8.543 9.764-9.44c.02-.07-.054-.104-.154-.073-.631.235-11.582 7.223-12.79 7.994a.576.576 0 0 1-.269.017Z" fill="#FFF"/><g fill="#4D4D4D"><path d="M64.445 32.083h-4.393V14.839h-5.627v-3.696h15.647v3.696h-5.627zM78.447 18.878c-.917 0-1.635.293-2.155.88-.52.588-.817 1.42-.892 2.5h6.066c-.02-1.08-.298-1.912-.837-2.5-.538-.587-1.266-.88-2.182-.88Zm.61 13.492c-2.552 0-4.546-.712-5.982-2.134-1.436-1.423-2.154-3.438-2.154-6.045 0-2.683.664-4.757 1.991-6.223 1.328-1.466 3.163-2.198 5.506-2.198 2.24 0 3.983.644 5.23 1.933 1.248 1.29 1.871 3.07 1.871 5.343v2.12H75.3c.048 1.24.411 2.21 1.092 2.907.68.697 1.634 1.046 2.863 1.046.954 0 1.856-.1 2.707-.301.85-.2 1.738-.52 2.664-.96v3.38a10.08 10.08 0 0 1-2.423.853c-.86.186-1.909.279-3.147.279ZM92.32 32.083h-4.323V9.797h4.323zM102.381 18.878c-.916 0-1.634.293-2.154.88-.52.588-.817 1.42-.893 2.5h6.066c-.019-1.08-.297-1.912-.836-2.5-.539-.587-1.266-.88-2.183-.88Zm.61 13.492c-2.551 0-4.545-.712-5.981-2.134-1.437-1.423-2.155-3.438-2.155-6.045 0-2.683.664-4.757 1.992-6.223 1.327-1.466 3.163-2.198 5.506-2.198 2.24 0 3.983.644 5.23 1.933 1.247 1.29 1.87 3.07 1.87 5.343v2.12H99.236c.047 1.24.41 2.21 1.091 2.907.68.697 1.635 1.046 2.863 1.046.955 0 1.857-.1 2.707-.301.85-.2 1.739-.52 2.665-.96v3.38a10.08 10.08 0 0 1-2.424.853c-.86.186-1.908.279-3.146.279ZM125.723 16.07v2.22l-2.48.645c.453.716.68 1.518.68 2.406 0 1.719-.593 3.058-1.78 4.018-1.185.96-2.831 1.44-4.938 1.44l-.78-.044-.638-.071c-.444.343-.666.725-.666 1.145 0 .63.794.946 2.381.946h2.693c1.739 0 3.064.377 3.976 1.131.911.755 1.367 1.862 1.367 3.323 0 1.872-.772 3.323-2.317 4.354-1.545 1.032-3.763 1.547-6.654 1.547-2.211 0-3.9-.389-5.067-1.167-1.167-.778-1.75-1.87-1.75-3.273 0-.964.297-1.771.892-2.42.596-.65 1.47-1.113 2.622-1.39-.444-.19-.831-.503-1.162-.938-.33-.434-.496-.895-.496-1.382 0-.611.175-1.12.524-1.525.35-.406.856-.805 1.517-1.196a4.267 4.267 0 0 1-1.977-1.748c-.487-.802-.73-1.747-.73-2.836 0-1.747.562-3.098 1.687-4.053 1.124-.955 2.73-1.432 4.818-1.432.445 0 .971.04 1.58.121.61.081 1 .141 1.17.18h5.528ZM113.49 34.346c0 .602.286 1.075.858 1.418.571.344 1.372.516 2.402.516 1.55 0 2.764-.215 3.642-.645.88-.43 1.319-1.016 1.319-1.761 0-.602-.26-1.017-.78-1.246-.52-.23-1.323-.344-2.41-.344h-2.239c-.793 0-1.457.188-1.991.566-.534.377-.8.876-.8 1.496Zm1.573-13.033c0 .868.196 1.556.589 2.062.392.506.99.76 1.792.76.813 0 1.408-.254 1.786-.76.378-.506.567-1.194.567-2.062 0-1.93-.784-2.894-2.353-2.894-1.587 0-2.38.965-2.38 2.894ZM136.138 15.77c.586 0 1.072.043 1.46.128l-.326 4.097c-.35-.096-.775-.143-1.276-.143-1.38 0-2.454.358-3.224 1.074-.77.716-1.155 1.719-1.155 3.008v8.15h-4.323V16.07h3.274l.638 2.693h.212a5.995 5.995 0 0 1 1.992-2.17 4.873 4.873 0 0 1 2.728-.823ZM149.501 32.083l-.836-2.177h-.113c-.728.926-1.477 1.569-2.247 1.927-.77.358-1.774.537-3.012.537-1.52 0-2.719-.44-3.593-1.318-.874-.878-1.31-2.13-1.31-3.752 0-1.7.588-2.953 1.764-3.76 1.176-.807 2.95-1.254 5.322-1.34l2.75-.085v-.702c0-1.623-.822-2.435-2.466-2.435-1.267 0-2.755.387-4.465 1.16l-1.432-2.95c1.824-.965 3.846-1.447 6.067-1.447 2.126 0 3.755.468 4.89 1.404 1.133.935 1.7 2.358 1.7 4.268v10.67h-3.019Zm-1.275-7.419-1.673.057c-1.256.039-2.192.268-2.806.688-.614.42-.921 1.06-.921 1.92 0 1.23.699 1.847 2.097 1.847 1.002 0 1.803-.291 2.403-.874.6-.582.9-1.356.9-2.32v-1.318ZM170.121 32.083h-4.323V22.73c0-1.155-.19-2.021-.574-2.6-.382-.577-.985-.866-1.807-.866-1.105 0-1.908.41-2.41 1.232-.5.821-.75 2.172-.75 4.054v7.533h-4.323V16.07h3.302l.581 2.049h.241c.425-.736 1.04-1.311 1.843-1.726.803-.416 1.724-.623 2.764-.623 2.371 0 3.978.783 4.818 2.349h.383c.425-.745 1.051-1.323 1.878-1.734.827-.41 1.76-.615 2.8-.615 1.795 0 3.153.465 4.074 1.396.921.931 1.382 2.423 1.382 4.476v10.441h-4.337V22.73c0-1.155-.191-2.021-.574-2.6-.383-.577-.985-.866-1.807-.866-1.058 0-1.85.382-2.374 1.146-.525.764-.787 1.977-.787 3.638v8.035Z"/></g></g></svg>