<svg width="175" height="40" xmlns="http://www.w3.org/2000/svg">
    <g fill="none" fill-rule="evenodd">
        <path d="M134.84 29.397a8.566 8.566 0 1 1 7.934-11.847h5.718c-.104-.45-.23-.895-.38-1.332l3.304-2.985-1.614-2.878-4.394 1.226a13.47 13.47 0 0 0-1.233-1.234l1.348-4.172-2.833-1.698-3.358 3.046a14.55 14.55 0 0 0-1.736-.465l-1.035-4.264-3.304-.068-1.135 4.34c-.614.12-1.22.28-1.812.48l-3.114-3.229-2.901 1.584 1.21 4.454c-.415.37-.81.764-1.18 1.18l-4.393-1.218-1.728 2.817 3.327 3.236a14.04 14.04 0 0 0-.45 1.683l-4.309 1.21-.099 3.297 4.424 1.203c.128.604.296 1.2.503 1.782l-3.389 2.939 1.561 2.908 4.569-1.233c.357.396.735.772 1.134 1.127l-1.066 4.568 2.817 1.584 3.335-3.251c.5.162 1.008.295 1.523.395l1.058 4.5h3.312l1.09-4.5a13.705 13.705 0 0 0 1.766-.472l3.045 3.29 2.916-1.615-1.21-4.355c.459-.397.891-.824 1.294-1.279l4.264 1.28 1.675-2.848-2.68-2.62h-6.853a8.604 8.604 0 0 1-6.898 3.457l-.023-.023z" fill="#7ABF42"/>
        <path fill="#043855" d="M.195 4.507h6.252l7.857 24.662 7.98-24.753h5.108l7.98 24.753 7.857-24.662h6.061L38.615 38.001H32.57L24.743 14.11 17.327 38h-6.213L.195 4.507zM52.138 4.507h5.695v13.827h14.482V4.507h5.695v33.258h-5.695V23.748H57.833v14.017h-5.695V4.507zM81.885 4.507h6.548l9.693 13.873 9.692-13.873h6.815v33.258h-6.167V13.12L98.202 28.004 87.695 13.218v24.547h-5.81V4.507zM151.416 29.276v6.228a24.753 24.753 0 0 0 10.66 2.764c5.664 0 12.052-2.78 12.052-9.366s-4.02-9.296-10.02-10.903c-6-1.606-7.058-2.687-7.058-4.515 0-1.606 1.241-4.066 6.853-4.066 2.94-.019 5.796.991 8.07 2.856V6.259s-4.675-2.239-8.893-2.239c-4.218 0-11.664.998-11.664 9.974 0 11.787 16.56 7.089 16.56 14.634 0 3.046-2.908 4.051-7.043 4.005-4.568-.053-9.517-3.357-9.517-3.357z"/>
        <path d="M144.677 6.175a5.566 5.566 0 1 0 5.581 5.566 5.573 5.573 0 0 0-5.58-5.566zm8.94 7.416c-.08.387-.185.768-.313 1.142l2.063 2.018-1.088 1.842-2.764-.83a9.746 9.746 0 0 1-.845.838l.761 2.825-1.865 1.066-1.957-2.125a8.52 8.52 0 0 1-1.15.305l-.716 2.931h-2.154l-.678-2.924a7.484 7.484 0 0 1-1.005-.258l-2.17 2.116-1.827-1.028.692-2.97a9.548 9.548 0 0 1-.76-.76l-2.97.799-.967-1.827 2.2-1.911a8.375 8.375 0 0 1-.327-1.158l-2.878-.761.06-2.14 2.795-.761c.068-.372.165-.739.29-1.096l-2.163-2.102L135 4.995l2.854.761c.235-.272.49-.526.762-.761l-.762-2.901 1.889-1.028 2.017 2.101c.386-.131.78-.236 1.18-.312l.762-2.817 2.147.046.67 2.771a9.06 9.06 0 0 1 1.127.297l2.185-1.995 1.843 1.097-.876 2.71c.282.254.548.523.8.807l2.855-.8 1.05 1.874-2.14 1.941c.152.43.272.87.359 1.318l2.924.761v2.147l-2.94.647-.09-.068z" fill="#D8DADB"/>
    </g>
</svg>
