<svg width="108" height="64" xmlns="http://www.w3.org/2000/svg">
    <path d="M97.925 0c5.512 0 9.974 4.484 9.974 10.022v33.407c0 5.538-4.462 10.022-9.974 10.022H66.69L70.978 64 52.124 53.45h-41.25C5.36 53.45.898 48.968.898 43.43V10.022C.856 4.527 5.318 0 10.829 0h87.096zM49.749 6.818c-.827-.655-1.74-.961-2.74-.874-1.262.087-2.219.7-2.871 1.923-2.697 4.939-4.61 12.937-5.742 24.038-1.653-4.195-3.044-9.134-4.132-14.947-.478-2.579-1.653-3.802-3.566-3.671-1.305.087-2.393.961-3.263 2.622L17.91 34.134c-1.566-6.337-3.045-14.073-4.393-23.207-.305-2.273-1.566-3.322-3.784-3.147-1.218.087-2.132.524-2.74 1.355-.61.786-.87 1.792-.697 2.928 2.567 16.39 4.959 27.447 7.177 33.173.87 2.098 1.87 3.103 3.045 3.015 1.827-.13 4.002-2.666 6.568-7.604 1.348-2.798 3.436-6.993 6.263-12.588 2.349 8.26 5.568 14.467 9.613 18.619 1.13 1.18 2.305 1.705 3.436 1.617 1-.087 1.783-.612 2.305-1.573.435-.83.61-1.792.522-2.885-.26-3.977.13-9.528 1.218-16.652 1.13-7.342 2.523-12.63 4.219-15.778.348-.655.478-1.31.435-2.098-.087-1.005-.522-1.835-1.348-2.49zm41.408 3.846c-4.176 0-7.569 2.186-10.222 6.556-2.262 3.715-3.393 7.824-3.393 12.325 0 3.366.696 6.25 2.088 8.654 1.566 2.754 3.871 4.414 6.96 5.07.826.175 1.609.262 2.348.262 4.22 0 7.612-2.185 10.222-6.556 2.261-3.758 3.392-7.867 3.392-12.369.044-3.409-.696-6.25-2.087-8.61-1.566-2.753-3.872-4.414-6.96-5.07a11.364 11.364 0 0 0-2.348-.262zm-27.229 0c-4.175 0-7.568 2.186-10.221 6.556-2.262 3.715-3.393 7.824-3.393 12.325 0 3.366.696 6.25 2.088 8.654 1.566 2.754 3.871 4.414 6.96 5.07.826.175 1.609.262 2.348.262 4.219 0 7.612-2.185 10.221-6.556 2.262-3.758 3.393-7.867 3.393-12.369 0-3.409-.696-6.25-2.088-8.61-1.566-2.753-3.914-4.414-6.959-5.07a11.364 11.364 0 0 0-2.349-.262zm28.011 7.387c1.044.218 1.914 1.136 2.567 2.84.522 1.355.783 2.71.783 3.978 0 1.136-.087 2.229-.305 3.234-.609 2.885-1.696 5.026-3.306 6.468-1.26 1.137-2.435 1.618-3.523 1.4-1.044-.22-1.913-1.137-2.566-2.842-.522-1.355-.783-2.71-.783-3.977 0-1.093.087-2.185.305-3.19a14.166 14.166 0 0 1 2.305-5.202c1.435-2.141 2.958-3.015 4.523-2.71zm-27.271 0c1.044.218 1.913 1.136 2.566 2.84.522 1.355.783 2.71.783 3.978a12.97 12.97 0 0 1-.305 3.234c-.609 2.885-1.696 5.026-3.305 6.468-1.262 1.137-2.436 1.618-3.523 1.4-1.044-.22-1.914-1.137-2.567-2.842-.522-1.355-.783-2.71-.783-3.977 0-1.093.087-2.185.305-3.19a14.166 14.166 0 0 1 2.305-5.202c1.435-2.141 2.958-3.015 4.524-2.71z" fill="#9B5C8F" fill-rule="nonzero"/>
</svg>
