<svg width="158" height="48" xmlns="http://www.w3.org/2000/svg"><g fill-rule="nonzero" fill="none"><path d="M91.598 39.174c1.613-.371 2.73-1.362 3.475-2.973.372-.867.62-1.982.869-3.468.248-1.487.248-2.725.248-3.84V27.53h-7.447v3.345c0 .743-.124 1.486-.248 2.23-.124.743-.745 1.114-1.738 1.114s-1.613-.371-1.737-1.114c-.124-.744-.249-1.487-.249-2.23 0-2.354 0-4.831-.124-7.309 0-2.477 0-4.83.124-7.308 0-1.858.621-2.725 1.862-2.725s1.862.867 1.862 2.725v3.22h7.323c-.124-1.114-.248-2.229-.373-3.592-.124-1.362-.372-2.353-.62-3.096-.62-1.858-1.738-3.097-3.351-3.716-1.614-.496-3.227-.868-4.965-.868s-3.475.248-4.965.868c-1.613.495-2.73 1.734-3.35 3.716-.373.867-.621 2.105-.87 3.592a25.944 25.944 0 0 0-.372 4.46v7.06c0 1.61.124 3.097.372 4.707.249 1.61.621 2.725.993 3.592.745 1.61 1.862 2.602 3.476 2.85 1.613.37 3.103.495 4.716.495 1.986.124 3.475 0 5.089-.372ZM105.995 27.406l1.738-13.873h.124l1.738 13.873h-3.6Zm4.344 5.575.87 6.44h7.446l-5.337-30.72h-10.922l-5.337 30.597h7.447l.869-6.441h4.964v.124ZM120.269 39.298h7.323V27.902h1.24c1.242 0 1.987.248 2.359.743.372.496.496 1.239.496 2.106v8.547h7.447v-7.06c0-1.859-.372-3.469-1.24-4.708-.87-1.238-2.11-1.982-3.724-2.353v-.124c1.613-.248 2.73-.867 3.475-1.858.62-.743.993-1.734 1.117-2.725.124-1.115.124-2.106.124-3.097 0-1.363-.124-2.601-.248-3.84a4.14 4.14 0 0 0-1.862-3.097c-.993-.743-2.234-1.239-3.723-1.362-1.366-.124-2.73-.248-3.972-.248h-9.185v30.472h.373Zm7.323-25.146h1.737c.993 0 1.614.248 1.986.62.372.371.496 1.114.496 1.982V19.107c0 .743-.124 1.363-.248 1.858-.124.496-.496.867-.869 1.115-.372.248-.868.372-1.737.372h-1.365v-8.3ZM140.748 14.648h4.964v24.65h7.323v-24.65H158V8.702h-17.376v5.946z" fill="#000"/><path fill="#F29221" d="M66.03 19.85 63.548 8.702h-7.572l4.593 14.617-4.965 16.103h7.695l2.483-12.016h.124l2.606 12.016h7.695l-4.964-15.979 4.592-14.617h-7.571zM6.446 0h35.203c3.471 0 6.446 2.845 6.446 6.433v35.134c0 3.464-2.85 6.433-6.446 6.433H6.446C2.975 48 0 45.155 0 41.567V6.433C.124 2.845 2.975 0 6.446 0Z"/><path d="m37.731 23.907-3.35 3.345 3.226 3.22c.248.248.497.743.497 1.115v5.822c0 .62-.124.743-.745.743h-2.73v-4.46c0-.618-.125-.866-.497-1.238l-2.979-2.973c-.372-.371-.869-.495-1.241-.495h-9.805c-.497 0-.993.124-1.241.495-.62.62-2.359 2.354-2.98 2.973-.371.372-.496.62-.496 1.239v3.592c0 .62-.124.867-.868.867H11.79v-6.565c0-.372.248-.867.497-1.115l3.35-3.344-3.226-3.22c-.249-.249-.497-.744-.497-1.116V11.025h3.6v9.661c0 .62.124.868.496 1.24l2.979 2.972c.372.372.869.496 1.241.496h9.805c.497 0 .993-.124 1.241-.496.62-.62 2.359-2.353 2.98-2.973.371-.371.496-.62.496-1.239v-9.661h3.599v11.767a2.394 2.394 0 0 1-.62 1.115Z" fill="#FFF"/><path fill="#FFF" d="M19.114 17.837h2.606v2.602h-2.606zM28.795 17.837h2.606v2.602h-2.606zM19.114 13.006h2.606v2.602h-2.606zM28.795 13.006h2.606v2.602h-2.606zM23.954 17.837h2.607v2.602h-2.607zM23.954 13.006h2.607v2.602h-2.607z"/><path d="M15.515 40.754c-1.118 0-2.11-.868-2.359-1.859h1.986c.497 0 .993-.495.993-.99v-1.982c1.117.247 1.862 1.238 1.862 2.353a2.487 2.487 0 0 1-2.482 2.478ZM38.352 40.754c-1.117 0-2.11-.744-2.358-1.859h1.986c.496 0 .993-.495.993-.99v-1.982c1.117.247 1.861 1.238 1.861 2.353a2.487 2.487 0 0 1-2.482 2.478Z" fill="#B14C26"/></g></svg>