<svg width="160" height="31" viewBox="0 0 160 31" xmlns="http://www.w3.org/2000/svg">
    <path d="M10.136 30.522H4.107V15.477H0v-4.899h4.107V7.093C4.107 2.963 5.923 0 11.936 0c1.272 0 3.268.257 3.268.257v4.548h-2.097c-2.136 0-2.97.65-2.97 2.45v3.323h4.987l-.444 4.899h-4.544v15.045zM23.97 10.187c-.088 0-.179.003-.268.005-5.59 0-8.148 4.21-8.148 10.186 0 7.527 3.318 10.54 8.192 10.54 2.788 0 4.62-1.175 5.734-3.368v2.974h5.734V10.58H29.48v3.068c-.91-1.974-2.793-3.438-5.51-3.461zm1.458 4.713c2.348 0 3.757 1.64 3.757 4.428l.005 2.848c0 1.88-1.164 4.079-3.762 4.079-3.996 0-3.889-4.319-3.889-5.757 0-4.838 2.129-5.598 3.889-5.598zm12.102 5.653c0-2.423-.116-10.353 10.205-10.353 4.143 0 5.873 1.319 5.873 1.319l-1.39 4.317s-1.728-.953-3.98-.953c-2.883 0-4.723 1.674-4.723 4.618l.004 2.11c0 2.83 1.775 4.718 4.725 4.718 2.051 0 3.942-.961 3.942-.961l1.386 4.227s-1.581 1.327-5.808 1.327c-9.827 0-10.234-7.115-10.234-10.369zm49.7-10.36c5.591 0 8.19 4.209 8.19 10.185 0 7.527-3.319 10.54-8.193 10.54-2.788 0-4.85-1.175-5.963-3.368v2.974l-5.663-.002V.606l6.012-.524v13.295c.868-2.326 3.72-3.185 5.618-3.185zM85.546 14.9c-2.348 0-3.932 1.64-3.932 4.428l-.005 2.848c-.004 1.88 1.097 4.079 3.937 4.079 3.995 0 3.889-4.319 3.889-5.757 0-4.838-2.129-5.598-3.889-5.598zM64.04 10.209c-6.34 0-9.688 3.46-9.688 9.61v1.143C54.35 28.945 59.05 31 64.656 31c5.448 0 7.913-1.525 7.913-1.525l-1.125-4.062s-2.9 1.235-6.067 1.235c-3.283 0-4.695-.837-5.057-3.996h12.73v-3.259c0-6.671-3.757-9.184-9.011-9.184zm.153 4.067c2.195 0 3.617 1.348 3.539 4.472h-7.4c.128-3.288 1.662-4.472 3.86-4.472zm43.215-4.095c-6.512 0-9.94 3.674-9.94 10.257 0 9.032 5.91 10.485 9.95 10.485 5.917 0 9.853-3.188 9.853-10.403 0-7.51-4.426-10.339-9.863-10.339zm-.082 4.735c2.863 0 3.998 2.145 3.998 4.587v2.1c0 2.957-1.588 4.668-4.01 4.668-2.263 0-3.855-1.6-3.855-4.669v-2.1c0-3.272 1.894-4.586 3.867-4.586zm21.921-4.735c-6.511 0-9.94 3.674-9.94 10.257 0 9.032 5.91 10.485 9.951 10.485 5.916 0 9.852-3.188 9.852-10.403 0-7.51-4.425-10.339-9.863-10.339zm-.082 4.735c2.864 0 3.998 2.145 3.998 4.587v2.1c0 2.957-1.587 4.668-4.008 4.668-2.265 0-3.856-1.6-3.856-4.669v-2.1c0-3.272 1.894-4.586 3.866-4.586zm12.217 15.606V.606l6.03-.524v20.051l5.981-9.554h6.368l-6.24 9.895L160 30.522h-6.385l-6.204-9.756v9.756h-6.03z" fill="#1877F2" fill-rule="nonzero"/>
</svg>
