<svg width="48" height="48" viewBox="0 0 48 48" xmlns="http://www.w3.org/2000/svg">
    <defs>
        <radialGradient cx="26.563%" cy="107.702%" fx="26.563%" fy="107.702%" r="99.107%" id="8g0rlq2sna">
            <stop stop-color="#FD5" offset="0%"/>
            <stop stop-color="#FD5" offset="10%"/>
            <stop stop-color="#FF543E" offset="50%"/>
            <stop stop-color="#C837AB" offset="100%"/>
        </radialGradient>
        <radialGradient cx="-16.751%" cy="7.204%" fx="-16.751%" fy="7.204%" r="44.301%" id="zbc6r4cgdb">
            <stop stop-color="#3771C8" offset="0%"/>
            <stop stop-color="#3771C8" offset="12.8%"/>
            <stop stop-color="#60F" stop-opacity="0" offset="100%"/>
        </radialGradient>
    </defs>
    <g fill-rule="nonzero" fill="none">
        <path d="M24.008 0c-10.02 0-12.95.01-13.52.058-2.056.17-3.336.494-4.73 1.189a9.58 9.58 0 0 0-2.757 2.019C1.478 4.846.555 6.792.22 9.105.058 10.227.01 10.456 0 16.19c-.003 1.911 0 4.427 0 7.8 0 10.015.012 12.943.06 13.512.166 2.001.48 3.26 1.144 4.638 1.27 2.636 3.695 4.616 6.553 5.354.99.255 2.082.395 3.485.462.594.026 6.652.044 12.714.044 6.061 0 12.123-.007 12.702-.037 1.625-.076 2.568-.203 3.61-.473a10.05 10.05 0 0 0 6.553-5.365c.652-1.344.982-2.651 1.132-4.548.032-.414.046-7.008.046-13.593 0-6.586-.015-13.168-.047-13.581-.152-1.928-.482-3.224-1.155-4.594a9.515 9.515 0 0 0-2.054-2.815C43.156 1.477 41.214.554 38.901.22 37.779.058 37.556.01 31.819 0h-7.811z" fill="url(#8g0rlq2sna)"/>
        <path d="M24.008 0c-10.02 0-12.95.01-13.52.058-2.056.17-3.336.494-4.73 1.189a9.58 9.58 0 0 0-2.757 2.019C1.478 4.846.555 6.792.22 9.105.058 10.227.01 10.456 0 16.19c-.003 1.911 0 4.427 0 7.8 0 10.015.012 12.943.06 13.512.166 2.001.48 3.26 1.144 4.638 1.27 2.636 3.695 4.616 6.553 5.354.99.255 2.082.395 3.485.462.594.026 6.652.044 12.714.044 6.061 0 12.123-.007 12.702-.037 1.625-.076 2.568-.203 3.61-.473a10.05 10.05 0 0 0 6.553-5.365c.652-1.344.982-2.651 1.132-4.548.032-.414.046-7.008.046-13.593 0-6.586-.015-13.168-.047-13.581-.152-1.928-.482-3.224-1.155-4.594a9.515 9.515 0 0 0-2.054-2.815C43.156 1.477 41.214.554 38.901.22 37.779.058 37.556.01 31.819 0h-7.811z" fill="url(#zbc6r4cgdb)"/>
        <path d="M23.997 6.277c-4.813 0-5.417.022-7.307.108-1.886.086-3.174.385-4.3.823a8.677 8.677 0 0 0-3.14 2.044 8.701 8.701 0 0 0-2.045 3.14c-.439 1.127-.738 2.415-.823 4.301-.084 1.89-.106 2.495-.106 7.309s.021 5.416.107 7.307c.086 1.887.385 3.175.823 4.302a8.685 8.685 0 0 0 2.044 3.14 8.676 8.676 0 0 0 3.137 2.045c1.128.438 2.416.737 4.302.824 1.89.086 2.494.107 7.306.107 4.812 0 5.414-.021 7.305-.107 1.886-.087 3.175-.386 4.302-.824a8.67 8.67 0 0 0 3.137-2.046 8.701 8.701 0 0 0 2.045-3.14c.436-1.126.735-2.415.824-4.301.085-1.89.107-2.493.107-7.307s-.022-5.418-.107-7.308c-.089-1.887-.388-3.175-.824-4.302a8.7 8.7 0 0 0-2.045-3.14 8.66 8.66 0 0 0-3.138-2.044c-1.13-.438-2.418-.737-4.304-.823-1.89-.086-2.492-.108-7.306-.108h.006zm-1.59 3.195h1.59c4.73 0 5.292.017 7.16.101 1.728.08 2.665.368 3.29.61a5.48 5.48 0 0 1 2.036 1.327 5.5 5.5 0 0 1 1.326 2.038c.243.624.532 1.562.61 3.29.085 1.868.104 2.43.104 7.16s-.019 5.291-.103 7.16c-.08 1.728-.368 2.666-.61 3.29a5.48 5.48 0 0 1-1.327 2.036 5.48 5.48 0 0 1-2.036 1.326c-.624.244-1.562.532-3.29.61-1.868.086-2.43.104-7.16.104-4.732 0-5.293-.018-7.16-.103-1.728-.08-2.666-.369-3.29-.612a5.488 5.488 0 0 1-2.039-1.325 5.494 5.494 0 0 1-1.326-2.037c-.242-.624-.531-1.562-.61-3.29-.085-1.869-.102-2.43-.102-7.163 0-4.734.017-5.292.102-7.16.08-1.729.368-2.667.61-3.291a5.492 5.492 0 0 1 1.326-2.039 5.5 5.5 0 0 1 2.038-1.326c.625-.244 1.563-.532 3.29-.611 1.635-.074 2.269-.096 5.571-.1v.005zm11.048 2.943a2.126 2.126 0 1 0 0 4.254 2.126 2.126 0 0 0 0-4.255zM23.997 14.9c-5.026 0-9.1 4.075-9.1 9.102a9.1 9.1 0 1 0 18.198 0c0-5.027-4.073-9.102-9.099-9.102zm0 3.194a5.907 5.907 0 0 1 5.906 5.908 5.908 5.908 0 1 1-5.906-5.908z" fill="#FFF"/>
    </g>
</svg>
