<svg width="146" height="40" viewBox="0 0 146 40" xmlns="http://www.w3.org/2000/svg">
    <g fill-rule="nonzero" fill="none">
        <path d="M12.857 0c-.513 0-1.026.02-1.363.06C9.972.24 8.596.632 7.307 1.257l9.174 9.214 6.065-6.096v-.002l-.02.02-.572-.562c-.64-.63-1.114-1.037-1.683-1.446C18.475 1.093 16.51.34 14.213.061 13.88.02 13.37 0 12.857 0z" fill="#DB45E0"/>
        <path d="m7.22 1.257-.3.151c-1.203.606-2.56 1.633-3.46 2.62-.834.914-1.358 1.648-1.934 2.71l-.273.512 9.061 9.085 5.97-5.988-9.063-9.09z" fill="#BF39FA"/>
        <path d="m1.19 7.33-.194.46a13.212 13.212 0 0 0-.933 3.495c-.075.583-.086 2.334-.018 2.886.314 2.545 1.195 4.664 2.751 6.605l1.084 1.203.42.43 5.93-5.97c.024-.026-9.04-9.11-9.04-9.11z" fill="#954AFE"/>
        <path d="M43.457 7.33c-.009 0-3.71 3.688-8.33 8.297L16.283 34.504c2.946 2.94 5.38 5.352 5.423 5.374.046.023.144.062.218.087.076.025.229.039.354.032.447-.023-.273.667 9.82-9.42 5.062-5.058 9.337-9.354 9.5-9.547a13.03 13.03 0 0 0 1.85-2.843 12.724 12.724 0 0 0 .204-10.448c-.095-.225-.183-.41-.195-.41z" fill="#FEBD09"/>
        <path d="M37.35 1.257 10.23 28.51l.01.01c9.029-9.104 27.145-27.24 27.145-27.24a.249.249 0 0 0-.034-.024zm.103.053-27.18 27.228c1.988 1.992 4.023 4.025 6.01 6.017L43.423 7.334l-.146-.316a12.716 12.716 0 0 0-5.389-5.48l-.434-.228z" fill="#FE7849"/>
        <path d="m7.369 25.49-2.985-2.993c5.99-6.002 17.104-17.267 19.665-19.639 1.287-1.028 2.6-1.746 4.08-2.232.87-.285 1.602-.445 2.575-.565.601-.073 2.096-.083 2.675-.016.981.112 1.918.317 2.776.607.448.151 1.304.497 1.422.573-9.682 9.851-15.218 15.22-27.223 27.257l-2.985-2.993z" fill="#FE1D73"/>
        <path d="M112.633 32.029c-2.17-.354-3.882-1.258-5.417-2.86-.802-.837-1.303-1.571-1.827-2.676-.87-1.832-1.21-3.476-1.209-5.853.001-3.725 1.12-6.64 3.383-8.815 1.318-1.267 2.744-2.012 4.633-2.422.595-.129.9-.152 2.005-.152 1.104 0 1.41.023 2.004.152 1.305.283 2.397.736 3.44 1.427.733.485 2.1 1.869 2.599 2.63.978 1.492 1.731 3.607 1.89 5.305l.038.416-.226.07-3.8 1.244c-1.966.645-5.211 1.704-7.213 2.353-2.001.65-3.648 1.191-3.66 1.204-.036.035.3.831.48 1.14.683 1.17 1.606 1.892 2.891 2.263.44.127.683.15 1.557.15.873 0 1.117-.023 1.556-.15 1.744-.503 2.938-1.772 3.468-3.684.098-.354.186-.552.246-.553.122 0 4.376.742 4.403.769.035.034-.18.807-.396 1.425-.295.843-.994 2.174-1.49 2.833-1.452 1.934-3.397 3.185-5.75 3.698-.813.178-2.759.224-3.605.086zm6.243-15.414c0-.037-.11-.255-.244-.483-.911-1.545-2.226-2.312-4.13-2.409-1.602-.08-2.911.364-3.883 1.319-1.04 1.02-1.572 2.363-1.792 4.515-.031.302-.02.386.045.363 3.462-1.298 6.407-1.77 10.004-3.305zm16 15.474c-2.448-.371-4.137-1.185-5.68-2.736-2.022-2.035-3.095-4.75-3.217-8.146-.218-6.086 2.915-10.7 8.016-11.807.988-.214 3.045-.214 4.033 0 3.495.758 6.077 3.12 7.3 6.68.258.751.54 1.978.632 2.753l.04.34-1.654.54c-6.62 2.16-9.53 3.11-11.263 3.673l-1.993.648.043.178c.068.283.408.984.646 1.333.948 1.386 2.379 2.094 4.233 2.094 1.964 0 3.47-.806 4.383-2.348.271-.46.727-1.635.727-1.877 0-.073.042-.15.093-.17.051-.019 1.058.133 2.237.338 1.18.205 2.173.373 2.208.373.035 0 .007.204-.062.452-.852 3.08-2.6 5.375-5.052 6.634-1.446.743-2.583 1.022-4.3 1.056-.643.012-1.26.009-1.37-.008zm5.794-15.432c.077-.07-.497-1-.88-1.427-1.828-2.04-5.697-2.045-7.551-.01-.737.81-1.295 2.116-1.5 3.516-.133.904-.137 1.225-.014 1.177 3.421-1.216 6.163-1.873 9.945-3.256zM61.96 31.789c-.898-.103-1.985-.507-2.738-1.02-.442-.3-1.242-1.093-1.57-1.553-.622-.877-.988-1.882-1.103-3.028-.103-8.079-.05-13.244-.033-22.237h4.944l.067 20.64.214.456c.44.929 1.367 1.633 2.358 1.788 3.43.101 5.87.068 9.552.069v4.959s-7.816.255-11.69-.074zm14.831-18.556h4.943v18.63h-4.943v-18.63zm9.887-9.316h4.943l.034 13.924 6.332-8.294h6.466l-.419.553c-2.722 3.57-4.807 6.3-7.673 10.052l.183.243c3.034 4.062 5.549 7.129 8.705 11.437-2.257.047-3.978.03-6.41.03l-.258-.327c-2.46-3.208-4.328-5.66-6.926-9.065l-.018 4.696-.017 4.697h-4.942V3.917zm-8.133 5.195c-.533-.15-.874-.35-1.257-.734-.403-.403-.59-.74-.74-1.328-.317-1.237.363-2.625 1.56-3.185.345-.16.465-.18 1.121-.181.688-.001.764.012 1.181.21.622.296 1.008.676 1.309 1.286.242.493.25.528.25 1.247 0 .665-.02.78-.182 1.128-.566 1.212-2.01 1.906-3.242 1.557z" fill="#000"/>
    </g>
</svg>
