<svg width="165" height="48" viewBox="0 0 165 48" xmlns="http://www.w3.org/2000/svg">
    <g fill-rule="nonzero" fill="none">
        <path d="M31.532 17.327a18.903 18.903 0 0 0 11.014 3.517v-7.887c-.777 0-1.552-.08-2.313-.241v6.208c-4.107 0-7.91-1.303-11.014-3.517v16.095c0 8.051-6.541 14.578-14.61 14.578a14.56 14.56 0 0 1-8.132-2.466A14.58 14.58 0 0 0 16.922 48c8.069 0 14.61-6.527 14.61-14.578V17.327zm2.853-7.957a10.982 10.982 0 0 1-2.853-6.436V1.92H29.34a11.041 11.041 0 0 0 5.045 7.45zM11.58 37.436a6.632 6.632 0 0 1-1.363-4.037c0-3.683 2.991-6.669 6.682-6.669a6.71 6.71 0 0 1 2.028.313V18.98c-.766-.105-1.54-.15-2.312-.133v6.276a6.703 6.703 0 0 0-2.029-.313c-3.69 0-6.682 2.986-6.682 6.669a6.666 6.666 0 0 0 3.676 5.957z" fill="#FF004F"/>
        <path d="M29.219 15.407a18.907 18.907 0 0 0 11.014 3.517v-6.208a11.061 11.061 0 0 1-5.848-3.346 11.042 11.042 0 0 1-5.045-7.45h-5.758v31.501c-.013 3.673-3 6.646-6.683 6.646a6.678 6.678 0 0 1-5.32-2.631 6.667 6.667 0 0 1-3.676-5.957c0-3.683 2.992-6.669 6.683-6.669.707 0 1.389.11 2.028.313v-6.276C8.688 19.01 2.313 25.473 2.313 33.42c0 3.968 1.587 7.565 4.164 10.193a14.562 14.562 0 0 0 8.133 2.466c8.068 0 14.609-6.527 14.609-14.578V15.407z" fill="#000"/>
        <path d="M40.233 12.716v-1.679a11.03 11.03 0 0 1-5.848-1.667 11.051 11.051 0 0 0 5.848 3.346zM29.34 1.92c-.053-.3-.093-.602-.121-.906V0h-7.95v31.502c-.013 3.672-3 6.645-6.683 6.645a6.667 6.667 0 0 1-3.007-.711 6.678 6.678 0 0 0 5.32 2.631c3.683 0 6.67-2.973 6.683-6.646V1.92h5.758zM16.615 18.847V17.06a14.78 14.78 0 0 0-2.005-.136C6.54 16.924 0 23.451 0 31.502c0 5.047 2.57 9.495 6.477 12.112a14.512 14.512 0 0 1-4.164-10.193c0-7.948 6.375-14.41 14.302-14.574z" fill="#00F2EA"/>
        <path d="M132.35 39.48c5.774 0 10.454-4.635 10.454-10.352 0-5.717-4.68-10.353-10.453-10.353h-1.575c5.773 0 10.453 4.636 10.453 10.353s-4.68 10.352-10.453 10.352h1.575z" fill="#FF004F"/>
        <path d="M130.633 18.775h-1.575c-5.773 0-10.454 4.636-10.454 10.353s4.681 10.352 10.454 10.352h1.575c-5.774 0-10.454-4.635-10.454-10.352 0-5.717 4.68-10.353 10.454-10.353z" fill="#00F2EA"/>
        <path d="M51.16 14.097v5.247h6.157v19.994h6.158V19.485h5.012l1.718-5.388H51.16zm50.405 0v5.247h6.156v19.994h6.159V19.485h5.011l1.718-5.388h-19.044zm-30.213 2.977c0-1.644 1.344-2.977 3.004-2.977 1.662 0 3.008 1.333 3.008 2.977 0 1.645-1.345 2.978-3.008 2.978-1.66 0-3.004-1.333-3.004-2.978zm0 5.106h6.012v17.158h-6.012V22.18zm8.59-8.083v25.241h6.014v-6.522l1.862-1.704 5.87 8.368h6.444l-8.45-12.196 7.59-7.374h-7.303l-6.013 5.955V14.097h-6.014zm64.866 0v25.241h6.015v-6.522l1.861-1.704 5.872 8.368H165l-8.45-12.196 7.59-7.374h-7.302l-6.015 5.955V14.097h-6.015zM130.775 39.48c5.773 0 10.454-4.635 10.454-10.352 0-5.717-4.68-10.353-10.454-10.353h-.142c-5.774 0-10.454 4.636-10.454 10.353s4.68 10.352 10.454 10.352h.142zm-5.155-10.352c0-2.78 2.277-5.033 5.085-5.033 2.806 0 5.083 2.252 5.083 5.033 0 2.78-2.277 5.035-5.083 5.035-2.808 0-5.085-2.254-5.085-5.035z" fill="#000"/>
    </g>
</svg>
