<svg width="59" height="48" viewBox="0 0 59 48" xmlns="http://www.w3.org/2000/svg">
    <path d="M52.96 11.95c.036.52.036 1.041.036 1.567C52.996 29.53 40.819 48 18.555 48v-.01A34.237 34.237 0 0 1 0 42.557a24.287 24.287 0 0 0 17.915-5.023 12.122 12.122 0 0 1-11.31-8.416c1.815.35 3.685.278 5.466-.209A12.117 12.117 0 0 1 2.36 17.03v-.154a12.017 12.017 0 0 0 5.494 1.517C2.535 14.834.896 7.75 4.108 2.211a34.342 34.342 0 0 0 24.947 12.661c-.975-4.209.358-8.62 3.502-11.579C37.433-1.295 45.1-1.06 49.683 3.82A24.271 24.271 0 0 0 57.37.877a12.162 12.162 0 0 1-5.321 6.702A24.05 24.05 0 0 0 59 5.671a24.608 24.608 0 0 1-6.04 6.278z" fill="#1D9BF0" fill-rule="nonzero"/>
</svg>
