<svg width="117" height="72" viewBox="0 0 117 72" xmlns="http://www.w3.org/2000/svg">
    <path d="m80.897 32.667 3.344-3.334h5.348l10.698-10.665V0H72.874l-1.337 5.334v24h6.018v3.333h3.342zm.67-6.667v-4H75.55V2.667h22.064v14.666L92.932 22H85.58l-4.012 4zm4.011-10V8h-2.674v8h2.674zm7.354 0V8h-2.674v8h2.674zm21.396 30.667-4.68-4.666h-8.692v-6H93.6v27.333h7.356v-14h6.016v14h7.356V46.667zm-23.4-4.666H79.56l-4.68 4.666v12l4.68 4.667h11.366v-7.333h-8.693v-6.668h8.693v-7.332zm-18.722 0H66.19v-6h-7.356v22.665l4.68 4.668h8.692v-7.333H66.19v-6.668h6.016v-7.332zm-16.046-6h-7.354v3.334h7.354v-3.334zm0 6h-7.354v21.333h7.354V42zm-10.028 0h-7.354v14h-2.674v-14h-7.355v14h-2.673v-14H18.72v21.333h22.733l4.679-4.668V42.001zm-30.086 0h-6.017v-6H2.675v22.665l4.68 4.668h8.69v-7.333H10.03v-6.668h6.017v-7.332zM117 45.334v19.999L106.972 72h-6.685v-3.334L95.607 72H89.59v-3.334L86.248 72H75.55l-3.344-3.334L71.537 72h-9.359l-3.827-3.334L58.137 72H47.529l-.375-3.334L44.282 72H28.08l-3.344-1.333V72h-8.69l-10.03-6.001L0 60.002V33.335h12.704l6.016 6h27.412v-6h22.731v6h6.018v3.333l3.344-3.333h6.684l6.018-6h12.703v6h7.355L117 45.334z" fill="#6441A5" fill-rule="evenodd"/>
</svg>
