<svg width="150" height="41" viewBox="0 0 150 41" xmlns="http://www.w3.org/2000/svg">
    <g fill="none" fill-rule="evenodd">
        <path d="M20 0C8.954 0 0 8.954 0 20s8.954 20 20 20 20-8.954 20-20S31.046 0 20 0zm6.636 28.839c-.314.313-.644.64-.912.91-.24.241-.411.54-.497.863-.122.457-.22.918-.385 1.36l-1.402 3.779c-1.11.242-2.259.378-3.44.378v-2.208c.136-1.018-.616-2.924-1.825-4.133a2.58 2.58 0 0 1-.756-1.825V25.38c0-.938-.505-1.801-1.327-2.255a133.05 133.05 0 0 0-3.936-2.106 11.625 11.625 0 0 1-2.553-1.754l-.064-.058a9.257 9.257 0 0 1-1.457-1.673c-.756-1.11-1.988-2.937-2.79-4.124a16.217 16.217 0 0 1 8.323-8.217l1.937.969a1.29 1.29 0 0 0 1.867-1.154v-.911c.645-.104 1.3-.17 1.967-.196l2.283 2.283a1.29 1.29 0 0 1 0 1.825l-.379.377-.834.834a.645.645 0 0 0 0 .912l.379.378a.645.645 0 0 1 0 .912l-.645.646a.646.646 0 0 1-.457.188h-.725a.645.645 0 0 0-.45.183l-.8.779a.646.646 0 0 0-.127.75l1.257 2.516a.645.645 0 0 1-.577.934h-.455a.644.644 0 0 1-.422-.159l-.749-.65a1.292 1.292 0 0 0-1.254-.25l-2.513.838a.964.964 0 0 0-.126 1.777l.893.447c.76.38 1.596.577 2.445.577.848 0 1.822 2.201 2.58 2.58h5.384c.684 0 1.34.273 1.825.756l1.104 1.105a2.46 2.46 0 0 1 .72 1.739c0 .998-.399 1.956-1.107 2.66zm6.993-7.367a1.936 1.936 0 0 1-1.141-.804l-1.45-2.175a1.933 1.933 0 0 1 0-2.147l1.58-2.37c.187-.28.443-.507.745-.657l1.047-.523A16.002 16.002 0 0 1 36.129 20c0 .7-.06 1.384-.147 2.06l-2.353-.588z" fill="#4574EB"/>
        <g fill="#4574EB" fill-rule="nonzero">
            <path d="m72.522 17 4.202-14.674h-4.268l-2.2 9.79-2.508-9.79h-2.904l-2.508 9.79-2.222-9.79h-4.246L60.07 17h4.004l2.222-9.196L68.518 17zM88.67 17v-3.3h-6.974v-2.486h6.82v-3.3h-6.82V5.626h6.974v-3.3H77.912V17zM99.45 17c2.882 0 4.312-1.848 4.312-3.982 0-1.848-1.232-3.344-2.794-3.586 1.386-.308 2.508-1.54 2.508-3.366 0-1.848-1.386-3.74-4.29-3.74H90.87V17h8.58zm-1.122-9.042h-3.674V5.516h3.674c.77 0 1.298.506 1.298 1.21 0 .726-.528 1.232-1.298 1.232zm.132 5.852h-3.806v-2.64h3.806c.924 0 1.452.594 1.452 1.32 0 .792-.55 1.32-1.452 1.32zM111.286 17.264c3.938 0 6.116-1.958 6.116-4.906 0-5.456-8.294-4.092-8.294-5.962 0-.616.484-1.056 1.584-1.056 1.452 0 3.058.506 4.29 1.518l2.068-2.706c-1.562-1.342-3.608-2.046-5.962-2.046-3.762 0-5.852 2.2-5.852 4.664 0 5.654 8.316 4.048 8.316 6.05 0 .704-.792 1.21-2.09 1.21a6.63 6.63 0 0 1-4.686-1.936l-2.002 2.838c1.474 1.408 3.542 2.332 6.512 2.332zM122.946 17V2.326h-3.784V17zM132.648 17V5.626h4.092v-3.3h-11.99v3.3h4.114V17zM149.302 17v-3.3h-6.974v-2.486h6.82v-3.3h-6.82V5.626h6.974v-3.3h-10.758V17z"/>
        </g>
        <g fill="#2B2D31" fill-rule="nonzero">
            <path d="M61.264 40c3.344 0 5.664-2.112 5.664-5.328s-2.32-5.344-5.664-5.344h-4.208V40h4.208zm0-2h-1.936v-6.672h1.936c2.192 0 3.344 1.456 3.344 3.344 0 1.808-1.232 3.328-3.344 3.328zM72.08 40.192c2.56 0 4.096-1.856 4.096-4.064 0-2.192-1.536-4.048-4.096-4.048-2.544 0-4.08 1.856-4.08 4.048 0 2.208 1.536 4.064 4.08 4.064zm0-1.808c-1.264 0-1.968-1.04-1.968-2.256 0-1.2.704-2.24 1.968-2.24s1.984 1.04 1.984 2.24c0 1.216-.72 2.256-1.984 2.256zM84.928 40v-5.456c0-1.504-.816-2.464-2.512-2.464-1.264 0-2.208.608-2.704 1.2v-1.008H77.68V40h2.032v-5.2c.336-.464.96-.912 1.76-.912.864 0 1.424.368 1.424 1.44V40h2.032zM93.616 40v-4.992c0-2.224-1.616-2.928-3.376-2.928-1.216 0-2.432.384-3.376 1.216l.768 1.36c.656-.608 1.424-.912 2.256-.912 1.024 0 1.696.512 1.696 1.296v1.04c-.512-.608-1.424-.944-2.448-.944-1.232 0-2.688.688-2.688 2.496 0 1.728 1.456 2.56 2.688 2.56 1.008 0 1.92-.368 2.448-.992v.8h2.032zm-3.664-1.184c-.8 0-1.456-.416-1.456-1.136 0-.752.656-1.168 1.456-1.168.656 0 1.296.224 1.632.672v.96c-.336.448-.976.672-1.632.672zM98.224 40.192c.848 0 1.392-.224 1.696-.496l-.432-1.536c-.112.112-.4.224-.704.224-.448 0-.704-.368-.704-.848v-3.488h1.568v-1.776H98.08V30.16h-2.048v2.112h-1.28v1.776h1.28v4.032c0 1.376.768 2.112 2.192 2.112zM102.048 31.44c.672 0 1.216-.544 1.216-1.216 0-.672-.544-1.2-1.216-1.2-.656 0-1.216.528-1.216 1.2 0 .672.56 1.216 1.216 1.216zm1.024 8.56v-7.728h-2.032V40h2.032zM108.672 40.192c2.56 0 4.096-1.856 4.096-4.064 0-2.192-1.536-4.048-4.096-4.048-2.544 0-4.08 1.856-4.08 4.048 0 2.208 1.536 4.064 4.08 4.064zm0-1.808c-1.264 0-1.968-1.04-1.968-2.256 0-1.2.704-2.24 1.968-2.24s1.984 1.04 1.984 2.24c0 1.216-.72 2.256-1.984 2.256zM121.52 40v-5.456c0-1.504-.816-2.464-2.512-2.464-1.264 0-2.208.608-2.704 1.2v-1.008h-2.032V40h2.032v-5.2c.336-.464.96-.912 1.76-.912.864 0 1.424.368 1.424 1.44V40h2.032zM126.32 40.192c2.144 0 3.344-1.072 3.344-2.48 0-3.12-4.576-2.16-4.576-3.312 0-.432.48-.768 1.216-.768.944 0 1.824.4 2.288.896l.816-1.392c-.768-.608-1.808-1.056-3.12-1.056-2.032 0-3.168 1.136-3.168 2.432 0 3.04 4.592 2 4.592 3.28 0 .48-.416.832-1.296.832-.96 0-2.112-.528-2.672-1.056l-.88 1.424c.816.752 2.112 1.2 3.456 1.2z"/>
        </g>
    </g>
</svg>
