<svg width="160" height="36" viewBox="0 0 160 36" xmlns="http://www.w3.org/2000/svg">
    <g fill-rule="nonzero" fill="none">
        <path d="M49.958 5.622a6.415 6.415 0 0 0-4.511-4.547C41.469 0 25.512 0 25.512 0S9.556 0 5.578 1.075a6.415 6.415 0 0 0-4.511 4.547C0 9.63 0 18 0 18s0 8.37 1.067 12.378a6.415 6.415 0 0 0 4.51 4.547C9.557 36 25.513 36 25.513 36s15.957 0 19.935-1.075a6.415 6.415 0 0 0 4.51-4.547C51.026 26.37 51.026 18 51.026 18s-.005-8.37-1.067-12.378z" fill="red"/>
        <path fill="#FFF" d="M20.405 25.714 33.661 18l-13.256-7.713z"/>
        <path d="M78.351 10.426c1.655 0 2.978.343 3.978 1.03.995.685 1.726 1.76 2.188 3.216.462 1.461.693 3.404.693 5.83v3.272c0 2.405-.226 4.335-.676 5.791-.45 1.46-1.18 2.528-2.188 3.2-1.008.674-2.378 1.012-4.104 1.012-1.78.005-3.171-.343-4.18-1.028-1.007-.686-1.726-1.753-2.154-3.2-.424-1.448-.638-3.37-.638-5.775v-3.272c0-2.426.243-4.378.73-5.846.488-1.47 1.248-2.545 2.281-3.218 1.034-.673 2.39-1.012 4.07-1.012zM61.067 2.553l2.008 9.453c.512 2.328.886 4.314 1.13 5.956h.147c.168-1.176.546-3.15 1.13-5.922l2.079-9.487h4.998l-5.8 20.853V33.41h-4.965V23.406L56.069 2.553h4.998zm17.17 11.37c-.68 0-1.163.373-1.44 1.122-.281.75-.42 1.93-.42 3.548v7.023c0 1.668.135 2.87.403 3.602.27.737.752 1.105 1.458 1.105s1.197-.368 1.478-1.105c.278-.736.42-1.934.42-3.602v-7.023c0-1.618-.138-2.803-.42-3.548-.281-.75-.772-1.122-1.478-1.122zm23.232-3.06v22.551h-3.94l-.436-2.76h-.11c-1.07 2.083-2.675 3.124-4.817 3.124-1.483 0-2.579-.491-3.285-1.469-.705-.982-1.058-2.514-1.058-4.597V10.868h5.036v16.547c0 1.008.11 1.723.328 2.151.218.428.583.643 1.096.643.437 0 .857-.135 1.26-.406.403-.27.697-.614.895-1.029v-17.91h5.031zm25.828 0v22.551h-3.94l-.437-2.76h-.109c-1.071 2.083-2.676 3.124-4.818 3.124-1.482 0-2.579-.491-3.284-1.469-.706-.982-1.059-2.514-1.059-4.597V10.868h5.036v16.547c0 1.008.11 1.723.328 2.151.218.428.584.643 1.096.643.437 0 .857-.135 1.26-.406.404-.27.698-.614.895-1.029v-17.91h5.032zM115.15 2.557v4.08h-4.998v26.776h-4.927V6.638h-4.999V2.557h14.924zm28.814 11.913c-.307-1.423-.799-2.451-1.479-3.09-.68-.64-1.617-.957-2.81-.957a4.62 4.62 0 0 0-2.591.791 5.36 5.36 0 0 0-1.861 2.079h-.038V1.414h-4.851V33.41h4.158l.512-2.133h.11c.39.762.974 1.359 1.751 1.803.777.44 1.643.66 2.592.66 1.7 0 2.957-.79 3.759-2.37.802-1.583 1.205-4.051 1.205-7.412v-3.57c0-2.518-.155-4.495-.457-5.917zm-4.617 9.199c0 1.642-.067 2.93-.201 3.86-.134.932-.357 1.596-.676 1.986-.315.393-.744.588-1.277.588-.416 0-.798-.097-1.151-.296a2.21 2.21 0 0 1-.857-.88V16.128c.168-.614.462-1.113.878-1.507.412-.394.865-.588 1.348-.588.513 0 .907.203 1.185.605.281.406.474 1.084.584 2.04.109.957.163 2.316.163 4.081v2.909h.004zm12.219 1.3c0 1.447.042 2.53.126 3.255.084.723.26 1.248.53 1.583.268.33.68.495 1.238.495.752 0 1.273-.296 1.55-.885.282-.588.433-1.57.458-2.942l4.343.258c.025.195.038.466.038.809 0 2.083-.567 3.64-1.697 4.67-1.13 1.028-2.73 1.544-4.797 1.544-2.482 0-4.221-.783-5.217-2.353-1-1.57-1.495-3.996-1.495-7.282v-3.937c0-3.382.517-5.854 1.55-7.412 1.033-1.558 2.802-2.337 5.31-2.337 1.725 0 3.053.318 3.977.957.924.64 1.575 1.63 1.953 2.98.378 1.35.567 3.213.567 5.592v3.861h-8.434v1.143zm.638-10.626c-.256.317-.424.838-.512 1.562-.084.724-.126 1.82-.126 3.293v1.617h3.684v-1.617c0-1.448-.05-2.544-.147-3.293-.097-.75-.274-1.275-.53-1.584-.256-.304-.65-.461-1.184-.461-.538.004-.933.165-1.185.483z" fill="#282828"/>
    </g>
</svg>
