<svg width="80" height="70" viewBox="0 0 80 70" xmlns="http://www.w3.org/2000/svg">
    <g fill-rule="nonzero" fill="none">
        <g transform="translate(0 52.21)" fill="#000">
            <path d="M5.58 5.68C2.828 5.68 0 7.888 0 11.755c0 3.536 2.487 6.034 5.58 6.034 2.552 0 3.69-1.718 3.69-1.718v.749c0 .354.333.749.747.749h1.845V5.943H9.27V7.42s-1.148-1.74-3.69-1.74zm.461 2.376c2.265 0 3.452 1.997 3.452 3.7 0 1.896-1.41 3.698-3.447 3.698-1.703 0-3.409-1.383-3.409-3.723 0-2.113 1.468-3.675 3.404-3.675zM15.464 17.57a.726.726 0 0 1-.747-.75V5.944h2.592v1.439c.588-.885 1.735-1.707 3.496-1.707 2.88 0 4.412 2.3 4.412 4.452v7.442h-1.801a.795.795 0 0 1-.79-.792v-6.078c0-1.192-.73-2.64-2.415-2.64-1.819 0-2.902 1.723-2.902 3.345v6.165h-1.845zM32.773 5.68c-2.75 0-5.58 2.209-5.58 6.076 0 3.536 2.488 6.034 5.58 6.034 2.553 0 3.69-1.718 3.69-1.718v.749c0 .354.334.749.747.749h1.845V.13h-2.592V7.42s-1.147-1.74-3.69-1.74zm.462 2.376c2.264 0 3.452 1.997 3.452 3.7 0 1.896-1.41 3.698-3.447 3.698-1.703 0-3.41-1.383-3.41-3.723 0-2.113 1.469-3.675 3.405-3.675zM42.658 17.57a.726.726 0 0 1-.747-.75V5.944h2.592v1.938c.446-1.086 1.409-2.07 3.12-2.07.476 0 .922.088.922.088v2.687s-.557-.22-1.23-.22c-1.819 0-2.812 1.722-2.812 3.344v5.86h-1.845zM64.272 17.57a.726.726 0 0 1-.746-.75V5.944h2.592V17.57h-1.846zM73.718 5.68c-2.751 0-5.58 2.209-5.58 6.076 0 3.536 2.487 6.034 5.58 6.034 2.552 0 3.69-1.718 3.69-1.718v.749c0 .354.334.749.747.749H80V.13h-2.592V7.42s-1.147-1.74-3.69-1.74zm.461 2.376c2.265 0 3.453 1.997 3.453 3.7 0 1.896-1.41 3.698-3.448 3.698-1.703 0-3.409-1.383-3.409-3.723 0-2.113 1.468-3.675 3.404-3.675z"/>
            <ellipse cx="64.803" cy="1.718" rx="1.714" ry="1.718"/>
            <path d="M55.38 5.675c-2.88 0-6.045 2.156-6.045 6.06 0 3.56 2.696 6.055 6.04 6.055 4.12 0 6.132-3.32 6.132-6.032 0-3.327-2.59-6.083-6.126-6.083zm.01 2.427c1.992 0 3.478 1.61 3.478 3.641 0 2.067-1.577 3.662-3.472 3.662-1.759 0-3.469-1.435-3.469-3.627 0-2.23 1.627-3.676 3.463-3.676z"/>
        </g>
        <path d="m59.524 13.54 6.631-11.516a1.352 1.352 0 0 0-.487-1.84 1.328 1.328 0 0 0-1.828.488l-6.719 11.665C51.995 9.99 46.225 8.68 40.02 8.68c-6.205 0-11.976 1.309-17.102 3.656L16.2.672a1.345 1.345 0 1 0-2.324 1.352l6.632 11.516C9.071 19.752 1.326 31.356.047 44.94h79.946c-1.279-13.585-9.025-25.188-20.47-31.4zm-37.86 20.145a3.356 3.356 0 0 1-3.35-3.359 3.356 3.356 0 0 1 3.35-3.359c1.855 0 3.352 1.51 3.352 3.36a3.35 3.35 0 0 1-3.351 3.358zm36.702 0a3.356 3.356 0 0 1-3.35-3.359 3.356 3.356 0 0 1 3.35-3.359c1.854 0 3.35 1.51 3.35 3.36a3.35 3.35 0 0 1-3.35 3.358z" fill="#32DE84"/>
    </g>
</svg>
