<svg width="78" height="80" viewBox="0 0 78 80" xmlns="http://www.w3.org/2000/svg">
    <path d="M77.956 18.097c.029.107.044.216.044.327v17.172c0 .45-.242.864-.631 1.086L62.903 44.98v16.447a1.252 1.252 0 0 1-.63 1.085l-30.194 17.32c-.069.041-.146.065-.22.092-.029.01-.056.026-.084.034a1.268 1.268 0 0 1-.645 0c-.035-.01-.066-.028-.099-.04a1.123 1.123 0 0 1-.207-.086L.63 62.515A1.252 1.252 0 0 1 0 61.427V9.912c0-.11.015-.22.044-.327.01-.038.031-.07.044-.105.025-.066.047-.134.081-.195.024-.041.058-.074.085-.11.037-.05.069-.104.113-.148.036-.036.083-.063.123-.094.046-.035.086-.076.138-.106l.002-.001L15.728.166a1.265 1.265 0 0 1 1.253 0l15.098 8.66h.003c.05.031.091.072.138.107.04.031.086.058.122.094.044.044.075.097.113.146.028.038.063.07.086.112.035.061.057.129.082.195.012.034.033.067.044.105.028.107.042.217.042.327v32.176L45.29 34.87V18.424c0-.11.014-.22.042-.327.011-.038.032-.07.046-.105.023-.066.045-.134.08-.195.023-.041.058-.074.086-.11.038-.05.069-.104.113-.147.036-.036.081-.062.122-.094.047-.036.088-.078.14-.107v-.001l15.097-8.66a1.262 1.262 0 0 1 1.255 0l15.097 8.66h.001c.054.031.094.072.141.107.04.031.086.06.122.094.044.044.076.097.112.146.028.038.062.07.086.112.036.061.056.129.081.195.014.036.035.067.044.105zm-2.472 16.774V20.59L70.2 23.623l-7.297 4.186v14.28l12.58-7.217h.001zM60.388 60.702V46.413l-7.181 4.084-20.498 11.656v14.422L60.388 60.7v.003zM2.516 12.08v48.622L30.193 76.58V62.158l-14.459-8.152-.003-.005-.006-.001c-.05-.029-.09-.07-.135-.104-.04-.032-.085-.057-.12-.091l-.004-.005c-.04-.04-.069-.088-.103-.132-.032-.041-.07-.077-.094-.121l-.002-.005c-.028-.047-.045-.104-.066-.157-.02-.046-.047-.09-.059-.14v-.002c-.017-.06-.019-.122-.027-.183-.004-.048-.018-.093-.018-.142V19.295L7.8 15.11l-5.285-3.03zm13.838-9.382L3.78 9.914l12.574 7.212L28.93 9.912 16.354 2.698zm6.542 45.017 7.297-4.184V12.08l-5.282 3.03-7.299 4.186v31.45l5.284-3.031zm38.75-36.503L49.07 18.424l12.576 7.213 12.574-7.213-12.574-7.212zm-1.258 16.596-7.299-4.186-5.282-3.03V34.87l7.297 4.186 5.284 3.03v-14.28.001zM31.449 59.985l18.446-10.49 9.22-5.244-12.566-7.21-14.47 8.3-13.187 7.565 12.557 7.08z" fill="#FF2D20" fill-rule="evenodd"/>
</svg>
