<svg width="170" height="48" viewBox="0 0 170 48" xmlns="http://www.w3.org/2000/svg">
    <g fill="none" fill-rule="evenodd">
        <path d="M90.121 0a.726.726 0 0 0-.359.096.725.725 0 0 0-.359.622v18.304c0 .18-.084.34-.24.431a.5.5 0 0 1-.502 0L85.67 17.73a1.434 1.434 0 0 0-1.436 0l-11.94 6.891a1.47 1.47 0 0 0-.719 1.268v13.783c0 .514.272.986.718 1.244l11.941 6.89c.447.258.99.258 1.436 0l11.941-6.89c.446-.258.718-.73.718-1.244V5.312c0-.523-.285-1.013-.742-1.268L90.48.072A.703.703 0 0 0 90.121 0zM13.305 17.204a1.35 1.35 0 0 0-.646.167L.718 24.262A1.43 1.43 0 0 0 0 25.507l.024 18.495c0 .258.133.497.359.623a.697.697 0 0 0 .718 0l7.083-4.068c.449-.267.742-.73.742-1.244v-8.638c0-.515.271-.988.718-1.244l3.015-1.747c.225-.13.467-.191.718-.191.246 0 .499.06.718.191l3.015 1.747c.447.256.718.729.718 1.244v8.638c0 .514.296.98.742 1.244l7.083 4.068a.697.697 0 0 0 .718 0 .72.72 0 0 0 .359-.623l.024-18.495c0-.519-.27-.987-.718-1.245l-11.941-6.89a1.34 1.34 0 0 0-.646-.168h-.144zm107.303.167c-.25 0-.494.063-.718.192l-11.941 6.89a1.432 1.432 0 0 0-.718 1.245V39.48c0 .518.292.988.742 1.244l11.845 6.748c.438.25.972.268 1.412.024l7.18-3.996a.725.725 0 0 0 .382-.622.707.707 0 0 0-.359-.623l-12.013-6.89a.773.773 0 0 1-.383-.647v-4.307c0-.257.16-.493.383-.622l3.733-2.153a.717.717 0 0 1 .718 0l3.733 2.153a.716.716 0 0 1 .36.622v3.398c0 .258.135.494.358.622.224.13.495.13.718 0l7.155-4.163c.445-.258.718-.73.718-1.244v-3.326c0-.514-.273-.986-.718-1.244l-11.869-6.891a1.423 1.423 0 0 0-.718-.192zm-35.704 10.29c.063 0 .136.014.192.047l4.092 2.368a.371.371 0 0 1 .191.311v4.738c0 .129-.08.247-.191.311l-4.092 2.369a.362.362 0 0 1-.36 0l-4.091-2.369a.37.37 0 0 1-.192-.311v-4.738c0-.128.08-.246.192-.31l4.092-2.37a.315.315 0 0 1 .167-.047z" fill="#404137"/>
        <path d="M156.384 17.036c-.414 0-.817.086-1.173.287l-11.271 6.509a2.374 2.374 0 0 0-1.173 2.057v12.993c0 .844.444 1.636 1.173 2.058l2.943 1.699c1.43.704 1.958.693 2.609.693 2.117 0 3.326-1.284 3.326-3.517V26.99c0-.181-.157-.311-.335-.311h-1.412c-.18 0-.335.13-.335.311v12.825c0 .99-1.03 1.985-2.704 1.149l-3.063-1.795c-.108-.059-.191-.163-.191-.287V25.889a.38.38 0 0 1 .191-.31l11.247-6.485c.106-.06.23-.06.335 0l11.247 6.484a.381.381 0 0 1 .192.311v12.993a.36.36 0 0 1-.168.311l-11.27 6.484a.347.347 0 0 1-.336 0l-2.895-1.722a.3.3 0 0 0-.287 0c-.8.453-.95.505-1.7.765-.184.065-.465.165.096.479l3.781 2.225c.36.208.761.311 1.173.311.417 0 .812-.103 1.172-.311l11.271-6.484A2.38 2.38 0 0 0 170 38.882V25.889c0-.844-.443-1.636-1.173-2.057l-11.27-6.509a2.35 2.35 0 0 0-1.173-.287zM49.177 17.3a1.43 1.43 0 0 0-.718.19l-11.942 6.868a1.47 1.47 0 0 0-.717 1.268v13.782c0 .516.271.987.717 1.245l11.942 6.89c.446.258.989.258 1.435 0l11.942-6.89c.445-.258.717-.73.717-1.245V25.626a1.47 1.47 0 0 0-.717-1.268l-11.942-6.867a1.43 1.43 0 0 0-.717-.191zm110.222 9.02c-3.21 0-5.121 1.366-5.121 3.637 0 2.464 1.897 3.141 4.977 3.446 3.686.36 3.973.901 3.973 1.627 0 1.258-1.003 1.794-3.374 1.794-2.98 0-3.634-.743-3.853-2.225-.026-.159-.149-.287-.311-.287h-1.46a.342.342 0 0 0-.335.335c0 1.897 1.032 4.14 5.959 4.14 3.566 0 5.623-1.4 5.623-3.853 0-2.431-1.662-3.084-5.12-3.541-3.497-.463-3.83-.689-3.83-1.508 0-.675.283-1.579 2.872-1.579 2.313 0 3.167.499 3.518 2.058.03.147.16.263.31.263h1.46c.09 0 .178-.055.24-.12.061-.068.104-.146.096-.239-.226-2.685-2.017-3.948-5.624-3.948zm-38.815 3.278c-.048 0-.1 0-.143.024l-2.298 1.34a.28.28 0 0 0-.143.24v2.631c0 .1.057.19.143.24l2.298 1.316a.25.25 0 0 0 .263 0L123 34.073a.281.281 0 0 0 .144-.24v-2.632c0-.099-.059-.19-.144-.239l-2.297-1.34c-.043-.025-.072-.024-.12-.024z" fill="#83CD29"/>
    </g>
</svg>
