<svg width="115" height="60" viewBox="0 0 115 60" xmlns="http://www.w3.org/2000/svg">
    <path d="M57.5 0C89.256 0 115 13.431 115 30c0 16.569-25.744 30-57.5 30S0 46.569 0 30C0 13.431 25.744 0 57.5 0zM37.02 15.79H22.45l-6.302 31.973h7.483l1.576-8.29h7.088c6.695.396 14.178-5.13 14.178-14.604 0-5.527-3.15-8.685-9.452-9.08zm52.774 0H75.223L68.92 47.762h7.483l1.575-8.29h7.09c6.695.396 14.178-5.13 14.178-14.604 0-5.527-3.151-8.685-9.453-9.08zM58.792 7.5H51.31l-6.3 31.974h7.482l3.545-17.764h5.907c2.757 0 2.757 1.185 2.363 3.159L61.55 39.474h7.877l2.757-16.184c.787-3.948-1.576-7.106-7.877-7.5h-7.089l1.575-8.29zM33.87 21.71c2.757 0 4.726 1.185 4.726 3.553-.394 6.71-3.545 7.895-7.09 8.29h-4.725L28.75 21.71h5.12zm52.774 0c2.757 0 4.726 1.185 4.726 3.553-.394 6.71-3.545 7.895-7.089 8.29h-4.726l1.969-11.843h5.12z" fill="#8993BE" fill-rule="nonzero"/>
</svg>
