<svg width="90" height="81" viewBox="0 0 90 81" xmlns="http://www.w3.org/2000/svg">
    <g fill-rule="nonzero" fill="none">
        <path d="M.013 40.244c0 6.781 6.622 13.111 17.061 16.68-2.085 10.494-.373 18.953 5.342 22.25 5.874 3.387 14.626 1.042 22.932-6.22 8.097 6.969 16.28 9.71 21.99 6.405 5.87-3.397 7.654-12.43 5.512-23.252 10.873-3.595 16.955-8.993 16.955-15.863 0-6.624-6.634-12.354-16.932-15.9 2.306-11.27.352-19.523-5.6-22.955C61.535-1.92 53.257.964 45.04 8.114 36.493.525 28.297-1.792 22.35 1.65c-5.733 3.318-7.368 11.931-5.277 22.62C6.987 27.787.014 33.647.014 40.244z" fill="#FFF"/>
        <path d="M70.691 27.865a53.418 53.418 0 0 0-2.567-.809c.143-.58.276-1.165.397-1.75 1.943-9.433.673-17.032-3.666-19.534-4.16-2.399-10.963.103-17.834 6.082-.678.59-1.34 1.198-1.986 1.822a48.551 48.551 0 0 0-1.321-1.22c-7.201-6.394-14.42-9.088-18.754-6.58-4.156 2.406-5.387 9.55-3.637 18.49.174.885.37 1.766.59 2.64-1.022.29-2.009.6-2.952.929-8.443 2.943-13.835 7.557-13.835 12.341 0 4.943 5.788 9.9 14.582 12.905.713.243 1.432.467 2.156.674a52.165 52.165 0 0 0-.626 2.847c-1.668 8.784-.365 15.759 3.78 18.15 4.281 2.468 11.466-.07 18.463-6.185a45.174 45.174 0 0 0 1.664-1.534c.7.676 1.42 1.331 2.156 1.967 6.777 5.832 13.47 8.187 17.612 5.79 4.277-2.477 5.667-9.97 3.862-19.085a45.167 45.167 0 0 0-.478-2.132c.505-.149 1-.303 1.483-.463 9.142-3.029 15.09-7.925 15.09-12.934 0-4.802-5.566-9.446-14.179-12.41z" fill="#53C1DE"/>
        <path d="M68.708 49.977c-.435.144-.883.283-1.339.418-1.01-3.194-2.371-6.592-4.038-10.102 1.59-3.427 2.9-6.78 3.881-9.955.816.237 1.608.486 2.37.748 7.38 2.54 11.881 6.296 11.881 9.19 0 3.083-4.861 7.085-12.754 9.7zm-3.275 6.49c.798 4.03.912 7.675.384 10.524-.475 2.56-1.43 4.267-2.611 4.95-2.513 1.455-7.888-.436-13.683-5.423a48.84 48.84 0 0 1-2.006-1.829c2.247-2.457 4.493-5.314 6.685-8.487 3.855-.342 7.497-.901 10.8-1.665.162.657.307 1.3.431 1.93zM32.313 71.69c-2.456.867-4.411.892-5.593.21-2.516-1.45-3.561-7.051-2.135-14.563.17-.887.364-1.77.582-2.647 3.267.722 6.882 1.242 10.747 1.555 2.206 3.105 4.516 5.959 6.845 8.458-.495.478-1.002.945-1.52 1.399-3.094 2.704-6.194 4.623-8.926 5.588zM20.81 49.957c-3.888-1.329-7.1-3.056-9.3-4.94-1.978-1.694-2.977-3.376-2.977-4.74 0-2.904 4.329-6.608 11.55-9.125a49.152 49.152 0 0 1 2.744-.864c.998 3.246 2.307 6.64 3.887 10.071-1.6 3.483-2.928 6.93-3.935 10.215a41.964 41.964 0 0 1-1.969-.617zm3.856-26.246c-1.499-7.659-.504-13.437 2-14.886 2.669-1.545 8.568.658 14.786 6.178.397.353.796.723 1.196 1.105-2.317 2.487-4.606 5.32-6.793 8.406-3.75.348-7.34.906-10.641 1.654a49.946 49.946 0 0 1-.548-2.457zm34.397 8.494a108.338 108.338 0 0 0-2.425-3.988c2.545.321 4.983.748 7.272 1.27a72.666 72.666 0 0 1-2.553 6.867 118.727 118.727 0 0 0-2.294-4.15zM45.036 18.542a72.853 72.853 0 0 1 4.693 5.665c-3.14-.148-6.285-.149-9.425-.002a75.124 75.124 0 0 1 4.732-5.663zM30.92 32.228a100.665 100.665 0 0 0-2.251 4.124 75.18 75.18 0 0 1-2.534-6.9 76.86 76.86 0 0 1 7.23-1.241c-.847 1.32-1.662 2.659-2.445 4.017zm2.517 20.357a72.534 72.534 0 0 1-7.349-1.181 76.385 76.385 0 0 1 2.585-7.04 100.049 100.049 0 0 0 4.764 8.221zm11.694 9.666a76.568 76.568 0 0 1-4.798-5.742c1.527.06 3.084.09 4.666.09 1.625 0 3.232-.036 4.814-.106a72.443 72.443 0 0 1-4.682 5.758zm16.26-18.01a72.347 72.347 0 0 1 2.678 7.015 72.297 72.297 0 0 1-7.44 1.268c.844-1.336 1.66-2.689 2.45-4.058.801-1.39 1.572-2.8 2.312-4.225zm-5.264 2.524a111.69 111.69 0 0 1-3.826 6.172c-2.365.17-4.81.256-7.302.256-2.481 0-4.895-.077-7.22-.228a96.627 96.627 0 0 1-7.3-12.607 96.65 96.65 0 0 1 3.393-6.428c1.21-2.1 2.5-4.153 3.866-6.155a96.516 96.516 0 0 1 14.536.002c1.352 1.999 2.634 4.045 3.842 6.135a111.668 111.668 0 0 1 3.438 6.398 102.63 102.63 0 0 1-3.427 6.455zm7.028-38.042c2.67 1.54 3.708 7.75 2.03 15.895-.11.53-.229 1.059-.358 1.585-3.308-.763-6.9-1.331-10.662-1.684-2.191-3.12-4.462-5.957-6.74-8.413a50.085 50.085 0 0 1 1.833-1.682c5.887-5.124 11.39-7.146 13.897-5.7z" fill="#FFF"/>
        <path d="M44.998 33.156a7.12 7.12 0 1 1 0 14.241 7.12 7.12 0 0 1 0-14.241" fill="#53C1DE"/>
    </g>
</svg>
