<svg width="44" height="44" xmlns="http://www.w3.org/2000/svg"><defs><linearGradient x1="50%" y1="100%" x2="50%" y2="0%" id="a"><stop stop-color="#1D93D2" offset="0%"/><stop stop-color="#38B0E3" offset="100%"/></linearGradient></defs><g fill-rule="nonzero" fill="none"><ellipse fill="url(#a)" cx="21.77" cy="22" rx="21.77" ry="22"/><path d="m14.736 23.608 2.583 7.225s.323.676.669.676c.346 0 5.489-5.407 5.489-5.407l5.719-11.163-14.367 6.804-.093 1.865Z" fill="#C8DAEA"/><path d="m18.161 25.461-.496 5.325s-.207 1.632 1.407 0 3.16-2.89 3.16-2.89" fill="#A9C6D8"/><path d="m14.783 23.866-5.313-1.75s-.635-.26-.43-.85c.042-.122.126-.225.38-.403 1.178-.83 21.79-8.316 21.79-8.316s.582-.199.925-.067a.505.505 0 0 1 .342.377c.037.155.053.315.046.474-.002.138-.018.266-.03.466-.126 2.047-3.883 17.324-3.883 17.324s-.225.894-1.03.924c-.4.013-.788-.138-1.075-.42-1.58-1.374-7.042-5.083-8.25-5.9a.233.233 0 0 1-.098-.164c-.017-.086.075-.193.075-.193s9.511-8.543 9.764-9.44c.02-.07-.054-.104-.154-.073-.631.235-11.582 7.223-12.79 7.994a.576.576 0 0 1-.269.017Z" fill="#FFF"/></g></svg>