<svg width="366" height="495" xmlns="http://www.w3.org/2000/svg" xmlns:xlink="http://www.w3.org/1999/xlink">
    <defs>
        <filter x="-7.4%" y="-4.3%" width="114.9%" height="110.8%" filterUnits="objectBoundingBox" id="a">
            <feOffset dy="5" in="SourceAlpha" result="shadowOffsetOuter1"/>
            <feGaussianBlur stdDeviation="7.5" in="shadowOffsetOuter1" result="shadowBlurOuter1"/>
            <feColorMatrix values="0 0 0 0 0.168627451 0 0 0 0 0.176470588 0 0 0 0 0.192156863 0 0 0 0.1 0" in="shadowBlurOuter1"/>
        </filter>
        <rect id="b" x="0" y="0" width="336" height="465" rx="6.889"/>
    </defs>
    <g fill="none" fill-rule="evenodd">
        <g transform="translate(15 10)">
            <use fill="#000" filter="url(#a)" xlink:href="#b"/>
            <use fill="#FFF" xlink:href="#b"/>
        </g>
        <g transform="translate(39.056 146.569)">
            <rect fill="#F5F6FA" width="288" height="31.961" rx="6.4"/>
            <path d="M34.662 20v-5.568L38.732 20h1.754v-8.538H38.67v5.364l-3.955-5.364h-1.87V20h1.818zm10.381.154c.96 0 1.933-.295 2.547-.858l-.716-1.05c-.397.384-1.127.615-1.652.615-1.05 0-1.676-.653-1.779-1.434h4.595v-.358c0-2.023-1.254-3.405-3.097-3.405-1.882 0-3.2 1.446-3.2 3.238 0 1.984 1.42 3.252 3.302 3.252zm1.421-3.828h-3.046c.076-.614.512-1.37 1.523-1.37 1.075 0 1.485.782 1.523 1.37zM52.032 20l1.306-4.211L54.643 20h1.728l1.882-6.182h-1.69l-1.152 4.16-1.357-4.16h-1.446l-1.357 4.16-1.152-4.16h-1.69L50.292 20h1.741zm14.54 0v-3.494l3.265-5.044h-2.074l-2.099 3.43-2.125-3.43h-2.073l3.29 5.044V20h1.817zm6.887.154c2.048 0 3.277-1.485 3.277-3.252 0-1.753-1.229-3.238-3.277-3.238-2.035 0-3.264 1.485-3.264 3.238 0 1.767 1.229 3.252 3.264 3.252zm0-1.447c-1.011 0-1.574-.832-1.574-1.805 0-.96.563-1.792 1.574-1.792 1.011 0 1.587.832 1.587 1.792 0 .973-.576 1.805-1.587 1.805zM79.565 20v-4.083c.269-.397.985-.704 1.523-.704.18 0 .333.013.448.038v-1.587c-.768 0-1.536.448-1.971.998v-.844h-1.626V20h1.626zm4.608 0v-1.587l.742-.794L86.554 20h2.035l-2.522-3.38 2.445-2.802h-1.997l-2.342 2.752v-5.108h-1.626V20h1.626zm10.355 0v-3.034h2.176c1.843 0 2.867-1.267 2.867-2.752 0-1.497-1.011-2.752-2.867-2.752H92.71V20h1.818zm1.933-4.634h-1.933v-2.304h1.933c.717 0 1.254.436 1.254 1.152 0 .704-.537 1.152-1.254 1.152zm5.005-2.214a.972.972 0 0 0 .972-.973.962.962 0 0 0-.972-.96.97.97 0 0 0-.973.96.98.98 0 0 0 .973.973zm.819 6.848v-6.182h-1.626V20h1.626zm6.387 0v-1.42h-2.88l2.829-3.585v-1.177h-4.992v1.42h2.79l-2.79 3.546V20h5.043zm6.131 0v-1.42h-2.88l2.829-3.585v-1.177h-4.992v1.42h2.79l-2.79 3.546V20h5.043zm3.11.154c.807 0 1.537-.295 1.959-.794V20h1.626v-3.994c0-1.779-1.293-2.342-2.701-2.342-.973 0-1.946.307-2.701.973l.614 1.088c.525-.487 1.14-.73 1.805-.73.82 0 1.357.41 1.357 1.037v.832c-.41-.486-1.14-.755-1.958-.755-.986 0-2.15.55-2.15 1.997 0 1.382 1.164 2.048 2.15 2.048zm.653-1.101c-.64 0-1.164-.333-1.164-.909 0-.602.524-.934 1.164-.934.525 0 1.037.179 1.306.537v.768c-.269.359-.78.538-1.306.538zm11.226.947c2.675 0 4.531-1.69 4.531-4.262 0-2.573-1.856-4.276-4.531-4.276h-3.366V20h3.366zm0-1.6h-1.549v-5.338h1.549c1.754 0 2.675 1.165 2.675 2.676 0 1.446-.985 2.662-2.675 2.662zm8.691 1.754c.96 0 1.933-.295 2.547-.858l-.716-1.05c-.397.384-1.127.615-1.652.615-1.05 0-1.676-.653-1.779-1.434h4.595v-.358c0-2.023-1.254-3.405-3.097-3.405-1.882 0-3.2 1.446-3.2 3.238 0 1.984 1.42 3.252 3.302 3.252zm1.421-3.828h-3.046c.076-.614.512-1.37 1.523-1.37 1.075 0 1.485.782 1.523 1.37zM144.282 20v-8.538h-1.626V20h1.626zm2.419-6.848a.972.972 0 0 0 .973-.973.962.962 0 0 0-.973-.96.97.97 0 0 0-.973.96.98.98 0 0 0 .973.973zM147.52 20v-6.182h-1.626V20h1.626zm4.966 0 2.484-6.182h-1.754l-1.613 4.3-1.613-4.3h-1.74L150.733 20h1.753zm6.119.154c.96 0 1.933-.295 2.547-.858l-.717-1.05c-.397.384-1.126.615-1.651.615-1.05 0-1.677-.653-1.78-1.434h4.596v-.358c0-2.023-1.254-3.405-3.098-3.405-1.881 0-3.2 1.446-3.2 3.238 0 1.984 1.421 3.252 3.303 3.252zm1.42-3.828h-3.046c.077-.614.512-1.37 1.523-1.37 1.076 0 1.485.782 1.524 1.37zM164.404 20v-4.083c.269-.397.986-.704 1.523-.704.18 0 .333.013.448.038v-1.587c-.768 0-1.536.448-1.97.998v-.844h-1.626V20h1.625zm3.571 2.509c1.063-.026 1.882-.333 2.343-1.498l2.905-7.193h-1.753l-1.613 4.3-1.613-4.3h-1.74l2.508 6.272-.23.524c-.154.333-.435.448-.858.448-.153 0-.371-.038-.512-.102l-.243 1.46c.205.05.614.089.806.089z" fill="#2B2D31" fill-rule="nonzero"/>
            <path d="M16.64 19.84c-.704 0-1.274.576-1.274 1.28 0 .704.57 1.28 1.274 1.28.704 0 1.28-.576 1.28-1.28 0-.704-.576-1.28-1.28-1.28zM12.8 9.6v1.28h1.28l2.304 4.858-.864 1.568c-.102.179-.16.39-.16.614 0 .704.576 1.28 1.28 1.28h7.68v-1.28h-7.411c-.09 0-.16-.07-.16-.16l.019-.077.576-1.043h4.768c.48 0 .902-.262 1.12-.66l2.29-4.153a.642.642 0 0 0-.562-.947h-9.466l-.601-1.28H12.8zm10.24 10.24c-.704 0-1.274.576-1.274 1.28 0 .704.57 1.28 1.274 1.28.704 0 1.28-.576 1.28-1.28 0-.704-.576-1.28-1.28-1.28z" fill="#A9B0D1"/>
        </g>
        <g transform="translate(39.056 216.882)">
            <rect fill="#F5F6FA" width="288" height="31.961" rx="6.4"/>
            <path d="M34.432 20v-4.16c.282-.371.78-.73 1.408-.73.704 0 1.152.27 1.152 1.127V20h1.626v-4.39c0-1.204-.653-1.946-2.01-1.946-1.011 0-1.78.486-2.176.96v-3.162h-1.626V20h1.626zm7.872.154c.678 0 1.114-.18 1.357-.397l-.346-1.229c-.09.09-.32.18-.563.18-.358 0-.563-.295-.563-.68v-2.79h1.254v-1.42H42.19v-1.69H40.55v1.69h-1.024v1.42h1.024v3.226c0 1.1.615 1.69 1.754 1.69zm4.326 0c.679 0 1.114-.18 1.357-.397l-.345-1.229c-.09.09-.32.18-.564.18-.358 0-.563-.295-.563-.68v-2.79h1.255v-1.42h-1.255v-1.69h-1.638v1.69h-1.024v1.42h1.024v3.226c0 1.1.614 1.69 1.753 1.69zm3.879 2.201v-3.149c.499.64 1.177.948 1.907.948 1.587 0 2.74-1.19 2.74-3.252 0-2.06-1.153-3.238-2.74-3.238-.755 0-1.434.333-1.907.934v-.78h-1.626v8.537h1.626zm1.395-3.648c-.525 0-1.126-.32-1.395-.704v-2.189c.269-.396.87-.704 1.395-.704.934 0 1.562.73 1.562 1.792 0 1.076-.628 1.805-1.562 1.805zm6.669 1.447c1.715 0 2.675-.858 2.675-1.984 0-2.496-3.66-1.728-3.66-2.65 0-.346.383-.614.972-.614.755 0 1.46.32 1.83.716l.653-1.113c-.614-.487-1.446-.845-2.496-.845-1.625 0-2.534.909-2.534 1.946 0 2.432 3.673 1.6 3.673 2.624 0 .384-.332.665-1.036.665-.768 0-1.69-.422-2.138-.845l-.704 1.14c.653.601 1.69.96 2.765.96zm4.71-4.352a1.05 1.05 0 0 0 1.037-1.037 1.05 1.05 0 0 0-1.037-1.037 1.05 1.05 0 0 0-1.037 1.037 1.05 1.05 0 0 0 1.037 1.037zm0 4.339a1.05 1.05 0 0 0 1.037-1.037 1.05 1.05 0 0 0-1.037-1.037 1.05 1.05 0 0 0-1.037 1.037 1.05 1.05 0 0 0 1.037 1.037zm2.752.115 3.034-9.05H67.89l-3.033 9.05h1.177zm4.211 0 3.034-9.05h-1.178l-3.033 9.05h1.177zm5.466 2.1v-3.15c.5.64 1.178.948 1.907.948 1.587 0 2.74-1.19 2.74-3.252 0-2.06-1.153-3.238-2.74-3.238-.755 0-1.433.333-1.907.934v-.78h-1.626v8.537h1.626zm1.395-3.649c-.525 0-1.126-.32-1.395-.704v-2.189c.269-.396.87-.704 1.395-.704.935 0 1.562.73 1.562 1.792 0 1.076-.627 1.805-1.562 1.805zm5.248-5.555a.972.972 0 0 0 .973-.973.962.962 0 0 0-.973-.96.97.97 0 0 0-.973.96.98.98 0 0 0 .973.973zm.82 6.848v-6.182h-1.626V20h1.625zm6.387 0v-1.42h-2.88l2.828-3.585v-1.177h-4.992v1.42h2.79l-2.79 3.546V20h5.044zm6.13 0v-1.42h-2.88l2.83-3.585v-1.177H90.65v1.42h2.79l-2.79 3.546V20h5.043zm3.111.154c.807 0 1.536-.295 1.959-.794V20h1.625v-3.994c0-1.779-1.293-2.342-2.7-2.342-.973 0-1.946.307-2.701.973l.614 1.088c.525-.487 1.14-.73 1.805-.73.819 0 1.357.41 1.357 1.037v.832c-.41-.486-1.14-.755-1.959-.755-.985 0-2.15.55-2.15 1.997 0 1.382 1.165 2.048 2.15 2.048zm.653-1.101c-.64 0-1.165-.333-1.165-.909 0-.602.525-.934 1.165-.934.525 0 1.037.179 1.306.537v.768c-.27.359-.781.538-1.306.538zm9.958.947v-1.766h1.101v-1.6h-1.1v-5.172h-2.51l-3.391 5.338v1.434h4.083V20h1.817zm-1.817-3.366h-2.304l2.304-3.559v3.559zm6.925 3.52c1.267 0 2.035-.55 2.444-1.127l-1.062-.985a1.56 1.56 0 0 1-1.306.665c-.985 0-1.676-.73-1.676-1.805s.69-1.792 1.676-1.792c.564 0 1.012.23 1.306.666l1.062-.998c-.41-.564-1.177-1.114-2.444-1.114-1.908 0-3.277 1.344-3.277 3.238 0 1.908 1.37 3.252 3.277 3.252zm5.132-.154v-4.083c.27-.397.986-.704 1.524-.704.179 0 .332.013.448.038v-1.587c-.768 0-1.536.448-1.972.998v-.844h-1.625V20h1.625zm3.572 2.509c1.062-.026 1.881-.333 2.342-1.498l2.906-7.193h-1.754l-1.613 4.3-1.613-4.3h-1.74l2.508 6.272-.23.524c-.154.333-.435.448-.858.448-.153 0-.37-.038-.512-.102l-.243 1.46c.205.05.615.089.807.089zm7.603-.154v-3.149c.499.64 1.177.948 1.907.948 1.587 0 2.74-1.19 2.74-3.252 0-2.06-1.153-3.238-2.74-3.238-.755 0-1.434.333-1.907.934v-.78h-1.626v8.537h1.626zm1.395-3.648c-.525 0-1.126-.32-1.395-.704v-2.189c.269-.396.87-.704 1.395-.704.934 0 1.562.73 1.562 1.792 0 1.076-.628 1.805-1.562 1.805zm6.515 1.447c.679 0 1.114-.18 1.357-.397l-.346-1.229c-.09.09-.32.18-.563.18-.358 0-.563-.295-.563-.68v-2.79h1.254v-1.42h-1.254v-1.69h-1.638v1.69h-1.024v1.42h1.024v3.226c0 1.1.614 1.69 1.753 1.69zm5.12 0c2.048 0 3.277-1.485 3.277-3.252 0-1.753-1.229-3.238-3.277-3.238-2.035 0-3.264 1.485-3.264 3.238 0 1.767 1.229 3.252 3.264 3.252zm0-1.447c-1.011 0-1.574-.832-1.574-1.805 0-.96.563-1.792 1.574-1.792 1.011 0 1.587.832 1.587 1.792 0 .973-.576 1.805-1.587 1.805zm5.312 1.434a1.05 1.05 0 0 0 1.037-1.037 1.05 1.05 0 0 0-1.037-1.037 1.05 1.05 0 0 0-1.037 1.037 1.05 1.05 0 0 0 1.037 1.037zm5.325.013c1.267 0 2.035-.55 2.445-1.127l-1.063-.985a1.56 1.56 0 0 1-1.305.665c-.986 0-1.677-.73-1.677-1.805s.691-1.792 1.677-1.792c.563 0 1.011.23 1.305.666l1.063-.998c-.41-.564-1.178-1.114-2.445-1.114-1.907 0-3.277 1.344-3.277 3.238 0 1.908 1.37 3.252 3.277 3.252zm6.374 0c2.048 0 3.277-1.485 3.277-3.252 0-1.753-1.229-3.238-3.277-3.238-2.035 0-3.264 1.485-3.264 3.238 0 1.767 1.23 3.252 3.264 3.252zm0-1.447c-1.01 0-1.574-.832-1.574-1.805 0-.96.563-1.792 1.574-1.792 1.012 0 1.588.832 1.588 1.792 0 .973-.576 1.805-1.588 1.805zM166.976 20v-4.16c.243-.346.717-.73 1.28-.73.666 0 .922.41.922.986V20h1.638v-4.173c.23-.333.704-.717 1.28-.717.666 0 .922.41.922.986V20h1.638v-4.467c0-1.267-.678-1.869-1.818-1.869-.947 0-1.766.563-2.124 1.126-.23-.704-.807-1.126-1.716-1.126-.947 0-1.766.589-2.022.96v-.806h-1.626V20h1.626z" fill="#2B2D31" fill-rule="nonzero"/>
            <path d="M19.2 9.6a6.4 6.4 0 1 0 0 12.8 6.4 6.4 0 0 0 0-12.8zm2.124 9.228-.292.291a.617.617 0 0 0-.16.277c-.038.146-.07.294-.123.435l-.448 1.21a5.157 5.157 0 0 1-1.101.12v-.706c.044-.326-.197-.936-.584-1.323a.826.826 0 0 1-.242-.584v-.826c0-.3-.162-.576-.425-.722-.37-.205-.898-.492-1.26-.674a3.72 3.72 0 0 1-.816-.56l-.02-.02a2.962 2.962 0 0 1-.467-.535c-.242-.355-.636-.94-.892-1.32a5.19 5.19 0 0 1 2.663-2.629l.62.31a.413.413 0 0 0 .597-.37v-.29c.206-.034.416-.055.63-.063l.73.73a.413.413 0 0 1 0 .584l-.121.12-.267.268a.207.207 0 0 0 0 .292l.121.12c.08.081.08.212 0 .292l-.206.207a.207.207 0 0 1-.146.06h-.232a.206.206 0 0 0-.144.059l-.256.249a.207.207 0 0 0-.041.24l.402.805a.206.206 0 0 1-.184.299h-.146a.206.206 0 0 1-.135-.05l-.24-.209a.413.413 0 0 0-.4-.08l-.805.268a.308.308 0 0 0-.04.569l.285.143c.243.122.511.185.783.185.271 0 .583.704.825.826h1.723c.219 0 .429.087.584.241l.353.354c.148.147.23.348.23.556a1.2 1.2 0 0 1-.353.851zm2.237-2.357a.62.62 0 0 1-.365-.257l-.464-.696a.619.619 0 0 1 0-.687l.506-.758a.619.619 0 0 1 .238-.21l.335-.168a5.12 5.12 0 0 1 .55 2.305c0 .224-.019.443-.047.66l-.753-.189z" fill="#A9B0D1"/>
        </g>
        <g transform="translate(39.056 357.51)">
            <rect fill="#F5F6FA" width="288" height="31.961" rx="6.4"/>
            <path d="M25.228 9.977a1.27 1.27 0 0 0-.906-.377H20.81a.875.875 0 0 0-.615.254l-7.02 7.02a1.28 1.28 0 0 0 0 1.809l3.342 3.343c.5.499 1.31.499 1.81 0l7.018-7.017a.874.874 0 0 0 .255-.615V10.88a1.264 1.264 0 0 0-.372-.903zm-2.371 3.28a.914.914 0 1 1 0-1.828.914.914 0 0 1 0 1.828z" fill="#A9B0D1"/>
            <rect fill="#4574EB" x="32.834" y="3.937" width="49.412" height="23.715" rx="8"/>
            <path d="M47.481 19.747V14.6h1.36v-1.147h-1.377v-.573c0-.596.266-.891.944-.891.202 0 .376.011.492.029v-1.054a4.606 4.606 0 0 0-.8-.064c-1.406 0-2.05.625-2.05 1.888v.665h-1.036V14.6h1.037v5.147h1.43zm5.478.127c1.893 0 3.046-1.239 3.046-3.294 0-2.05-1.159-3.294-3.046-3.294-1.882 0-3.046 1.25-3.046 3.294 0 2.055 1.147 3.294 3.046 3.294zm0-1.204c-1.002 0-1.575-.764-1.575-2.09 0-1.32.573-2.09 1.575-2.09.996 0 1.569.77 1.569 2.09 0 1.326-.567 2.09-1.57 2.09zm7.226 1.204c1.894 0 3.046-1.239 3.046-3.294 0-2.05-1.158-3.294-3.046-3.294-1.882 0-3.045 1.25-3.045 3.294 0 2.055 1.146 3.294 3.045 3.294zm0-1.204c-1.001 0-1.575-.764-1.575-2.09 0-1.32.574-2.09 1.575-2.09.996 0 1.57.77 1.57 2.09 0 1.326-.568 2.09-1.57 2.09zm6.787 1.181c.88 0 1.61-.41 1.968-1.106h.099v1.002h1.39v-8.783h-1.436v3.456h-.099c-.336-.694-1.054-1.111-1.922-1.111-1.598 0-2.606 1.262-2.606 3.265 0 2.015 1.002 3.277 2.606 3.277zm.446-1.221c-.985 0-1.581-.77-1.581-2.05 0-1.274.602-2.05 1.58-2.05.985 0 1.593.788 1.593 2.05 0 1.274-.602 2.05-1.592 2.05z" fill="#FFF" fill-rule="nonzero"/>
            <rect fill="#4574EB" x="90.152" y="3.937" width="69.176" height="23.715" rx="8"/>
            <rect fill="#4574EB" x="166.967" y="3.826" width="49.412" height="23.715" rx="8"/>
            <path d="M104.349 19.851c.88 0 1.61-.41 1.968-1.106h.099v1.002h1.39v-8.783h-1.437v3.456h-.098c-.336-.694-1.054-1.111-1.922-1.111-1.599 0-2.606 1.262-2.606 3.265 0 2.015 1.002 3.277 2.606 3.277zm.445-1.221c-.984 0-1.58-.77-1.58-2.05 0-1.274.602-2.05 1.58-2.05.985 0 1.593.788 1.593 2.05 0 1.274-.602 2.05-1.593 2.05zm7.499 1.244c1.494 0 2.554-.717 2.814-1.87h-1.36c-.21.47-.701.73-1.413.73-.944 0-1.552-.66-1.587-1.714v-.075h4.424v-.463c0-1.998-1.083-3.196-2.89-3.196-1.835 0-2.976 1.28-2.976 3.317 0 2.038 1.123 3.271 2.988 3.271zm1.442-3.908h-2.982c.063-.926.666-1.54 1.523-1.54.862 0 1.43.602 1.459 1.54zm4.372 3.781v-8.783h-1.436v8.783h1.436zm2.542-7.382a.856.856 0 0 0 .857-.863.861.861 0 0 0-.857-.868.865.865 0 0 0-.857.868c0 .48.388.863.857.863zm.718 7.382v-6.334h-1.43v6.334h1.43zm5.06 0 2.241-6.334h-1.517l-1.453 4.898h-.099l-1.465-4.898h-1.54l2.253 6.334h1.58zm6.127.127c1.494 0 2.553-.717 2.814-1.87h-1.36c-.21.47-.701.73-1.414.73-.944 0-1.552-.66-1.586-1.714v-.075h4.424v-.463c0-1.998-1.083-3.196-2.89-3.196-1.835 0-2.976 1.28-2.976 3.317 0 2.038 1.123 3.271 2.988 3.271zm1.442-3.908h-2.983c.064-.926.666-1.54 1.523-1.54.863 0 1.43.602 1.46 1.54zm4.313 3.781v-3.66c0-.885.649-1.464 1.581-1.464.243 0 .626.04.736.081v-1.332a2.473 2.473 0 0 0-.597-.063c-.816 0-1.5.463-1.673 1.088h-.099v-.984h-1.384v6.334h1.436zm4.187 2.299c1.419 0 2.096-.521 2.635-2.096l2.287-6.537H145.9l-1.477 4.945h-.098l-1.483-4.945h-1.575l2.264 6.363-.075.278c-.185.585-.527.816-1.135.816-.098 0-.312-.005-.394-.023v1.176c.093.017.481.023.568.023zM179.104 21.855v-3.069h.099c.324.672 1.024 1.065 1.934 1.065 1.598 0 2.594-1.25 2.594-3.271 0-2.032-1.008-3.271-2.612-3.271-.868 0-1.604.434-1.969 1.152h-.098v-1.048h-1.384v8.442h1.436zm1.563-3.225c-.978 0-1.586-.782-1.592-2.05.006-1.262.62-2.05 1.598-2.05.985 0 1.581.77 1.581 2.05 0 1.28-.59 2.05-1.587 2.05zm5.235-6.265a.856.856 0 0 0 .857-.863.861.861 0 0 0-.857-.868.865.865 0 0 0-.857.868c0 .48.388.863.857.863zm.718 7.382v-6.334h-1.43v6.334h1.43zm6.763 0V18.59h-3.294v-.098l3.242-4.1v-.978h-5.05v1.158h3.336v.098l-3.364 4.18v.898h5.13zm6.601 0V18.59h-3.294v-.098l3.242-4.1v-.978h-5.049v1.158h3.335v.098l-3.364 4.18v.898h5.13zm3.359.104c.828 0 1.523-.359 1.876-.972h.098v.868h1.384v-4.325c0-1.343-.915-2.136-2.542-2.136-1.505 0-2.553.712-2.67 1.83h1.356c.133-.43.585-.66 1.245-.66.776 0 1.193.347 1.193.966v.533l-1.633.098c-1.54.093-2.403.753-2.403 1.9 0 1.157.874 1.898 2.096 1.898zm.423-1.129c-.637 0-1.095-.318-1.095-.85 0-.516.377-.806 1.181-.858l1.43-.092v.503c0 .736-.648 1.297-1.516 1.297z" fill="#FFF" fill-rule="nonzero"/>
        </g>
        <g transform="translate(39.056 287.196)">
            <rect fill="#F5F6FA" width="288" height="31.961" rx="6.4"/>
            <path d="M34.662 20v-3.533h4.135v-1.6h-4.135v-1.805h4.224v-1.6h-6.041V20h1.817zm8.32.154c2.048 0 3.277-1.485 3.277-3.252 0-1.753-1.229-3.238-3.277-3.238-2.035 0-3.264 1.485-3.264 3.238 0 1.767 1.23 3.252 3.264 3.252zm0-1.447c-1.01 0-1.574-.832-1.574-1.805 0-.96.563-1.792 1.574-1.792 1.012 0 1.588.832 1.588 1.792 0 .973-.576 1.805-1.588 1.805zm7.348 1.447c2.048 0 3.276-1.485 3.276-3.252 0-1.753-1.228-3.238-3.276-3.238-2.036 0-3.264 1.485-3.264 3.238 0 1.767 1.228 3.252 3.264 3.252zm0-1.447c-1.012 0-1.575-.832-1.575-1.805 0-.96.563-1.792 1.575-1.792 1.01 0 1.587.832 1.587 1.792 0 .973-.576 1.805-1.587 1.805zm6.822 1.447c.742 0 1.42-.333 1.907-.948V20h1.639v-8.538h-1.639v3.15a2.381 2.381 0 0 0-1.907-.948c-1.574 0-2.74 1.229-2.74 3.251 0 2.061 1.178 3.239 2.74 3.239zm.5-1.447c-.922 0-1.562-.73-1.562-1.792 0-1.075.64-1.805 1.561-1.805.55 0 1.14.295 1.408.704v2.19c-.269.409-.857.703-1.408.703zM68.991 20c2.675 0 4.531-1.69 4.531-4.262 0-2.573-1.856-4.276-4.531-4.276h-3.366V20h3.366zm0-1.6h-1.549v-5.338h1.549c1.754 0 2.675 1.165 2.675 2.676 0 1.446-.985 2.662-2.675 2.662zm8.691 1.754c.96 0 1.933-.295 2.547-.858l-.716-1.05c-.397.384-1.127.615-1.652.615-1.05 0-1.676-.653-1.779-1.434h4.595v-.358c0-2.023-1.254-3.405-3.097-3.405-1.882 0-3.2 1.446-3.2 3.238 0 1.984 1.42 3.252 3.302 3.252zm1.421-3.828h-3.046c.076-.614.512-1.37 1.523-1.37 1.075 0 1.485.782 1.523 1.37zM83.482 20v-8.538h-1.626V20h1.626zm2.419-6.848a.972.972 0 0 0 .973-.973.962.962 0 0 0-.973-.96.97.97 0 0 0-.973.96.98.98 0 0 0 .973.973zM86.72 20v-6.182h-1.626V20h1.626zm4.966 0 2.484-6.182h-1.754l-1.613 4.3-1.613-4.3h-1.74L89.933 20h1.753zm6.119.154c.96 0 1.933-.295 2.547-.858l-.717-1.05c-.397.384-1.126.615-1.651.615-1.05 0-1.677-.653-1.78-1.434h4.596v-.358c0-2.023-1.254-3.405-3.098-3.405-1.881 0-3.2 1.446-3.2 3.238 0 1.984 1.421 3.252 3.303 3.252zm1.42-3.828H96.18c.077-.614.512-1.37 1.523-1.37 1.076 0 1.485.782 1.524 1.37zM103.604 20v-4.083c.269-.397.986-.704 1.523-.704.18 0 .333.013.448.038v-1.587c-.768 0-1.536.448-1.97.998v-.844h-1.626V20h1.625zm3.571 2.509c1.063-.026 1.882-.333 2.343-1.498l2.905-7.193h-1.753l-1.613 4.3-1.613-4.3h-1.74l2.508 6.272-.23.524c-.154.333-.435.448-.858.448-.153 0-.371-.038-.512-.102l-.243 1.46c.205.05.614.089.806.089z" fill="#2B2D31" fill-rule="nonzero"/>
            <path d="M24.6 18.8a1 1 0 0 1 0 2H13.8a1 1 0 0 1 0-2h10.8zm0-3.6a1 1 0 0 1 0 2H13.8a1 1 0 1 1 0-2h10.8zm0-3.6a1 1 0 0 1 0 2H13.8a1 1 0 1 1 0-2h10.8z" fill="#4574EB"/>
            <path d="M270.398 18.88a.653.653 0 0 1-.475-.207l-4.128-4.348a.735.735 0 0 1 0-1 .648.648 0 0 1 .95 0l3.653 3.846 3.652-3.847a.649.649 0 0 1 .951 0 .735.735 0 0 1 0 1.001l-4.128 4.348a.653.653 0 0 1-.475.207z" fill="#A9B0D1"/>
        </g>
        <path d="M41.386 130.792v-4.872l3.561 4.872h1.535v-7.47h-1.59v4.692l-3.461-4.692h-1.636v7.47h1.59zm8.075.134c.706 0 1.344-.257 1.714-.694v.56h1.422v-3.494c0-1.557-1.131-2.05-2.363-2.05-.851 0-1.703.269-2.363.851l.537.952c.46-.425.997-.638 1.58-.638.716 0 1.187.358 1.187.907v.728c-.359-.426-.997-.66-1.714-.66-.862 0-1.882.48-1.882 1.746 0 1.21 1.02 1.792 1.882 1.792zm.571-.963c-.56 0-1.019-.291-1.019-.795 0-.526.46-.818 1.02-.818.458 0 .906.157 1.142.47v.673c-.236.313-.684.47-1.143.47zm5.399.829v-3.64c.212-.302.627-.638 1.12-.638.582 0 .806.358.806.862v3.416h1.434v-3.651c.201-.291.616-.627 1.12-.627.582 0 .806.358.806.862v3.416h1.434v-3.909c0-1.109-.594-1.635-1.59-1.635-.83 0-1.546.493-1.86.986-.202-.616-.706-.986-1.5-.986-.83 0-1.546.515-1.77.84v-.706h-1.423v5.41h1.423zm10.662.134c.84 0 1.691-.257 2.229-.75l-.627-.918c-.348.336-.986.537-1.445.537-.919 0-1.467-.571-1.557-1.254h4.02v-.314c0-1.77-1.097-2.979-2.71-2.979-1.646 0-2.8 1.266-2.8 2.834 0 1.736 1.244 2.844 2.89 2.844zm1.243-3.348h-2.665c.067-.538.448-1.199 1.332-1.199.941 0 1.3.683 1.333 1.199zM43.167 201.336c2.273 0 3.37-1.265 3.37-3.125v-4.48h-1.623v4.436c0 1.041-.594 1.758-1.747 1.758-1.154 0-1.759-.717-1.759-1.758v-4.436h-1.613v4.492c0 1.836 1.098 3.113 3.372 3.113zm6.428-.134v-2.655h1.165l1.467 2.655h1.826l-1.68-2.845c.806-.19 1.635-.896 1.635-2.218 0-1.388-.952-2.408-2.509-2.408h-3.494v7.47h1.59zm1.67-4.055h-1.67v-2.016h1.67c.638 0 1.12.381 1.12 1.008 0 .628-.482 1.008-1.12 1.008zm8.69 4.055v-1.4h-3.158v-6.07h-1.59v7.47h4.748zM43.413 271.738c1.646 0 2.587-.907 3.125-1.837l-1.367-.66a2.003 2.003 0 0 1-1.758 1.086c-1.355 0-2.34-1.042-2.34-2.453 0-1.411.985-2.453 2.34-2.453.773 0 1.445.482 1.758 1.087l1.367-.672c-.527-.93-1.479-1.826-3.125-1.826-2.24 0-3.976 1.568-3.976 3.864s1.736 3.864 3.976 3.864zm5.578 0c.705 0 1.344-.258 1.713-.694v.56h1.423v-3.495c0-1.557-1.132-2.05-2.364-2.05-.85 0-1.702.27-2.363.852l.538.952c.46-.426.997-.639 1.58-.639.716 0 1.186.359 1.186.908v.728c-.358-.426-.997-.661-1.713-.661-.863 0-1.882.481-1.882 1.747 0 1.21 1.02 1.792 1.882 1.792zm.57-.963c-.56 0-1.018-.291-1.018-.795 0-.527.459-.818 1.019-.818.46 0 .907.157 1.142.47v.672c-.235.314-.683.47-1.142.47zm5.791.963c.594 0 .975-.157 1.187-.347l-.302-1.075c-.078.078-.28.156-.493.156-.313 0-.493-.257-.493-.593v-2.442h1.098v-1.243h-1.098v-1.478h-1.433v1.478h-.896v1.243h.896v2.823c0 .963.537 1.478 1.534 1.478zm4.514 0c.84 0 1.691-.258 2.229-.75l-.628-.919c-.347.336-.985.538-1.444.538-.919 0-1.468-.571-1.557-1.255h4.02v-.313c0-1.77-1.097-2.98-2.71-2.98-1.646 0-2.8 1.266-2.8 2.834 0 1.736 1.243 2.845 2.89 2.845zm1.243-3.349h-2.666c.068-.537.448-1.198 1.333-1.198.941 0 1.3.683 1.333 1.198zm4.626 5.41c1.332 0 2.923-.504 2.923-2.565v-5.04h-1.434v.694c-.437-.548-1.019-.828-1.669-.828-1.366 0-2.385.985-2.385 2.755 0 1.803 1.03 2.755 2.385 2.755.661 0 1.244-.314 1.67-.851v.549c0 1.064-.807 1.366-1.49 1.366-.684 0-1.255-.19-1.692-.672l-.638 1.03c.683.594 1.4.807 2.33.807zm.268-3.495c-.806 0-1.366-.56-1.366-1.49 0-.929.56-1.489 1.366-1.489.47 0 .986.258 1.221.616v1.747c-.235.348-.75.616-1.22.616zm6.575 1.434c1.792 0 2.867-1.3 2.867-2.845 0-1.534-1.075-2.833-2.867-2.833-1.78 0-2.856 1.299-2.856 2.833 0 1.546 1.075 2.845 2.856 2.845zm0-1.266c-.885 0-1.378-.728-1.378-1.579 0-.84.493-1.568 1.378-1.568.885 0 1.389.728 1.389 1.568 0 .851-.504 1.58-1.39 1.58zm5.342 1.132v-3.573c.235-.347.863-.616 1.333-.616.157 0 .291.011.392.033v-1.388c-.672 0-1.344.392-1.725.873v-.739h-1.422v5.41h1.422zm3.125 2.195c.93-.023 1.646-.291 2.05-1.31l2.542-6.295h-1.534l-1.412 3.763-1.41-3.763h-1.524l2.195 5.488-.201.46c-.135.29-.381.391-.75.391-.135 0-.326-.033-.449-.09l-.213 1.277c.18.045.538.079.706.079zM41.386 342.005v-3.136h3.528v3.136h1.601v-7.47h-1.601v2.934h-3.528v-2.934h-1.59v7.47h1.59zm8.097.135c.706 0 1.344-.258 1.714-.695v.56h1.422v-3.494c0-1.557-1.13-2.05-2.363-2.05-.85 0-1.702.27-2.363.852l.538.952c.459-.426.996-.639 1.579-.639.717 0 1.187.359 1.187.907v.728c-.358-.425-.997-.66-1.714-.66-.862 0-1.881.481-1.881 1.747 0 1.21 1.02 1.792 1.881 1.792zm.572-.963c-.56 0-1.02-.292-1.02-.796 0-.526.46-.817 1.02-.817.459 0 .907.157 1.142.47v.672c-.235.314-.683.47-1.142.47zm5.924.963c1.501 0 2.341-.75 2.341-1.736 0-2.184-3.203-1.512-3.203-2.319 0-.302.336-.537.851-.537.661 0 1.277.28 1.602.627l.571-.974a3.456 3.456 0 0 0-2.184-.74c-1.422 0-2.218.796-2.218 1.703 0 2.128 3.215 1.4 3.215 2.296 0 .336-.291.582-.907.582-.672 0-1.479-.37-1.87-.74l-.617.998c.571.526 1.479.84 2.42.84zm4.816-.135v-3.64c.247-.324.684-.638 1.232-.638.616 0 1.008.235 1.008.986v3.292h1.423v-3.841c0-1.053-.571-1.703-1.759-1.703-.884 0-1.556.426-1.904.84v-2.766h-1.422v7.47h1.422zm6.888.135c.594 0 .975-.157 1.188-.347l-.303-1.076c-.078.079-.28.157-.493.157-.313 0-.492-.257-.492-.593v-2.442h1.097v-1.243h-1.097v-1.479h-1.434v1.479h-.896v1.243h.896v2.822c0 .964.538 1.479 1.534 1.479zm3.506 0c.706 0 1.344-.258 1.714-.695v.56h1.422v-3.494c0-1.557-1.131-2.05-2.363-2.05-.851 0-1.703.27-2.363.852l.537.952c.46-.426.997-.639 1.58-.639.716 0 1.187.359 1.187.907v.728c-.359-.425-.997-.66-1.714-.66-.862 0-1.882.481-1.882 1.747 0 1.21 1.02 1.792 1.882 1.792zm.571-.963c-.56 0-1.019-.292-1.019-.796 0-.526.46-.817 1.02-.817.458 0 .906.157 1.142.47v.672c-.236.314-.684.47-1.143.47zm6.194 3.024c1.333 0 2.923-.504 2.923-2.565v-5.04h-1.434v.694c-.436-.549-1.019-.829-1.668-.829-1.367 0-2.386.986-2.386 2.756 0 1.803 1.03 2.755 2.386 2.755.66 0 1.243-.314 1.668-.851v.548c0 1.064-.806 1.367-1.49 1.367-.682 0-1.254-.19-1.69-.672l-.639 1.03c.683.594 1.4.807 2.33.807zm.269-3.495c-.807 0-1.367-.56-1.367-1.49 0-.93.56-1.49 1.367-1.49.47 0 .985.259 1.22.617v1.747c-.235.347-.75.616-1.22.616zm6.014 1.434c1.5 0 2.34-.75 2.34-1.736 0-2.184-3.202-1.512-3.202-2.319 0-.302.336-.537.85-.537.662 0 1.278.28 1.602.627l.572-.974a3.456 3.456 0 0 0-2.184-.74c-1.423 0-2.218.796-2.218 1.703 0 2.128 3.214 1.4 3.214 2.296 0 .336-.29.582-.907.582-.672 0-1.478-.37-1.87-.74l-.616.998c.571.526 1.478.84 2.42.84z" fill="#828CC0" fill-rule="nonzero"/>
        <g transform="translate(39 409.007)">
            <rect fill="#4574EB" width="288" height="38.401" rx="8"/>
            <path d="M110.06 23.973c2.116 0 3.326-1.166 4.017-2.361l-1.757-.85c-.403.792-1.267 1.397-2.26 1.397-1.743 0-3.01-1.34-3.01-3.154 0-1.814 1.267-3.153 3.01-3.153.993 0 1.857.619 2.26 1.396l1.757-.864c-.677-1.195-1.901-2.347-4.018-2.347-2.88 0-5.112 2.016-5.112 4.968s2.232 4.968 5.112 4.968zm7.026-.173v-4.593c.303-.447 1.11-.792 1.714-.792.202 0 .374.014.504.043v-1.786c-.864 0-1.728.504-2.218 1.124v-.95h-1.828V23.8h1.828zm6.624.173c1.08 0 2.175-.33 2.866-.965l-.806-1.18c-.447.432-1.268.69-1.858.69-1.18 0-1.886-.734-2.002-1.612h5.17v-.403c0-2.275-1.411-3.83-3.485-3.83-2.117 0-3.6 1.627-3.6 3.643 0 2.232 1.599 3.657 3.715 3.657zm1.599-4.305h-3.427c.086-.692.576-1.541 1.713-1.541 1.21 0 1.67.878 1.714 1.54zm5.069 4.305c.907 0 1.728-.33 2.203-.893v.72h1.829v-4.492c0-2.002-1.455-2.636-3.039-2.636-1.094 0-2.189.346-3.038 1.095l.691 1.224c.59-.547 1.282-.82 2.03-.82.922 0 1.527.46 1.527 1.165v.936c-.461-.547-1.282-.85-2.203-.85-1.11 0-2.42.62-2.42 2.247 0 1.555 1.31 2.304 2.42 2.304zm.734-1.238c-.72 0-1.31-.375-1.31-1.023 0-.676.59-1.05 1.31-1.05.59 0 1.166.2 1.469.604v.864c-.303.403-.879.605-1.469.605zm7.445 1.238c.763 0 1.253-.201 1.526-.446l-.389-1.383c-.1.101-.36.202-.633.202-.403 0-.634-.331-.634-.763v-3.14h1.411v-1.598h-1.41v-1.9h-1.844v1.9h-1.152v1.599h1.152v3.628c0 1.239.691 1.901 1.973 1.901zm5.803 0c1.08 0 2.174-.33 2.866-.965l-.807-1.18c-.446.432-1.267.69-1.857.69-1.181 0-1.887-.734-2.002-1.612h5.17v-.403c0-2.275-1.412-3.83-3.485-3.83-2.117 0-3.6 1.627-3.6 3.643 0 2.232 1.598 3.657 3.715 3.657zm1.598-4.305h-3.427c.087-.692.576-1.541 1.714-1.541 1.21 0 1.67.878 1.713 1.54zm9.288 4.305c1.93 0 3.01-.965 3.01-2.232 0-2.808-4.118-1.944-4.118-2.98 0-.39.432-.692 1.094-.692.85 0 1.642.36 2.06.807l.734-1.253c-.692-.547-1.628-.95-2.808-.95-1.83 0-2.852 1.022-2.852 2.188 0 2.736 4.133 1.8 4.133 2.952 0 .432-.374.75-1.166.75-.864 0-1.901-.476-2.405-.951l-.792 1.281c.734.677 1.9 1.08 3.11 1.08zm6.696 0c.764 0 1.253-.201 1.527-.446l-.389-1.383c-.1.101-.36.202-.634.202-.403 0-.633-.331-.633-.763v-3.14h1.411v-1.598h-1.411v-1.9h-1.843v1.9h-1.152v1.599h1.152v3.628c0 1.239.69 1.901 1.972 1.901zm5.76 0c2.304 0 3.687-1.67 3.687-3.657 0-1.973-1.383-3.644-3.687-3.644-2.29 0-3.672 1.67-3.672 3.644 0 1.987 1.383 3.657 3.672 3.657zm0-1.627c-1.137 0-1.77-.936-1.77-2.03 0-1.08.633-2.016 1.77-2.016 1.138 0 1.786.936 1.786 2.016 0 1.094-.648 2.03-1.786 2.03zm6.87 1.454v-4.593c.302-.447 1.108-.792 1.713-.792.201 0 .374.014.504.043v-1.786c-.864 0-1.728.504-2.218 1.124v-.95h-1.829V23.8h1.83zm6.623.173c1.08 0 2.175-.33 2.866-.965l-.807-1.18c-.446.432-1.267.69-1.857.69-1.181 0-1.887-.734-2.002-1.612h5.17v-.403c0-2.275-1.411-3.83-3.485-3.83-2.117 0-3.6 1.627-3.6 3.643 0 2.232 1.598 3.657 3.715 3.657zm1.599-4.305h-3.428c.087-.692.576-1.541 1.714-1.541 1.21 0 1.67.878 1.714 1.54z" fill="#FFF" fill-rule="nonzero"/>
        </g>
        <g fill-rule="nonzero">
            <path d="M222.53 68.53c-4.309-5.979-10.622-11.477-18.673-16.125-7.748-4.473-17.104-8.159-27.837-10.73l-3.05 4.298-.016 5.275.021.006-29.49 41.547-.014 5.275 79.043-18.983.015-5.275-.015-.02.015-5.269z" fill="#FEC377"/>
            <path fill="#F91" d="m222.53 73.818-.016 5.275-79.043 18.983.015-5.275z"/>
            <path d="M203.857 57.694c8.05 4.647 14.364 10.145 18.672 16.124L143.486 92.8l32.534-45.838c10.733 2.572 20.089 6.258 27.837 10.73z" fill="#FFEB9A"/>
            <path fill="#F91" d="m222.53 68.53-.016 5.274-7.414 1.781.015-5.275z"/>
            <path d="m215.115 70.31-.015 5.275c-4.238-5.301-10.082-10.181-17.341-14.372-3.74-2.158-7.853-4.134-12.316-5.89l.015-5.274c4.463 1.755 8.577 3.731 12.316 5.89 7.259 4.19 13.103 9.07 17.34 14.371" fill="#FFA834"/>
            <path d="M175.074 46.553c-.695-.198-1.397-.391-2.105-.58l-.015 5.275c.708.189 1.41.382 2.105.58a112.632 112.632 0 0 1 10.384 3.496l.015-5.275a112.632 112.632 0 0 0-10.384-3.496z" fill="#F91"/>
            <path d="M203.857 52.405c8.05 4.648 14.364 10.146 18.672 16.124l-7.414 1.781c-4.238-5.301-10.082-10.181-17.341-14.372-7.009-4.045-15.336-7.449-24.805-9.965l3.051-4.298c10.733 2.571 20.09 6.257 27.837 10.73z" fill="#FEC377"/>
            <g fill="#FF5023">
                <path d="M175.5 61.704c1.726-1.004 2.59-2.317 2.594-3.632l.01-3.206c0 .039-.004.078-.005.116.056-1.37-.82-2.752-2.63-3.797-1.14-.659-2.51-1.101-3.959-1.33l-6.729 9.481-.009 3.206c3.415 1.124 7.828.846 10.727-.838zM195.262 64.772c0 .039-.004.077-.005.115.056-1.37-.82-2.752-2.631-3.798-3.498-2.019-9.152-2.019-12.628.001-1.733 1.007-2.597 2.325-2.595 3.645v-.013l-.01 3.206c-.003 1.332.876 2.666 2.636 3.681 3.499 2.02 9.153 2.02 12.629 0 1.727-1.003 2.591-2.316 2.595-3.631l.009-3.206zM170.745 69.08c0 .04-.003.078-.005.116.057-1.37-.82-2.752-2.63-3.798-1.81-1.044-4.195-1.547-6.559-1.512l-6.193 8.727-.01 3.205.165.1c3.5 2.02 9.153 2.02 12.628 0 1.727-1.003 2.591-2.316 2.595-3.632l.01-3.205zM185.267 75.304c-3.499-2.02-9.153-2.02-12.629 0-1.732 1.006-2.595 2.324-2.593 3.643v-.013l-.01 3.206c-.004 1.332.876 2.666 2.637 3.683.054.031.11.06.165.091l15.052-3.615.002-.11.01-3.205-.003.11c.053-1.368-.823-2.747-2.63-3.79zM160.75 79.612c-2.583-1.491-6.34-1.88-9.53-1.168l-4.914 6.923-.01 3.205c.437.565 1.054 1.095 1.858 1.559.8.462 1.711.816 2.683 1.066l11.958-2.87c.385-.588.578-1.208.58-1.829l.009-3.205v.02c.012-1.339-.866-2.68-2.634-3.701zM209.784 70.995c-3.5-2.02-9.153-2.02-12.63 0-1.731 1.006-2.593 2.324-2.591 3.642v-.014l-.01 3.206c-.003.893.392 1.787 1.182 2.586l16.348-3.926.009-3.206c-.4-.837-1.168-1.63-2.308-2.288z"/>
            </g>
            <path d="m178.103 54.866-.009 3.206c-.003 1.315-.868 2.628-2.595 3.632-2.899 1.684-7.312 1.962-10.727.838l.01-3.206c3.414 1.125 7.827.847 10.726-.838 1.727-1.003 2.592-2.317 2.595-3.632z" fill="#CD2A01"/>
            <path d="M175.468 51.185c3.498 2.019 3.517 5.293.04 7.313-2.899 1.685-7.312 1.963-10.727.838l6.73-9.481c1.447.229 2.817.671 3.957 1.33z" fill="#FF5023"/>
            <path d="m195.262 64.772-.01 3.205c-.003 1.316-.868 2.629-2.594 3.632-3.477 2.02-9.13 2.02-12.63 0-1.76-1.016-2.638-2.35-2.635-3.682l.01-3.205c-.004 1.332.875 2.666 2.635 3.682 3.499 2.02 9.153 2.02 12.629 0 1.726-1.004 2.591-2.317 2.595-3.632z" fill="#CD2A01"/>
            <path d="M192.625 61.09c3.5 2.02 3.518 5.294.041 7.314-3.476 2.02-9.13 2.02-12.628 0-3.498-2.02-3.517-5.294-.04-7.314 3.476-2.02 9.13-2.02 12.627 0z" fill="#FF5023"/>
            <path d="m170.745 69.08-.009 3.206c-.004 1.315-.868 2.629-2.595 3.632-3.475 2.02-9.129 2.02-12.628 0l-.164-.1.01-3.205c.054.033.107.066.164.099 3.499 2.02 9.152 2.02 12.627 0 1.727-1.003 2.592-2.316 2.595-3.631z" fill="#CD2A01"/>
            <path d="M168.109 65.398c3.499 2.02 3.517 5.295.04 7.315-3.474 2.019-9.128 2.019-12.627-.001l-.164-.1 6.193-8.726c2.363-.035 4.749.468 6.558 1.512z" fill="#FF5023"/>
            <g fill="#CD2A01">
                <path d="m187.9 78.984-.01 3.205-.001.11.009-3.206.002-.11z"/>
                <path d="m187.898 79.094-.01 3.205-15.05 3.615.008-3.205z"/>
            </g>
            <path d="m170.035 82.14.01-3.205c-.004 1.332.875 2.666 2.636 3.682.054.032.11.061.165.092l-.009 3.205c-.055-.03-.112-.06-.165-.091-1.761-1.017-2.64-2.35-2.637-3.683z" fill="#FF3502"/>
            <path d="M185.267 75.304c1.808 1.043 2.684 2.422 2.63 3.79l-15.05 3.615c-.056-.03-.112-.06-.166-.092-3.5-2.02-3.518-5.294-.043-7.313 3.476-2.02 9.13-2.02 12.63 0z" fill="#FF5023"/>
            <g fill="#CD2A01">
                <path d="m163.384 83.293-.01 3.205c0 .62-.194 1.24-.58 1.828l.01-3.205c.385-.588.578-1.208.58-1.828z"/>
                <path d="m162.804 85.12-.01 3.206-11.957 2.871.009-3.205z"/>
            </g>
            <path d="m150.846 87.992-.01 3.205c-.97-.25-1.882-.604-2.682-1.066-.804-.464-1.42-.994-1.857-1.559l.009-3.205c.436.565 1.053 1.095 1.857 1.559.8.461 1.712.816 2.683 1.066z" fill="#FF3502"/>
            <path d="M160.75 79.612c2.58 1.49 3.265 3.66 2.054 5.509l-11.958 2.87c-.971-.25-1.883-.604-2.683-1.065-.804-.464-1.42-.994-1.857-1.56l4.914-6.922c3.19-.712 6.947-.323 9.53 1.168z" fill="#FF5023"/>
            <path fill="#CD2A01" d="m212.092 73.283-.01 3.206-16.347 3.926.01-3.205z"/>
            <path d="m194.553 77.829.01-3.205c-.003.893.391 1.787 1.182 2.586l-.01 3.205c-.79-.799-1.184-1.693-1.182-2.586z" fill="#FF3502"/>
            <path d="M209.784 70.995c1.14.658 1.907 1.45 2.307 2.288l-16.347 3.927c-1.953-1.975-1.488-4.53 1.41-6.215 3.477-2.02 9.13-2.02 12.63 0z" fill="#FF5023"/>
        </g>
    </g>
</svg>
