<svg width="315" height="515" viewBox="0 0 315 515" xmlns="http://www.w3.org/2000/svg" xmlns:xlink="http://www.w3.org/1999/xlink">
    <defs>
        <linearGradient x1="0%" y1="52.468%" x2="100%" y2="47.532%" id="a">
            <stop stop-color="#5C45EB" offset="0%"/>
            <stop stop-color="#4574EB" offset="100%"/>
        </linearGradient>
        <filter x="-6.3%" y="-3.3%" width="112.6%" height="108.5%" filterUnits="objectBoundingBox" id="b">
            <feOffset dy="4" in="SourceAlpha" result="shadowOffsetOuter1"/>
            <feGaussianBlur stdDeviation="5.5" in="shadowOffsetOuter1" result="shadowBlurOuter1"/>
            <feColorMatrix values="0 0 0 0 0.168627451 0 0 0 0 0.176470588 0 0 0 0 0.192156863 0 0 0 0.1 0" in="shadowBlurOuter1"/>
        </filter>
        <path d="M0 65.058h292.817v429.094a5.848 5.848 0 0 1-5.848 5.848H5.848A5.848 5.848 0 0 1 0 494.152V65.058z" id="c"/>
    </defs>
    <g fill="none" fill-rule="evenodd">
        <path d="M6.031 0h281.121A5.848 5.848 0 0 1 293 5.848v59.21H.183V5.848A5.848 5.848 0 0 1 6.031 0z" fill="url(#a)" transform="translate(11)"/>
        <path fill-opacity=".1" fill="#2B2D31" d="M11.183 46.784H304v18.275H11.183z"/>
        <path fill-opacity=".1" fill="#2B2D31" d="M11.183 46.784h132.134v18.275H11.183z"/>
        <path d="M28.21 50.44a5.352 5.352 0 0 1 2.118.388c.676.272 1.3.684 1.826 1.206a5.792 5.792 0 0 1 1.251 1.85c.297.695.457 1.456.471 2.22v.06a.72.72 0 0 1-.75.73 5.236 5.236 0 0 1-1.348 2.892 5.081 5.081 0 0 1-1.62 1.172 5.008 5.008 0 0 1-3.932.084 5.194 5.194 0 0 1-1.71-1.127 5.426 5.426 0 0 1-1.175-1.73 5.648 5.648 0 0 1-.082-4.196 5.585 5.585 0 0 1 1.131-1.826 5.435 5.435 0 0 1 1.735-1.25 5.317 5.317 0 0 1 2.085-.473zm0 1.096a4.317 4.317 0 0 0-1.712.304 4.487 4.487 0 0 0-1.482.97c-.428.42-.779.93-1.02 1.493a4.9 4.9 0 0 0-.082 3.636 4.85 4.85 0 0 0 .977 1.588c.424.46.938.834 1.505 1.093a4.662 4.662 0 0 0 3.66.084 4.84 4.84 0 0 0 1.597-1.048 5.06 5.06 0 0 0 1.098-1.612c.158-.367.272-.755.34-1.153a.723.723 0 0 1-.629-.787 4.577 4.577 0 0 0-.284-1.696 4.483 4.483 0 0 0-.9-1.47 4.372 4.372 0 0 0-1.39-1.013 4.28 4.28 0 0 0-1.678-.389z" fill="#FFF"/>
        <path d="m41.11 59.038.368-.991h2.51l.359.991h1.42l-2.254-5.85h-1.561l-2.263 5.85h1.42zm2.535-2.088H41.82l.913-2.517.912 2.517zm4.57 2.088.895-2.886.895 2.886h1.184l1.29-4.237H51.32l-.79 2.851-.929-2.85h-.991l-.93 2.85-.79-2.85h-1.157l1.29 4.236h1.192zm6.018.105c.552 0 1.052-.201 1.342-.544v.439h1.114v-2.737c0-1.22-.886-1.605-1.851-1.605-.667 0-1.333.21-1.85.667l.42.745c.36-.333.78-.5 1.237-.5.561 0 .93.28.93.71v.57c-.28-.332-.78-.517-1.342-.517-.676 0-1.474.378-1.474 1.369 0 .947.798 1.403 1.474 1.403zm.447-.754c-.439 0-.798-.228-.798-.623 0-.412.36-.64.798-.64.36 0 .71.123.895.368v.526c-.184.246-.535.369-.895.369zm3.667-4.044a.666.666 0 0 0 .666-.667.659.659 0 0 0-.666-.658c-.36 0-.667.29-.667.658 0 .369.307.667.667.667zm.561 4.693v-4.237h-1.114v4.237h1.114zm2.526.105c.465 0 .764-.123.93-.272l-.237-.842c-.061.062-.219.123-.386.123-.245 0-.386-.202-.386-.465v-1.912h.86V54.8h-.86v-1.158h-1.122v1.158h-.702v.974h.702v2.21c0 .755.42 1.158 1.201 1.158zm2.097-4.798a.666.666 0 0 0 .667-.667.659.659 0 0 0-.667-.658c-.36 0-.667.29-.667.658 0 .369.307.667.667.667zm.561 4.693v-4.237h-1.114v4.237h1.114zm2.22 0v-2.85c.184-.255.526-.5.965-.5.473 0 .78.2.78.789v2.561h1.114v-2.991c0-.825-.447-1.351-1.377-1.351a1.94 1.94 0 0 0-1.482.658V54.8h-1.114v4.237h1.114zm5.701 1.72c1.044 0 2.29-.395 2.29-2.01v-3.947H73.18v.544c-.342-.43-.798-.65-1.307-.65-1.07 0-1.868.773-1.868 2.159 0 1.412.807 2.158 1.868 2.158.518 0 .974-.246 1.307-.667v.43c0 .833-.632 1.07-1.167 1.07s-.982-.15-1.324-.526l-.5.807c.535.465 1.096.631 1.824.631zm.21-2.738c-.63 0-1.07-.438-1.07-1.166s.44-1.167 1.07-1.167c.37 0 .773.202.957.483v1.368c-.184.272-.588.482-.956.482zm6.703 1.018v-2.079h1.49c1.264 0 1.966-.868 1.966-1.886 0-1.026-.693-1.886-1.965-1.886H77.68v5.851h1.246zm1.324-3.175h-1.324v-1.58h1.324c.491 0 .86.299.86.79 0 .483-.369.79-.86.79zm4.08 3.28c.552 0 1.052-.201 1.341-.544v.439h1.114v-2.737c0-1.22-.886-1.605-1.85-1.605-.667 0-1.334.21-1.851.667l.42.745c.36-.333.781-.5 1.237-.5.562 0 .93.28.93.71v.57c-.28-.332-.78-.517-1.342-.517-.675 0-1.474.378-1.474 1.369 0 .947.799 1.403 1.474 1.403zm.447-.754c-.44 0-.799-.228-.799-.623 0-.412.36-.64.799-.64.36 0 .71.123.894.368v.526c-.184.246-.535.369-.894.369zm3.517 2.368c.728-.017 1.29-.228 1.605-1.026l1.992-4.93h-1.202l-1.105 2.948-1.106-2.948h-1.193l1.72 4.298-.158.36c-.106.228-.299.307-.588.307a.963.963 0 0 1-.35-.07l-.168 1c.14.035.421.061.553.061zm5.21-1.719v-2.85c.167-.238.492-.5.878-.5.456 0 .631.28.631.675v2.675h1.123v-2.86c.158-.228.483-.49.877-.49.457 0 .632.28.632.675v2.675h1.123v-3.061c0-.869-.465-1.281-1.246-1.281-.649 0-1.21.386-1.456.772-.158-.483-.553-.772-1.175-.772-.65 0-1.211.403-1.386.658V54.8H92.39v4.237h1.114zm8.351.105c.658 0 1.325-.201 1.746-.587l-.491-.72c-.272.263-.772.421-1.132.421-.719 0-1.149-.447-1.219-.982h3.15v-.246c0-1.386-.86-2.333-2.124-2.333-1.29 0-2.193.991-2.193 2.22 0 1.359.974 2.227 2.263 2.227zm.974-2.623h-2.088c.053-.42.351-.938 1.044-.938.737 0 1.018.535 1.044.938zm3 2.518v-2.85c.184-.255.526-.5.965-.5.474 0 .78.2.78.789v2.561h1.115v-2.991c0-.825-.448-1.351-1.377-1.351a1.94 1.94 0 0 0-1.483.658V54.8h-1.114v4.237h1.114zm5.386.105c.465 0 .763-.123.93-.272l-.237-.842c-.061.062-.22.123-.386.123-.245 0-.386-.202-.386-.465v-1.912h.86V54.8h-.86v-1.158h-1.123v1.158h-.701v.974h.701v2.21c0 .755.421 1.158 1.202 1.158zm2.114-.008c.386 0 .71-.325.71-.711a.719.719 0 0 0-.71-.71.719.719 0 0 0-.71.71c0 .386.324.71.71.71zm2.246 0c.386 0 .71-.325.71-.711a.719.719 0 0 0-.71-.71.719.719 0 0 0-.71.71c0 .386.324.71.71.71zm2.245 0c.386 0 .71-.325.71-.711a.719.719 0 0 0-.71-.71.719.719 0 0 0-.71.71c0 .386.324.71.71.71zM270.597 58.769v-6.826h-1.27l-2.148 2.16.829.87 1.136-1.157v4.953h1.453zm5.65 0v-1.412h.88v-1.28h-.88v-4.134h-2.007l-2.712 4.268v1.146h3.265v1.412h1.453zm-1.454-2.692h-1.842l1.842-2.845v2.845zm3.899-.665c.45 0 .829-.378.829-.829a.839.839 0 0 0-.829-.829.839.839 0 0 0-.829.83c0 .45.379.828.829.828zm0 3.47c.45 0 .829-.38.829-.83a.839.839 0 0 0-.829-.828.839.839 0 0 0-.829.829c0 .45.379.829.829.829zm6.232-.113v-1.412h.88v-1.28h-.88v-4.134h-2.005l-2.712 4.268v1.146h3.264v1.412h1.453zm-1.453-2.692h-1.842l1.842-2.845v2.845zm5.486 2.815c1.637 0 2.691-.83 2.691-2.006 0-1.023-.9-1.566-1.596-1.637.757-.134 1.494-.696 1.494-1.556 0-1.136-.983-1.852-2.58-1.852-1.197 0-2.056.46-2.609 1.084l.727.911a2.456 2.456 0 0 1 1.73-.706c.716 0 1.268.266 1.268.809 0 .501-.501.726-1.258.726h-.224c-.246 0-.534-.002-.626-.01v1.31c.102-.01.563-.02.85-.02.951 0 1.37.245 1.37.787 0 .512-.46.87-1.289.87-.665 0-1.412-.286-1.883-.777l-.757.972c.502.614 1.433 1.095 2.692 1.095z" fill="#FFF" fill-rule="nonzero"/>
        <path d="M39.51 29.511v2.006c0 .403.159.79.441 1.074a1.5 1.5 0 0 0 .916.437l.149.008h5.735c.802 0 1.504-.583 1.579-1.371l.007-.141v-2.013h2.085v2.008c0 2.021-1.687 3.568-3.671 3.566h-5.735c-1.85.002-3.482-1.54-3.583-3.376l-.005-.185v-2.013h2.083zm4.414-10.318c1.204 0 2.263.337 3.097.981l.188.155-1.14 1.5a3.791 3.791 0 0 0-2.363-.841c-.607 0-.873.244-.873.585 0 1.038 4.57.281 4.57 3.308 0 1.635-1.2 2.721-3.37 2.721-1.534 0-2.632-.45-3.432-1.15l-.157-.143 1.104-1.575a3.642 3.642 0 0 0 2.582 1.074c.715 0 1.152-.28 1.152-.671 0-1.11-4.583-.22-4.583-3.356 0-1.367 1.152-2.588 3.225-2.588zm11.76-.012c2.473 0 4.316 1.733 4.316 4.21 0 2.478-1.843 4.211-4.316 4.211-2.474 0-4.329-1.733-4.329-4.21 0-2.478 1.855-4.21 4.329-4.21zm-28.272.135c1.818 0 2.812 1.232 2.812 2.709 0 1.41-.922 2.605-2.614 2.692l-.198.005h-1.964v2.734h-2.086v-8.14h4.05zm5.831 0v6.31h3.25v1.83h-5.335v-8.14h2.085zm6.268 0v8.14h-2.085v-8.14h2.085zm10.911 0v8.14h-2.085v-8.14h2.085zm5.262 1.72c-1.346 0-2.207 1.026-2.207 2.356 0 1.318.86 2.355 2.207 2.355 1.333 0 2.194-1.037 2.194-2.355 0-1.33-.86-2.356-2.194-2.356zm-28.551.11h-1.685v1.745h1.685c.557 0 .97-.317.97-.866 0-.561-.413-.879-.97-.879zm15.231-9.448h4.387c1.984-.002 3.671 1.544 3.671 3.565v2.009h-2.085v-2.013c0-.858-.736-1.512-1.586-1.512h-5.735c-.4 0-.783.16-1.065.445-.282.284-.44.67-.44 1.073v2.007h-2.083v-2.013c-.002-1.917 1.677-3.563 3.588-3.562l1.348.001zM287.892 23.392l4.09-4.084a1.032 1.032 0 0 0 0-1.46 1.035 1.035 0 0 0-1.461-.001l-4.09 4.083-4.09-4.083a1.036 1.036 0 0 0-1.463 0 1.032 1.032 0 0 0 0 1.461l4.09 4.084-4.09 4.084a1.032 1.032 0 0 0 0 1.461c.404.404 1.06.404 1.463 0l4.09-4.084 4.09 4.084c.404.404 1.059.404 1.463 0a1.032 1.032 0 0 0 0-1.461l-4.092-4.084z" fill="#FFF"/>
        <g transform="translate(11)">
            <use fill="#000" filter="url(#b)" xlink:href="#c"/>
            <use fill="#FFF" xlink:href="#c"/>
        </g>
        <path d="M72.607 97.146v-4.452l3.254 4.452h1.403V90.32H75.81v4.288l-3.162-4.288h-1.494v6.826h1.453zm9.364 0v-2.794l2.61-4.032h-1.658l-1.678 2.743-1.7-2.743h-1.657l2.63 4.032v2.794h1.453zm7.317 0v-2.425h1.74c1.474 0 2.293-1.013 2.293-2.2 0-1.198-.809-2.2-2.293-2.2h-3.193v6.825h1.453zm1.546-3.704h-1.546v-1.843h1.546c.573 0 1.003.348 1.003.921 0 .563-.43.922-1.003.922zm4.001-1.77c.43 0 .778-.349.778-.779a.769.769 0 0 0-.778-.767.775.775 0 0 0-.778.767c0 .43.359.778.778.778zm.655 5.474v-4.943h-1.3v4.943h1.3zm5.107 0V96.01h-2.303l2.262-2.865v-.942h-3.991v1.136h2.23l-2.23 2.835v.972h4.032zm4.902 0V96.01h-2.303l2.262-2.865v-.942h-3.991v1.136h2.23l-2.23 2.835v.972h4.032zm2.487.123c.644 0 1.228-.235 1.566-.634v.511h1.3v-3.193c0-1.422-1.034-1.873-2.16-1.873-.778 0-1.556.246-2.16.778l.492.87a2.08 2.08 0 0 1 1.443-.583c.655 0 1.085.327 1.085.829v.665c-.328-.389-.911-.604-1.566-.604-.788 0-1.72.44-1.72 1.597 0 1.105.932 1.637 1.72 1.637zm.522-.88c-.512 0-.932-.266-.932-.727 0-.48.42-.747.932-.747.42 0 .829.143 1.044.43v.614c-.215.287-.625.43-1.044.43zm11.37-1.167v-1.105h-5.455v1.105h5.455zm6.836 2.047c2.067 0 3.571-1.474 3.571-3.53 0-2.058-1.504-3.531-3.571-3.531-2.057 0-3.562 1.473-3.562 3.53 0 2.057 1.505 3.531 3.562 3.531zm0-1.29c-1.259 0-2.067-.972-2.067-2.24 0-1.28.808-2.242 2.067-2.242 1.259 0 2.077.962 2.077 2.241 0 1.27-.818 2.242-2.077 2.242zm5.864 1.167v-3.264c.215-.318.788-.563 1.218-.563.143 0 .266.01.358.03V92.08c-.614 0-1.228.359-1.576.799v-.676h-1.3v4.943h1.3zm4.257.123c.594 0 1.136-.266 1.525-.757v.634h1.31V90.32h-1.31v2.518a1.904 1.904 0 0 0-1.525-.758c-1.259 0-2.19.983-2.19 2.6 0 1.647.942 2.589 2.19 2.589zm.4-1.156c-.738 0-1.25-.584-1.25-1.433 0-.86.512-1.443 1.25-1.443.44 0 .91.235 1.125.563v1.75c-.215.327-.686.563-1.126.563zm6.048 1.156c.767 0 1.545-.235 2.036-.686l-.573-.839c-.317.307-.9.491-1.32.491-.84 0-1.34-.522-1.423-1.146h3.674v-.286c0-1.617-1.003-2.723-2.476-2.723-1.505 0-2.559 1.157-2.559 2.59 0 1.586 1.136 2.599 2.64 2.599zm1.136-3.06h-2.436c.061-.491.41-1.095 1.218-1.095.86 0 1.187.624 1.218 1.095zm3.5 2.937v-3.264c.214-.318.788-.563 1.217-.563.144 0 .266.01.359.03V92.08c-.615 0-1.229.359-1.576.799v-.676h-1.3v4.943h1.3zm5.894 0 .584-1.73h.972l-.594 1.73h.972l.574-1.73h1.054l.255-.828h-1.033l.563-1.7h1.023l.246-.818h-.993l.594-1.75h-.973l-.573 1.75h-.962l.573-1.75h-.962l-.573 1.75h-1.033l-.256.819h1.003l-.553 1.699h-1.003l-.266.829h.983l-.584 1.73h.962zm1.822-2.558h-.952l.553-1.7h.962l-.563 1.7zm6.498 2.558V90.32h-1.269l-2.149 2.16.83.87 1.135-1.157v4.953h1.453zm3.807.123c1.648 0 2.733-.91 2.733-2.364 0-1.382-1.034-2.21-2.19-2.21-.624 0-1.177.245-1.505.573v-1.669h3.234V90.32h-4.687v3.92l1.013.266c.41-.389.87-.553 1.433-.553.778 0 1.228.41 1.228 1.013 0 .553-.46 1.014-1.269 1.014-.716 0-1.35-.267-1.811-.748l-.809 1.014c.584.634 1.443 1.023 2.63 1.023zm5.783-.01c2.016 0 3.172-1.464 3.172-3.52 0-1.935-.87-3.531-2.937-3.531-1.556 0-2.62 1.013-2.62 2.343 0 1.453 1.105 2.22 2.333 2.22.748 0 1.433-.419 1.76-.88v.154c0 .983-.583 1.924-1.708 1.924-.604 0-.993-.184-1.362-.532l-.644 1.116c.48.43 1.177.706 2.006.706zm.358-3.736c-.635 0-1.259-.307-1.259-1.023 0-.47.43-1.003 1.208-1.003.962 0 1.33.737 1.391 1.392a1.75 1.75 0 0 1-1.34.634zm6.468 3.746c1.555 0 2.61-1.013 2.61-2.344 0-1.453-1.096-2.22-2.324-2.22-.747 0-1.433.42-1.75.88-.01-.051-.01-.092-.01-.143 0-1.085.706-1.935 1.709-1.935.604 0 .993.185 1.361.532l.655-1.115c-.491-.42-1.187-.706-2.016-.706-2.016 0-3.183 1.463-3.183 3.53 0 1.925.87 3.521 2.948 3.521zm-.082-1.29c-.952 0-1.32-.726-1.382-1.381.328-.41.819-.645 1.33-.645.656 0 1.27.307 1.27 1.024 0 .48-.43 1.003-1.218 1.003zm7.982 1.167v-1.412h.88v-1.28h-.88V90.32h-2.006l-2.712 4.268v1.146h3.265v1.412h1.453zm-1.453-2.691h-1.842l1.842-2.845v2.845z" fill="#2B2D31" fill-rule="nonzero"/>
        <g fill-rule="nonzero">
            <path d="M58.583 93.322c-1.955-2.712-4.82-5.206-8.472-7.314-3.515-2.03-7.76-3.701-12.63-4.868l-1.384 1.95-.007 2.393.01.003-13.38 18.846-.007 2.393 35.863-8.61.007-2.394-.007-.009.007-2.39z" fill="#FEC377"/>
            <path fill="#F91" d="m58.583 95.721-.007 2.393-35.863 8.611.006-2.393z"/>
            <path d="M50.11 88.407c3.654 2.108 6.518 4.602 8.473 7.314l-35.864 8.611L37.481 83.54c4.87 1.167 9.114 2.839 12.63 4.868z" fill="#FFEB9A"/>
            <path fill="#F91" d="m58.583 93.322-.007 2.393-3.364.808.007-2.393z"/>
            <path d="m55.219 94.13-.007 2.393c-1.923-2.405-4.574-4.619-7.868-6.52a41.73 41.73 0 0 0-5.588-2.671l.007-2.393a41.755 41.755 0 0 1 5.588 2.672c3.293 1.9 5.945 4.114 7.868 6.519" fill="#FFA834"/>
            <path d="M37.052 83.353c-.316-.09-.634-.177-.955-.263l-.007 2.393a51.11 51.11 0 0 1 5.666 1.849l.007-2.393a51.11 51.11 0 0 0-4.711-1.586z" fill="#F91"/>
            <path d="M50.11 86.008c3.653 2.108 6.518 4.602 8.473 7.314l-3.364.808c-1.923-2.405-4.575-4.618-7.868-6.52-3.18-1.835-6.958-3.378-11.254-4.52l1.384-1.95c4.87 1.167 9.115 2.839 12.63 4.868z" fill="#FEC377"/>
            <g fill="#FF5023">
                <path d="M37.244 90.226c.784-.455 1.176-1.051 1.178-1.648l.004-1.454-.002.053c.026-.622-.372-1.249-1.193-1.723-.518-.298-1.14-.5-1.796-.603l-3.053 4.301-.005 1.454c1.55.51 3.552.384 4.867-.38zM46.211 91.618l-.002.052c.025-.621-.372-1.248-1.194-1.723-1.587-.916-4.152-.916-5.73 0-.785.457-1.177 1.055-1.177 1.654v-.006l-.004 1.454c-.002.605.397 1.21 1.196 1.67 1.587.917 4.152.917 5.73 0 .783-.455 1.175-1.05 1.177-1.647l.004-1.454zM35.088 93.572c0 .018-.002.035-.003.053.026-.622-.372-1.249-1.193-1.723-.821-.474-1.904-.702-2.976-.686l-2.81 3.959-.004 1.454.075.045c1.587.916 4.152.916 5.729 0 .784-.455 1.176-1.05 1.177-1.647l.005-1.455zM41.676 96.395c-1.587-.916-4.152-.916-5.73 0-.785.457-1.177 1.055-1.176 1.653v-.006l-.005 1.454c-.001.604.398 1.21 1.197 1.67.024.015.05.028.075.042l6.829-1.64v-.05l.005-1.454-.001.05c.024-.62-.373-1.245-1.194-1.719zM30.552 98.35c-1.171-.677-2.876-.853-4.323-.53l-2.23 3.14-.004 1.454c.198.256.478.497.843.707.362.21.776.37 1.217.484l5.425-1.303c.175-.266.263-.547.264-.829l.004-1.454v.01c.005-.608-.393-1.216-1.196-1.68zM52.8 94.44c-1.588-.916-4.153-.916-5.73 0-.786.457-1.177 1.055-1.176 1.653v-.006l-.004 1.454c-.002.405.177.81.536 1.173l7.417-1.781.004-1.454c-.182-.38-.53-.74-1.047-1.038z"/>
            </g>
            <path d="m38.426 87.124-.004 1.454c-.002.597-.394 1.193-1.178 1.648-1.315.764-3.317.89-4.867.38l.005-1.454c1.549.51 3.551.384 4.867-.38.783-.455 1.175-1.051 1.177-1.648z" fill="#CD2A01"/>
            <path d="M37.23 85.454c1.588.916 1.596 2.402.019 3.318-1.316.764-3.318.89-4.867.38l3.053-4.301c.657.104 1.278.305 1.796.603z" fill="#FF5023"/>
            <path d="m46.211 91.618-.004 1.454c-.002.596-.394 1.192-1.178 1.647-1.577.917-4.142.917-5.73 0-.798-.46-1.197-1.066-1.195-1.67l.004-1.454c-.002.604.397 1.21 1.196 1.67 1.587.916 4.152.916 5.73 0 .783-.455 1.175-1.05 1.177-1.647z" fill="#CD2A01"/>
            <path d="M45.015 89.947c1.587.916 1.596 2.402.019 3.318-1.578.917-4.143.917-5.73 0-1.587-.916-1.596-2.401-.018-3.317 1.577-.917 4.142-.917 5.729 0z" fill="#FF5023"/>
            <path d="m35.088 93.572-.005 1.454c-.001.597-.393 1.193-1.177 1.648-1.577.916-4.142.916-5.73 0l-.074-.045.004-1.455.075.046c1.587.916 4.153.916 5.73 0 .783-.455 1.175-1.051 1.177-1.648z" fill="#CD2A01"/>
            <path d="M33.891 91.902c1.588.916 1.596 2.402.019 3.318-1.577.916-4.142.916-5.73 0l-.074-.046 2.81-3.958c1.072-.016 2.155.212 2.975.686z" fill="#FF5023"/>
            <g fill="#CD2A01">
                <path d="m42.887 98.064-.006 1.455a.92.92 0 0 1-.001.05l.006-1.455a.827.827 0 0 0 .001-.05zM42.87 98.114l-.004 1.454-6.83 1.64.005-1.454z"/>
            </g>
            <path d="m34.765 99.496.005-1.454c-.002.605.397 1.21 1.196 1.67.024.015.05.028.075.042l-.004 1.454-.075-.041c-.8-.461-1.198-1.066-1.197-1.67z" fill="#FF3502"/>
            <path d="M41.676 96.395c.82.474 1.218 1.099 1.194 1.72l-6.83 1.64c-.024-.015-.05-.028-.074-.042-1.588-.916-1.596-2.402-.02-3.318 1.578-.916 4.143-.916 5.73 0z" fill="#FF5023"/>
            <g fill="#CD2A01">
                <path d="m31.748 100.02-.004 1.453c-.001.282-.089.563-.264.83l.005-1.455c.174-.266.262-.547.263-.829zM31.484 100.848l-.004 1.455-5.425 1.302.004-1.454z"/>
            </g>
            <path d="m26.059 102.15-.004 1.455a4.87 4.87 0 0 1-1.217-.484 2.848 2.848 0 0 1-.843-.707l.004-1.454c.198.256.478.497.843.707.363.21.776.37 1.217.484z" fill="#FF3502"/>
            <path d="M30.552 98.35c1.17.675 1.482 1.66.933 2.498l-5.426 1.303a4.87 4.87 0 0 1-1.217-.484 2.848 2.848 0 0 1-.843-.707l2.23-3.14c1.447-.323 3.152-.147 4.323.53z" fill="#FF5023"/>
            <path fill="#CD2A01" d="m53.847 95.479-.004 1.454-7.417 1.78.004-1.453z"/>
            <path d="m45.89 97.54.004-1.453c-.002.405.177.81.536 1.173l-.004 1.454c-.359-.362-.538-.768-.536-1.173z" fill="#FF3502"/>
            <path d="M52.8 94.44c.517.299.865.659 1.047 1.039l-7.417 1.78c-.886-.895-.675-2.054.64-2.818 1.577-.917 4.142-.917 5.73 0z" fill="#FF5023"/>
        </g>
        <path d="M233.998 98.228c2.5 0 3.631-2.276 3.631-4.54 0-2.263-1.131-4.526-3.631-4.526-2.513 0-3.632 2.263-3.632 4.527 0 2.263 1.119 4.54 3.632 4.54zm0-1.658c-1.263 0-1.737-1.263-1.737-2.881 0-1.619.474-2.869 1.737-2.869 1.25 0 1.724 1.25 1.724 2.869 0 1.618-.474 2.881-1.724 2.881zm5.763 1.645c.579 0 1.066-.487 1.066-1.066 0-.579-.487-1.066-1.066-1.066-.579 0-1.066.487-1.066 1.066 0 .58.487 1.066 1.066 1.066zm5.71.013c2.119 0 3.514-1.171 3.514-3.04 0-1.776-1.33-2.842-2.816-2.842-.803 0-1.513.316-1.934.737V90.94h4.158v-1.645h-6.027v5.04l1.303.341c.526-.5 1.118-.71 1.842-.71 1 0 1.579.526 1.579 1.303 0 .71-.592 1.302-1.632 1.302-.92 0-1.736-.342-2.329-.96l-1.039 1.302c.75.816 1.855 1.316 3.382 1.316zm11.198-.158v-1.645h-3.579c2.276-1.657 3.513-2.96 3.513-4.46 0-1.75-1.487-2.803-3.355-2.803-1.224 0-2.526.448-3.382 1.434l1.066 1.237c.592-.618 1.355-1.013 2.355-1.013.724 0 1.421.382 1.421 1.145 0 1.079-1.052 1.987-4.644 4.645v1.46h6.605zm4.131.145c2.593 0 4.08-1.882 4.08-4.526 0-2.487-1.119-4.54-3.777-4.54-2 0-3.368 1.303-3.368 3.013 0 1.869 1.42 2.856 3 2.856.96 0 1.842-.54 2.263-1.132v.197c0 1.263-.75 2.474-2.198 2.474-.776 0-1.276-.237-1.75-.684l-.828 1.434c.618.553 1.513.908 2.578.908zm.461-4.803c-.816 0-1.618-.394-1.618-1.316 0-.605.552-1.289 1.552-1.289 1.237 0 1.71.947 1.79 1.79a2.25 2.25 0 0 1-1.724.815zm13.895 4.658v-1.645h-3.71v-7.131h-1.87v8.776h5.58zm5.21 0V90.94h2.553v-1.645h-7v1.645h2.566v7.131h1.881zm8 .158c1.934 0 3.04-1.066 3.671-2.158l-1.605-.776c-.368.724-1.158 1.276-2.066 1.276-1.592 0-2.75-1.224-2.75-2.881 0-1.658 1.158-2.882 2.75-2.882.908 0 1.698.566 2.066 1.276l1.605-.79c-.618-1.091-1.737-2.144-3.67-2.144-2.632 0-4.672 1.842-4.672 4.54 0 2.697 2.04 4.54 4.671 4.54z" fill="#2B2D31" fill-rule="nonzero"/>
        <g>
            <path d="M58.034 468.567a5.852 5.852 0 0 0-5.857 5.848 5.852 5.852 0 0 0 5.857 5.848 5.852 5.852 0 0 0 5.856-5.848 5.859 5.859 0 0 0-5.856-5.848zm.676 8.997a.675.675 0 1 1-1.351 0 .675.675 0 0 1 1.35 0zm.916-2.458c-.311.313-.709.527-1.142.614v.045a.45.45 0 0 1-.9 0v-.45a.45.45 0 0 1 .45-.45 1.35 1.35 0 1 0-1.352-1.35.45.45 0 0 1-.9 0 2.254 2.254 0 0 1 4.203-1.125c.51.883.362 1.996-.359 2.716z" fill="#4574EB"/>
            <path d="M71.875 476.898v-2.866H75.1v2.866h1.463v-6.826H75.1v2.68h-3.224v-2.68h-1.453v6.826h1.453zm8.29.122c1.637 0 2.62-1.187 2.62-2.599 0-1.402-.983-2.59-2.62-2.59-1.628 0-2.61 1.188-2.61 2.59 0 1.412.982 2.6 2.61 2.6zm0-1.156c-.809 0-1.26-.665-1.26-1.443 0-.767.451-1.433 1.26-1.433.808 0 1.269.666 1.269 1.433 0 .778-.461 1.443-1.27 1.443zm5.833 1.034 1.044-3.367 1.044 3.367h1.381l1.505-4.943H89.62l-.921 3.326-1.085-3.326h-1.157l-1.084 3.326-.921-3.326h-1.351l1.504 4.943h1.392zm10.111.122c.594 0 1.136-.266 1.525-.757v.635h1.31v-6.826h-1.31v2.517a1.904 1.904 0 0 0-1.525-.757c-1.259 0-2.19.982-2.19 2.6 0 1.647.941 2.588 2.19 2.588zm.4-1.156c-.738 0-1.25-.583-1.25-1.433 0-.86.512-1.443 1.25-1.443.44 0 .91.236 1.125.563v1.75c-.215.328-.686.563-1.126.563zm6.017 1.156c1.637 0 2.62-1.187 2.62-2.599 0-1.402-.983-2.59-2.62-2.59-1.628 0-2.61 1.188-2.61 2.59 0 1.412.982 2.6 2.61 2.6zm0-1.156c-.809 0-1.26-.665-1.26-1.443 0-.767.451-1.433 1.26-1.433.808 0 1.269.666 1.269 1.433 0 .778-.46 1.443-1.27 1.443zm7.685 1.034v-6.826h-1.453v6.826h1.453zm5.24 1.883v-2.518c.4.512.942.757 1.525.757 1.269 0 2.19-.951 2.19-2.599 0-1.648-.921-2.59-2.19-2.59a1.91 1.91 0 0 0-1.525.748v-.624h-1.3v6.826h1.3zm1.116-2.917c-.42 0-.901-.256-1.116-.563v-1.75c.215-.317.696-.563 1.116-.563.747 0 1.248.584 1.248 1.433 0 .86-.501 1.443-1.248 1.443zm4.953 1.156c.645 0 1.228-.235 1.566-.634v.512h1.3v-3.193c0-1.423-1.034-1.873-2.16-1.873-.778 0-1.556.245-2.16.778l.492.87a2.08 2.08 0 0 1 1.443-.584c.655 0 1.085.328 1.085.83v.664c-.328-.389-.911-.603-1.566-.603-.788 0-1.72.44-1.72 1.596 0 1.105.932 1.637 1.72 1.637zm.522-.88c-.512 0-.932-.266-.932-.726 0-.481.42-.747.932-.747.42 0 .829.143 1.044.43v.614c-.215.286-.625.43-1.044.43zm4.104 2.764c.849-.021 1.504-.267 1.872-1.198l2.323-5.751h-1.402l-1.29 3.438-1.289-3.438h-1.391l2.005 5.014-.184.42c-.123.266-.348.358-.685.358-.123 0-.297-.03-.41-.082l-.194 1.167c.164.04.491.072.645.072zm9.057-1.884c.542 0 .89-.143 1.084-.317l-.276-.982c-.072.071-.256.143-.45.143-.287 0-.45-.235-.45-.542v-2.231h1.002v-1.136h-1.003v-1.351h-1.31v1.35h-.818v1.137h.819v2.579c0 .88.49 1.35 1.402 1.35zm3.1-.122v-3.326c.226-.297.625-.584 1.126-.584.563 0 .921.215.921.9v3.01h1.3v-3.51c0-.963-.522-1.556-1.607-1.556-.808 0-1.422.389-1.74.767v-2.527h-1.3v6.826h1.3zm5.281-5.475c.43 0 .778-.348.778-.778a.769.769 0 0 0-.778-.768.775.775 0 0 0-.778.768c0 .43.359.778.778.778zm.655 5.475v-4.943h-1.3v4.943h1.3zm3.07.122c1.372 0 2.14-.685 2.14-1.586 0-1.995-2.928-1.381-2.928-2.118 0-.277.307-.491.778-.491.604 0 1.167.255 1.463.573l.522-.89a3.157 3.157 0 0 0-1.995-.676c-1.3 0-2.027.726-2.027 1.555 0 1.945 2.938 1.28 2.938 2.098 0 .307-.266.533-.83.533-.613 0-1.35-.338-1.708-.676l-.563.91c.522.482 1.35.768 2.21.768zm4.278-2.21 1.116-.328a.618.618 0 0 1-.185-.43c0-.859 1.71-.972 1.71-2.466 0-.951-.81-1.617-2.13-1.617-.88 0-1.698.358-2.24.993l.828.931c.318-.378.748-.634 1.26-.634.562 0 .797.266.797.583 0 .706-1.494.85-1.494 2.067 0 .359.123.666.338.9zm.491 2.2c.45 0 .83-.378.83-.829a.839.839 0 0 0-.83-.829.839.839 0 0 0-.829.83c0 .45.379.828.83.828z" fill="#4574EB" fill-rule="nonzero"/>
            <path d="M195.58 469.642a1.61 1.61 0 0 1 2.669 0l.254.374a45.034 45.034 0 0 1 4.082 7.435l.054.123a1.487 1.487 0 0 1-1.19 2.07 40.556 40.556 0 0 1-9.07 0 1.487 1.487 0 0 1-1.19-2.07l.054-.123a45.033 45.033 0 0 1 4.082-7.435l.254-.374zm1.922 2.963a.59.59 0 0 1-.588.592.59.59 0 0 1-.588-.592.59.59 0 0 1 .588-.592.59.59 0 0 1 .588.592zm-.588 1.628c.244 0 .441.198.441.444v2.959a.442.442 0 0 1-.44.443.442.442 0 0 1-.442-.443v-2.96c0-.245.198-.443.441-.443z" fill="#4574EB"/>
            <path d="M210.739 476.532v-6.826h-1.453v6.826h1.453zm5.24 0v-3.326a1.408 1.408 0 0 1 1.125-.583c.553 0 .911.235.911.92v2.99h1.3v-3.49c0-.963-.522-1.577-1.607-1.577-.808 0-1.412.39-1.73.768v-.645h-1.3v4.943h1.3zm6.948.123c.768 0 1.546-.235 2.037-.686l-.573-.839c-.317.307-.9.491-1.32.491-.84 0-1.341-.522-1.423-1.146h3.674v-.286c0-1.617-1.003-2.723-2.476-2.723-1.505 0-2.559 1.157-2.559 2.59 0 1.586 1.136 2.599 2.64 2.599zm1.136-3.06h-2.435c.061-.491.409-1.095 1.218-1.095.86 0 1.187.624 1.217 1.095zm4.524 3.06c.767 0 1.545-.235 2.036-.686l-.573-.839c-.317.307-.9.491-1.32.491-.84 0-1.34-.522-1.422-1.146h3.673v-.286c0-1.617-1.002-2.723-2.476-2.723-1.505 0-2.559 1.157-2.559 2.59 0 1.586 1.136 2.599 2.64 2.599zm1.136-3.06h-2.436c.061-.491.41-1.095 1.218-1.095.86 0 1.187.624 1.218 1.095zm4.073 3.06c.593 0 1.136-.266 1.525-.757v.634h1.31v-6.826h-1.31v2.518a1.904 1.904 0 0 0-1.525-.758c-1.259 0-2.19.983-2.19 2.6 0 1.647.941 2.589 2.19 2.589zm.399-1.156c-.737 0-1.249-.584-1.249-1.433 0-.86.512-1.443 1.249-1.443.44 0 .91.235 1.126.563v1.75c-.215.327-.686.563-1.126.563zm7.645 1.033v-3.326c.225-.297.624-.583 1.125-.583.563 0 .921.215.921.9v3.01h1.3v-3.511c0-.962-.522-1.556-1.607-1.556-.808 0-1.422.39-1.74.768v-2.528h-1.299v6.826h1.3zm6.959.123c.767 0 1.545-.235 2.036-.686l-.573-.839c-.317.307-.9.491-1.32.491-.84 0-1.34-.522-1.423-1.146h3.674v-.286c0-1.617-1.002-2.723-2.476-2.723-1.505 0-2.559 1.157-2.559 2.59 0 1.586 1.136 2.599 2.64 2.599zm1.136-3.06h-2.436c.061-.491.41-1.095 1.218-1.095.86 0 1.187.624 1.218 1.095zm3.5 2.937v-6.826h-1.3v6.826h1.3zm2.589 1.883v-2.517c.399.511.941.757 1.525.757 1.269 0 2.19-.952 2.19-2.6 0-1.647-.921-2.589-2.19-2.589a1.91 1.91 0 0 0-1.525.747v-.624h-1.3v6.826h1.3zm1.115-2.916c-.42 0-.9-.256-1.115-.563v-1.75c.215-.318.696-.563 1.115-.563.747 0 1.249.583 1.249 1.433 0 .86-.502 1.443-1.249 1.443z" fill="#EB4545" fill-rule="nonzero"/>
        </g>
        <path d="M220.108 241.228c3.88.005 7.023 3.143 7.028 7.018v32.748c-.005 3.874-3.148 7.013-7.028 7.018h-65.591c-3.88-.005-7.023-3.144-7.028-7.018v-32.748c.005-3.875 3.148-7.013 7.028-7.018zm-86.674 32.749v4.678h-4.685a2.342 2.342 0 0 0-2.343 2.34c-.004 3.873-3.147 7.012-7.027 7.017h-14.055v-4.679h14.055a2.342 2.342 0 0 0 2.342-2.339c.005-3.874 3.148-7.013 7.028-7.017h4.685zm9.37 0v7.017c-.004 3.874-3.148 7.013-7.027 7.018h-4.685v-4.679h4.685a2.342 2.342 0 0 0 2.342-2.339v-7.017h4.685zm-49.193 0c3.88.004 7.023 3.143 7.028 7.017v7.018h-4.685v-7.018a2.342 2.342 0 0 0-2.343-2.339h-7.028v-4.678zm-2.343 9.356v4.679h-4.685v-4.679h4.685zm117.315-37.427h-42.54a16.396 16.396 0 0 1-13.869 13.848v9.732a16.396 16.396 0 0 1 13.87 13.847h42.539a16.393 16.393 0 0 1 13.867-13.847v-9.732a16.393 16.393 0 0 1-13.867-13.848zm13.867 28.306a11.74 11.74 0 0 0-9.134 9.121h6.792a2.342 2.342 0 0 0 2.342-2.339zm-70.276 0v6.782a2.342 2.342 0 0 0 2.343 2.34h6.792a11.74 11.74 0 0 0-9.135-9.122zm-35.138-.235v4.678h-11.712v-4.678h11.712zm70.276-23.392c7.759.008 14.048 6.287 14.056 14.035 0 7.75-6.294 14.035-14.056 14.035s-14.055-6.284-14.055-14.035c0-7.75 6.293-14.035 14.055-14.035zm0 4.678c-5.174 0-9.37 4.19-9.37 9.357 0 5.167 4.196 9.357 9.37 9.357 5.173-.006 9.365-4.192 9.37-9.357 0-5.167-4.195-9.357-9.37-9.357zm-96.044-11.696v7.018a2.342 2.342 0 0 0 2.343 2.339c3.88.005 7.023 3.143 7.028 7.018v9.356h-4.685v-9.356a2.342 2.342 0 0 0-2.343-2.34c-3.88-.004-7.023-3.143-7.028-7.017v-7.018h4.685zm0 18.714v7.017h-4.685v-7.017h4.685zm18.74-7.018v14.035h-4.684v-14.035h4.685zm16.398 0v4.679h-4.685a2.342 2.342 0 0 0-2.342 2.339 2.342 2.342 0 0 0 2.342 2.339h21.083v4.678h-21.083c-3.88 0-7.027-3.142-7.027-7.017 0-3.876 3.146-7.018 7.027-7.018h4.685zm16.398 0v4.679h-11.712v-4.679h11.712zm18.505-9.357h-6.792a2.342 2.342 0 0 0-2.343 2.34v6.782a11.74 11.74 0 0 0 9.135-9.122zm58.799 0h-6.792a11.74 11.74 0 0 0 9.134 9.122v-6.782a2.342 2.342 0 0 0-2.342-2.34zm-103.072 0v4.679h-11.712v-4.679h11.712zm16.398 0v4.679h-9.37v-4.679h9.37zm9.37 0v4.679h-4.685v-4.679h4.685zm-30.453-44.444v11.696c-.004 3.874-3.148 7.013-7.027 7.017h-2.343a2.342 2.342 0 0 0-2.342 2.34v25.73h-4.685v-25.73c.004-3.875 3.147-7.013 7.027-7.018h2.343a2.342 2.342 0 0 0 2.342-2.34v-11.695h4.685zm-4.685 23.392c3.88.004 7.023 3.143 7.028 7.017v2.34c-.005 3.874-3.148 7.013-7.028 7.017h-2.342v-4.678h2.342a2.342 2.342 0 0 0 2.343-2.34v-2.339a2.342 2.342 0 0 0-2.343-2.339h-2.342v-4.678zm51.536 7.017v4.679h-14.055a2.342 2.342 0 0 0-2.343 2.339v2.34h-4.685v-2.34c.005-3.874 3.148-7.013 7.028-7.018h14.055zm-18.74-9.356v4.678h-4.685a2.342 2.342 0 0 0-2.343 2.34v11.695h-4.685v-11.696c.005-3.874 3.148-7.013 7.028-7.017h4.685zm-16.398 0v18.713h-4.685v-18.713h4.685zM91.268 234.21v4.678h-4.685v-4.678h4.685zm103.072-11.696v4.678h-9.37a2.342 2.342 0 0 0-2.343 2.34c-.004 3.873-3.147 7.012-7.027 7.017h-2.343v-4.679h2.343a2.342 2.342 0 0 0 2.342-2.339c.005-3.874 3.148-7.013 7.028-7.017h9.37zm-25.768 9.356v4.679h-4.685v-4.679h4.685zm23.426 0v4.679h-4.686v-4.679h4.686zm35.138-9.356v7.017c-.005 3.874-3.148 7.013-7.028 7.018h-21.083v-4.679h21.083a2.342 2.342 0 0 0 2.342-2.339v-7.017h4.686zM102.98 201.462v2.34c-.004 3.873-3.148 7.012-7.027 7.017H93.61a2.342 2.342 0 0 0-2.343 2.339v16.374h-4.685v-16.374c.005-3.874 3.148-7.013 7.028-7.018h2.343a2.342 2.342 0 0 0 2.342-2.339v-2.339h4.685zm70.276 21.053v4.678h-18.74v-4.678h18.74zm30.453-9.357v14.035h-4.685v-14.035h4.685zm-53.878 9.357v4.678h-4.685v-4.678h4.685zm67.933 0v4.678h-9.37v-4.678h9.37zM154.517 203.8v4.679h-11.713a2.342 2.342 0 0 0-2.342 2.339v7.017h-4.685v-7.017c.004-3.875 3.147-7.013 7.027-7.018h11.713zm18.74 7.018v7.017h-4.685v-7.017h4.685zm21.083-7.018v7.018c-.005 3.874-3.148 7.013-7.028 7.017h-9.37v-4.678h9.37a2.342 2.342 0 0 0 2.343-2.34v-7.017h4.685zm-72.619 7.018v7.017h-4.685v-7.017h4.685zm105.415-7.018v7.018c-.005 3.874-3.148 7.013-7.028 7.017h-11.713v-4.678h11.713a2.342 2.342 0 0 0 2.342-2.34v-7.017h4.686zm-96.044-2.339v16.374h-4.686v-16.374h4.686zm23.425 11.696v4.678h-9.37v-4.678h9.37zm2.342-18.714c3.88.005 7.023 3.144 7.028 7.018v16.374h-4.685v-16.374a2.342 2.342 0 0 0-2.343-2.34h-7.027v-4.678zm60.906 9.357v4.679h-4.685V203.8h4.685zm-35.138 0v4.679h-4.685V203.8h4.685zm25.768 0v4.679h-9.37V203.8h9.37zm-35.138-2.339v4.678h-4.685v-4.678h4.685zm-51.536 0v4.678h-4.685v-4.678h4.685zm32.796-16.374v4.678h-7.028a2.342 2.342 0 0 0-2.342 2.34v7.017h-4.685v-7.018c.004-3.874 3.147-7.013 7.027-7.017h7.028zm35.138 0v4.678h-4.685a2.342 2.342 0 0 0-2.343 2.34v7.017h-4.685v-7.018c.005-3.874 3.148-7.013 7.028-7.017h4.685zm2.343 9.356v4.679h-4.686v-4.679h4.686zm16.397-7.017v4.678c-.004 3.875-3.148 7.013-7.027 7.018h-4.685v-4.679h4.685a2.342 2.342 0 0 0 2.342-2.339v-4.678h4.685zm18.74 7.017v4.679H213.08v-4.679h14.056zm-98.386-46.783c3.88.004 7.023 3.143 7.028 7.017v35.088c-.005 3.874-3.148 7.013-7.028 7.018H93.611c-3.88-.005-7.023-3.144-7.028-7.018v-35.088c.005-3.874 3.148-7.013 7.028-7.017zm44.508 39.766v9.357h-4.685v-9.357h4.685zm-44.508-35.088H93.611a2.342 2.342 0 0 0-2.343 2.34v35.087a2.342 2.342 0 0 0 2.343 2.34h35.138a2.342 2.342 0 0 0 2.343-2.34v-35.088a2.342 2.342 0 0 0-2.343-2.339zm98.387 23.392v4.678h-7.028a2.342 2.342 0 0 0-2.343 2.34v7.017h-4.685v-7.017c.005-3.875 3.148-7.013 7.028-7.018h7.028zm-70.277 0c3.88.005 7.023 3.143 7.028 7.018v7.017h-4.685v-7.017a2.342 2.342 0 0 0-2.343-2.34h-7.027v-4.678zm42.166 0v14.035h-4.685v-14.035h4.685zm28.11 9.357v4.678h-4.685v-4.678h4.686zm-105.414-28.07a4.688 4.688 0 0 1 4.685 4.678v21.053a4.688 4.688 0 0 1-4.685 4.678H100.64a4.688 4.688 0 0 1-4.685-4.678v-21.053a4.688 4.688 0 0 1 4.685-4.678zm0 4.678H100.64v21.053h21.085l-.003-21.053zm58.564 14.035v4.678H175.6a2.342 2.342 0 0 0-2.343 2.34h-4.685c.005-3.875 3.148-7.013 7.028-7.018h4.685zm28.11 0v7.018h-4.685v-7.018h4.685zm-63.248 0v4.678h-4.685v-4.678h4.685zm44.508 0v4.678h-4.685v-4.678h4.685zm-35.138-18.713v4.678h-7.028a2.342 2.342 0 0 0-2.342 2.34v7.017h-4.685v-7.018c.004-3.874 3.147-7.013 7.027-7.017h7.028zm9.37 9.356v4.679h-14.055v-4.679h14.055zm53.878 0v4.679h-11.712v-4.679h11.712zm9.37 0v4.679h-4.685v-4.679h4.686zm-44.508-18.713v7.017c-.004 3.875-3.147 7.013-7.027 7.018a2.342 2.342 0 0 0-2.343 2.34v7.017h-4.685v-7.018c.005-3.874 3.148-7.013 7.028-7.017a2.342 2.342 0 0 0 2.342-2.34v-7.017h4.685zm9.37 9.357v7.017c-.004 3.874-3.147 7.013-7.027 7.018h-7.028v-4.679h7.028a2.342 2.342 0 0 0 2.342-2.339v-7.017h4.686zm9.37 9.356v4.679h-4.684v-4.679h4.685zm-37.48-9.356v4.678h-4.685v-4.678h4.685zm53.878 0v4.678h-4.685v-4.678h4.685zm2.343-9.357c3.88.004 7.023 3.143 7.028 7.017v7.018h-4.686v-7.018a2.342 2.342 0 0 0-2.342-2.339h-9.37v-4.678zm-11.713 9.357v4.678h-11.712v-4.678h11.712zm-63.248-9.357v4.678h-4.685v-4.678h4.685zm28.11 0v4.678h-23.425v-4.678h23.425zm18.74 0v4.678h-4.685v-4.678h4.686zm14.056 0v4.678h-9.37v-4.678h9.37z" fill="#A9B0D1"/>
        <path d="M64.184 314.175v-7.315h2.599v-.925h-6.225v.925h2.598v7.315h1.028zm5.99.103c1.64 0 2.748-1.182 2.748-3.072 0-1.896-1.108-3.073-2.747-3.073-1.645 0-2.753 1.177-2.753 3.073 0 1.89 1.108 3.072 2.753 3.072zm0-.874c-1.05 0-1.74-.8-1.74-2.198 0-1.4.69-2.199 1.74-2.199 1.052 0 1.737.8 1.737 2.199 0 1.399-.685 2.198-1.736 2.198zm8.596.874c1.348 0 2.341-.834 2.495-2.016h-.976c-.171.714-.703 1.142-1.514 1.142-1.027 0-1.736-.816-1.736-2.198 0-1.348.697-2.199 1.725-2.199.874 0 1.376.531 1.52 1.177h.97c-.126-1.068-1.01-2.05-2.496-2.05-1.639 0-2.73 1.199-2.73 3.072 0 1.913 1.097 3.072 2.742 3.072zm5.87 0c1.64 0 2.748-1.182 2.748-3.072 0-1.896-1.108-3.073-2.747-3.073-1.645 0-2.753 1.177-2.753 3.073 0 1.89 1.108 3.072 2.753 3.072zm0-.874c-1.05 0-1.741-.8-1.741-2.198 0-1.4.69-2.199 1.742-2.199 1.05 0 1.736.8 1.736 2.199 0 1.399-.686 2.198-1.736 2.198zm4.74.771v-3.723c0-.822.572-1.44 1.36-1.44.737 0 1.216.47 1.216 1.183v3.98h.994v-3.774c0-.806.554-1.388 1.342-1.388.782 0 1.234.48 1.234 1.29v3.872h.993v-4.1c0-1.176-.76-1.942-1.936-1.942-.834 0-1.53.423-1.862 1.131H92.7c-.257-.72-.857-1.13-1.668-1.13-.8 0-1.405.422-1.685 1.05h-.022v-.948h-.937v5.94h.994zm9.395 1.982v-2.947h.023c.354.651 1.04 1.068 1.89 1.068 1.496 0 2.519-1.21 2.519-3.072s-1.028-3.073-2.542-3.073c-.862 0-1.553.44-1.919 1.108h-.022v-1.005h-.943v7.921h.994zm1.696-2.753c-1.016 0-1.702-.873-1.702-2.198 0-1.32.686-2.199 1.702-2.199 1.057 0 1.72.857 1.72 2.199 0 1.348-.663 2.198-1.72 2.198zm4.78.771v-8.24h-.994v8.24h.994zm3.787.103c1.296 0 2.301-.765 2.472-1.804h-.976c-.166.56-.72.942-1.474.942-1.068 0-1.736-.748-1.736-1.885v-.057h4.26v-.377c0-1.799-.987-2.964-2.592-2.964-1.64 0-2.69 1.251-2.69 3.096 0 1.867 1.034 3.05 2.736 3.05zm1.519-3.58h-3.227c.063-.988.714-1.702 1.645-1.702.936 0 1.559.708 1.582 1.702zm3.86 3.523c.234 0 .508-.017.628-.046v-.833a3.866 3.866 0 0 1-.41.028c-.51 0-.738-.245-.738-.788v-3.53h1.154v-.816h-1.154v-1.433h-.993v1.433h-.885v.817h.885v3.58c0 1.143.422 1.588 1.513 1.588zm4.135.057c1.296 0 2.301-.765 2.473-1.804h-.977c-.166.56-.72.942-1.473.942-1.068 0-1.736-.748-1.736-1.885v-.057h4.26v-.377c0-1.799-.988-2.964-2.593-2.964-1.639 0-2.69 1.251-2.69 3.096 0 1.867 1.034 3.05 2.736 3.05zm1.519-3.58h-3.227c.063-.988.714-1.702 1.645-1.702.937 0 1.56.708 1.582 1.702zm4.923 5.699c1.073 0 1.565-.417 2.073-1.805l2.336-6.356h-1.046l-1.644 4.946h-.017l-1.645-4.946h-1.062l2.193 5.945-.137.417c-.229.691-.537.96-1.091.96-.126 0-.28-.006-.389-.03v.835c.109.023.309.034.429.034zm7.652-2.119c1.64 0 2.747-1.182 2.747-3.072 0-1.896-1.108-3.073-2.747-3.073-1.644 0-2.752 1.177-2.752 3.073 0 1.89 1.108 3.072 2.752 3.072zm0-.874c-1.05 0-1.741-.8-1.741-2.198 0-1.4.69-2.199 1.741-2.199 1.051 0 1.736.8 1.736 2.199 0 1.399-.685 2.198-1.736 2.198zm5.774.874c.914 0 1.53-.382 1.885-1.068h.022v.965h.943v-5.939h-.994v3.49c0 1.01-.582 1.673-1.548 1.673-.919 0-1.37-.52-1.37-1.485v-3.678h-.994v3.855c0 1.348.76 2.187 2.056 2.187zm5.128-.103v-3.7c0-.84.503-1.394 1.274-1.394a2 2 0 0 1 .531.057v-.965c-.08-.011-.228-.04-.4-.04-.696 0-1.245.417-1.439 1.074h-.023v-.97h-.936v5.938h.993zm6.003 1.982v-2.947h.022c.354.651 1.04 1.068 1.89 1.068 1.497 0 2.52-1.21 2.52-3.072s-1.029-3.073-2.542-3.073c-.862 0-1.553.44-1.919 1.108h-.023v-1.005h-.942v7.921h.994zm1.696-2.753c-1.017 0-1.702-.873-1.702-2.198 0-1.32.685-2.199 1.702-2.199 1.056 0 1.719.857 1.719 2.199 0 1.348-.663 2.198-1.72 2.198zm5.47.874c.8 0 1.554-.445 1.908-1.125h.023v1.022h.942v-4.106c0-1.182-.88-1.936-2.273-1.936-1.404 0-2.284.788-2.353 1.816h.96c.126-.582.605-.942 1.37-.942.823 0 1.303.434 1.303 1.16v.496l-1.702.097c-1.37.08-2.153.72-2.153 1.736 0 1.068.794 1.782 1.976 1.782zm.223-.845c-.713 0-1.187-.371-1.187-.937 0-.56.456-.913 1.256-.965l1.588-.097v.486c0 .856-.72 1.513-1.657 1.513zm4.41 2.964c1.073 0 1.564-.417 2.072-1.805l2.336-6.356h-1.045l-1.645 4.946h-.017l-1.645-4.946h-1.062l2.193 5.945-.137.417c-.228.691-.537.96-1.09.96-.126 0-.28-.006-.389-.03v.835c.108.023.308.034.428.034zm6.184-2.222v-3.723c0-.822.571-1.44 1.36-1.44.736 0 1.216.47 1.216 1.183v3.98h.993v-3.774c0-.806.554-1.388 1.343-1.388.782 0 1.233.48 1.233 1.29v3.872h.994v-4.1c0-1.176-.76-1.942-1.936-1.942-.834 0-1.53.423-1.862 1.131h-.023c-.257-.72-.856-1.13-1.667-1.13-.8 0-1.405.422-1.685 1.05h-.023v-.948h-.937v5.94h.994zm10.845.103c1.297 0 2.302-.765 2.473-1.804h-.977c-.165.56-.72.942-1.473.942-1.068 0-1.736-.748-1.736-1.885v-.057h4.26v-.377c0-1.799-.988-2.964-2.593-2.964-1.639 0-2.69 1.251-2.69 3.096 0 1.867 1.034 3.05 2.736 3.05zm1.52-3.58h-3.227c.062-.988.713-1.702 1.644-1.702.937 0 1.56.708 1.582 1.702zm3.02 3.477v-3.495c0-1.005.611-1.667 1.548-1.667.914 0 1.365.525 1.365 1.485v3.677h.994v-3.854c0-1.348-.754-2.188-2.056-2.188-.92 0-1.554.411-1.885 1.051h-.023v-.948h-.936v5.94h.993zm7.002.046c.234 0 .508-.017.628-.046v-.833a3.866 3.866 0 0 1-.411.028c-.508 0-.737-.245-.737-.788v-3.53h1.154v-.816H189.4v-1.433h-.994v1.433h-.885v.817h.885v3.58c0 1.143.423 1.588 1.514 1.588zm2.37 1.593.782-2.906h-1.056l-.554 2.906h.828zm5.682.343v-2.947h.023c.354.651 1.04 1.068 1.89 1.068 1.497 0 2.519-1.21 2.519-3.072s-1.028-3.073-2.541-3.073c-.863 0-1.554.44-1.92 1.108h-.022v-1.005h-.942v7.921h.993zm1.696-2.753c-1.016 0-1.701-.873-1.701-2.198 0-1.32.685-2.199 1.701-2.199 1.057 0 1.72.857 1.72 2.199 0 1.348-.663 2.198-1.72 2.198zm4.78.771v-8.24h-.993v8.24h.993zm3.787.103c1.296 0 2.301-.765 2.473-1.804h-.977c-.166.56-.72.942-1.473.942-1.068 0-1.737-.748-1.737-1.885v-.057h4.26v-.377c0-1.799-.987-2.964-2.592-2.964-1.639 0-2.69 1.251-2.69 3.096 0 1.867 1.034 3.05 2.736 3.05zm1.519-3.58h-3.227c.063-.988.714-1.702 1.645-1.702.936 0 1.559.708 1.582 1.702zm3.763 3.58c.8 0 1.554-.445 1.908-1.125h.023v1.022h.942v-4.106c0-1.182-.88-1.936-2.273-1.936-1.405 0-2.284.788-2.353 1.816h.96c.125-.582.605-.942 1.37-.942.822 0 1.302.434 1.302 1.16v.496l-1.702.097c-1.37.08-2.153.72-2.153 1.736 0 1.068.794 1.782 1.976 1.782zm.223-.845c-.714 0-1.188-.371-1.188-.937 0-.56.457-.913 1.257-.965l1.587-.097v.486c0 .856-.72 1.513-1.656 1.513zm6.025.845c1.325 0 2.301-.73 2.301-1.764 0-.851-.434-1.32-1.633-1.61l-.942-.23c-.663-.16-.965-.44-.965-.85 0-.52.48-.88 1.205-.88.73 0 1.188.383 1.262 1.005h.948c-.04-1.05-.908-1.816-2.21-1.816-1.285 0-2.182.726-2.182 1.742 0 .857.543 1.376 1.662 1.645l.942.228c.68.166.914.411.914.84 0 .537-.497.88-1.302.88s-1.262-.326-1.382-1.006h-.994c.114 1.114.983 1.816 2.376 1.816zm5.774 0c1.296 0 2.301-.765 2.473-1.804h-.977c-.166.56-.72.942-1.473.942-1.068 0-1.737-.748-1.737-1.885v-.057h4.26v-.377c0-1.799-.987-2.964-2.592-2.964-1.639 0-2.69 1.251-2.69 3.096 0 1.867 1.034 3.05 2.736 3.05zm1.519-3.58h-3.227c.063-.988.714-1.702 1.645-1.702.936 0 1.559.708 1.582 1.702zm6.539 3.58c1.325 0 2.301-.73 2.301-1.764 0-.851-.434-1.32-1.633-1.61l-.942-.23c-.663-.16-.965-.44-.965-.85 0-.52.48-.88 1.204-.88.731 0 1.188.383 1.263 1.005h.948c-.04-1.05-.908-1.816-2.21-1.816-1.285 0-2.182.726-2.182 1.742 0 .857.542 1.376 1.662 1.645l.942.228c.68.166.914.411.914.84 0 .537-.497.88-1.302.88s-1.262-.326-1.382-1.006h-.994c.114 1.114.982 1.816 2.376 1.816zm5.773 0c1.297 0 2.302-.765 2.473-1.804h-.976c-.166.56-.72.942-1.474.942-1.068 0-1.736-.748-1.736-1.885v-.057h4.26v-.377c0-1.799-.987-2.964-2.592-2.964-1.64 0-2.69 1.251-2.69 3.096 0 1.867 1.034 3.05 2.735 3.05zm1.52-3.58h-3.227c.063-.988.714-1.702 1.645-1.702.936 0 1.559.708 1.582 1.702zm3.02 3.477v-3.495c0-1.005.612-1.667 1.548-1.667.914 0 1.365.525 1.365 1.485v3.677h.994v-3.854c0-1.348-.754-2.188-2.056-2.188-.92 0-1.553.411-1.885 1.051h-.022v-.948h-.937v5.94h.994zm7.42.103c.856 0 1.535-.422 1.918-1.108h.017v1.005h.948v-8.24h-.994v3.266h-.022c-.355-.65-1.04-1.068-1.89-1.068-1.497 0-2.52 1.211-2.52 3.073 0 1.862 1.029 3.072 2.542 3.072zm.188-.874c-1.051 0-1.714-.85-1.714-2.198 0-1.342.663-2.199 1.714-2.199 1.022 0 1.707.874 1.707 2.199 0 1.33-.685 2.198-1.707 2.198zM80.78 334.78c1.919 0 3.027-1.662 3.027-4.266 0-2.587-1.114-4.249-3.027-4.249s-3.038 1.674-3.038 4.255c0 2.604 1.113 4.26 3.038 4.26zm0-.896c-1.29 0-2.005-1.314-2.005-3.37 0-2.01.731-3.346 2.005-3.346s1.993 1.325 1.993 3.352c0 2.056-.708 3.364-1.993 3.364zm5.026.816a.644.644 0 0 0 .65-.65.644.644 0 0 0-.65-.652.644.644 0 0 0-.651.651c0 .366.285.651.65.651zm4.985.08c1.72 0 2.936-1.159 2.936-2.815 0-1.582-1.143-2.73-2.724-2.73-.8 0-1.485.297-1.874.851h-.023l.28-2.77h3.872v-.914h-4.717l-.422 4.7h.908c.382-.662 1.01-.982 1.793-.982 1.096 0 1.879.783 1.879 1.873 0 1.108-.777 1.885-1.896 1.885-.988 0-1.736-.605-1.828-1.485h-1.01c.085 1.405 1.25 2.387 2.826 2.387zm9.446-.137v-.913h-4.026v-.023l1.959-2.01c1.513-1.554 1.93-2.234 1.93-3.142 0-1.25-1.05-2.29-2.576-2.29-1.587 0-2.775 1.074-2.775 2.519h.994c0-.925.765-1.622 1.781-1.622.943 0 1.548.645 1.548 1.456 0 .686-.257 1.131-1.37 2.29l-2.902 3.027v.708h5.437zm3.803.137c2.016 0 3.193-1.622 3.193-4.397 0-3.124-1.656-4.123-3.13-4.123-1.69 0-2.918 1.188-2.918 2.815 0 1.565 1.165 2.724 2.736 2.724 1.05 0 1.953-.53 2.301-1.348h.017c-.028 2.188-.788 3.433-2.187 3.433-.857 0-1.502-.394-1.73-1.154h-1.046c.24 1.24 1.342 2.05 2.764 2.05zm.058-3.883c-1.08 0-1.874-.782-1.874-1.856 0-1.034.834-1.856 1.89-1.856 1.063 0 1.885.828 1.885 1.884 0 1.051-.81 1.828-1.901 1.828zm11.855 3.746v-.925h-3.974v-7.316h-1.028v8.241h5.002zm4.244 0v-7.315h2.598v-.926h-6.225v.926h2.599v7.315h1.028zm7.075.137c1.822 0 3.044-.908 3.421-2.535h-1.04c-.296 1.005-1.164 1.587-2.375 1.587-1.628 0-2.661-1.29-2.661-3.312 0-2.005 1.045-3.307 2.655-3.307 1.177 0 2.12.709 2.382 1.788h1.04c-.263-1.645-1.628-2.736-3.422-2.736-2.255 0-3.712 1.668-3.712 4.255 0 2.61 1.44 4.26 3.712 4.26zm8.71-.091c.234 0 .508-.017.628-.046v-.834a3.867 3.867 0 0 1-.411.029c-.509 0-.737-.246-.737-.788v-3.53h1.153v-.816h-1.153v-1.433h-.994v1.433h-.885v.817h.885v3.58c0 1.143.423 1.588 1.513 1.588zm4.151.057c1.64 0 2.747-1.182 2.747-3.072 0-1.896-1.108-3.073-2.747-3.073-1.644 0-2.752 1.177-2.752 3.073 0 1.89 1.108 3.072 2.752 3.072zm0-.874c-1.05 0-1.742-.8-1.742-2.198 0-1.4.692-2.2 1.742-2.2 1.051 0 1.736.8 1.736 2.2 0 1.399-.685 2.198-1.736 2.198zm7.978.817c.235 0 .509-.017.629-.046v-.834a3.867 3.867 0 0 1-.412.029c-.508 0-.736-.246-.736-.788v-3.53h1.153v-.816h-1.153v-1.433h-.994v1.433h-.885v.817h.885v3.58c0 1.143.423 1.588 1.513 1.588zm2.736-.046v-3.46c0-1.028.611-1.702 1.599-1.702.93 0 1.405.565 1.405 1.507v3.655h.994v-3.837c0-1.325-.789-2.205-2.09-2.205-.903 0-1.554.388-1.885 1.051h-.023v-3.25h-.994v8.241h.994zm7.704.103c1.296 0 2.301-.765 2.473-1.805h-.977c-.165.56-.72.943-1.473.943-1.068 0-1.736-.748-1.736-1.885v-.057h4.26v-.377c0-1.799-.988-2.964-2.593-2.964-1.639 0-2.69 1.25-2.69 3.095 0 1.868 1.034 3.05 2.736 3.05zm1.519-3.58h-3.227c.063-.989.714-1.703 1.645-1.703.937 0 1.56.709 1.582 1.702zm6.162 3.58c.8 0 1.553-.445 1.908-1.125h.022v1.022h.943v-4.106c0-1.182-.88-1.936-2.273-1.936-1.405 0-2.285.788-2.353 1.816h.96c.125-.582.605-.942 1.37-.942.822 0 1.302.434 1.302 1.16v.496l-1.702.097c-1.37.08-2.153.72-2.153 1.736 0 1.068.794 1.782 1.976 1.782zm.223-.845c-.714 0-1.188-.371-1.188-.937 0-.56.457-.913 1.256-.965l1.588-.097v.485c0 .857-.72 1.514-1.656 1.514zm6.162.845c.856 0 1.536-.423 1.919-1.108h.017v1.005h.948v-8.24h-.994v3.266h-.023c-.354-.651-1.04-1.068-1.89-1.068-1.496 0-2.518 1.21-2.518 3.073 0 1.861 1.027 3.072 2.54 3.072zm.188-.874c-1.05 0-1.713-.85-1.713-2.198 0-1.342.663-2.2 1.713-2.2 1.023 0 1.708.875 1.708 2.2 0 1.33-.685 2.198-1.708 2.198zm6.288.874c.857 0 1.536-.423 1.919-1.108h.017v1.005h.948v-8.24h-.994v3.266h-.023c-.354-.651-1.039-1.068-1.89-1.068-1.496 0-2.518 1.21-2.518 3.073 0 1.861 1.028 3.072 2.541 3.072zm.188-.874c-1.05 0-1.713-.85-1.713-2.198 0-1.342.663-2.2 1.713-2.2 1.023 0 1.708.875 1.708 2.2 0 1.33-.685 2.198-1.708 2.198zm5.032.771v-3.7c0-.84.502-1.394 1.273-1.394a2 2 0 0 1 .531.057v-.965c-.08-.011-.228-.04-.4-.04-.696 0-1.244.417-1.438 1.074h-.023v-.971h-.937v5.94h.994zm5.054.103c1.296 0 2.301-.765 2.473-1.805h-.977c-.165.56-.72.943-1.473.943-1.068 0-1.736-.748-1.736-1.885v-.057h4.26v-.377c0-1.799-.988-2.964-2.593-2.964-1.639 0-2.69 1.25-2.69 3.095 0 1.868 1.034 3.05 2.736 3.05zm1.519-3.58h-3.227c.063-.989.714-1.703 1.645-1.703.937 0 1.56.709 1.582 1.702zm4.14 3.58c1.325 0 2.302-.73 2.302-1.765 0-.85-.434-1.319-1.633-1.61l-.943-.229c-.662-.16-.965-.44-.965-.85 0-.52.48-.88 1.205-.88.731 0 1.188.383 1.262 1.005h.948c-.04-1.05-.908-1.816-2.21-1.816-1.285 0-2.181.725-2.181 1.742 0 .857.542 1.376 1.661 1.645l.943.228c.68.166.913.411.913.84 0 .536-.496.88-1.302.88-.805 0-1.262-.326-1.382-1.006h-.993c.114 1.114.982 1.816 2.375 1.816zm5.443 0c1.325 0 2.301-.73 2.301-1.765 0-.85-.434-1.319-1.633-1.61l-.942-.229c-.663-.16-.965-.44-.965-.85 0-.52.48-.88 1.205-.88.73 0 1.187.383 1.262 1.005h.948c-.04-1.05-.908-1.816-2.21-1.816-1.285 0-2.182.725-2.182 1.742 0 .857.543 1.376 1.662 1.645l.942.228c.68.166.914.411.914.84 0 .536-.497.88-1.302.88s-1.262-.326-1.382-1.006h-.994c.114 1.114.982 1.816 2.376 1.816zm8.68 0c1.52 0 2.525-1.205 2.525-3.072 0-1.862-1.011-3.073-2.507-3.073-.84 0-1.53.417-1.902 1.097h-.023v-3.296h-.994v8.241h.948v-1.005h.023c.383.685 1.062 1.108 1.93 1.108zm-.194-.874c-1.005 0-1.719-.873-1.719-2.198 0-1.32.714-2.2 1.72-2.2 1.05 0 1.701.852 1.701 2.2 0 1.359-.65 2.198-1.702 2.198zm6.168.874c1.296 0 2.302-.765 2.473-1.805h-.977c-.165.56-.72.943-1.473.943-1.068 0-1.736-.748-1.736-1.885v-.057h4.26v-.377c0-1.799-.988-2.964-2.593-2.964-1.639 0-2.69 1.25-2.69 3.095 0 1.868 1.034 3.05 2.736 3.05zm1.52-3.58h-3.228c.063-.989.714-1.703 1.645-1.703.937 0 1.56.709 1.582 1.702zm3.072 3.477v-8.24h-.994v8.24h.994zm3.803.103c1.64 0 2.747-1.182 2.747-3.072 0-1.896-1.108-3.073-2.747-3.073-1.645 0-2.753 1.177-2.753 3.073 0 1.89 1.108 3.072 2.753 3.072zm0-.874c-1.05 0-1.742-.8-1.742-2.198 0-1.4.691-2.2 1.742-2.2 1.05 0 1.736.8 1.736 2.2 0 1.399-.685 2.198-1.736 2.198zm5.934.771 1.336-4.597h.023l1.342 4.597h1.01l1.657-5.94h-.982l-1.188 4.832h-.023l-1.348-4.831h-.96l-1.341 4.831h-.023l-1.188-4.831h-.988l1.662 5.94h1.01zm7.018-4.546a.644.644 0 0 0 .651-.65.644.644 0 0 0-.65-.652.644.644 0 0 0-.652.651c0 .366.286.651.651.651zm0 4.603a.644.644 0 0 0 .651-.65.644.644 0 0 0-.65-.652.644.644 0 0 0-.652.651c0 .366.286.651.651.651z" fill="#828CC0" fill-rule="nonzero"/>
        <path d="M44.834 362.96v-7.802h-1.45l-2.457 2.468.948.994 1.298-1.322v5.661h1.66zm3.204 0v-3.229h3.778v-1.462h-3.778v-1.65h3.86v-1.461h-5.52v7.801h1.66zm8.281 0v-7.802h-1.45l-2.456 2.468.947.994 1.298-1.322v5.661h1.661zm3.404.14c.62 0 1.017-.164 1.24-.363l-.316-1.123c-.082.082-.293.164-.515.164-.328 0-.515-.27-.515-.62v-2.55h1.146v-1.298h-1.146v-1.544H58.12v1.544h-.935v1.298h.935v2.948c0 1.005.562 1.543 1.603 1.543zm3.157-.14.492-1.323h3.345l.48 1.322h1.894l-3.006-7.801h-2.082l-3.017 7.801h1.894zm3.38-2.785h-2.432l1.216-3.356 1.217 3.356zm5.123 2.924c.737 0 1.404-.269 1.79-.725v.585h1.485v-3.65c0-1.625-1.181-2.14-2.468-2.14-.888 0-1.777.281-2.467.89l.561.994c.48-.445 1.04-.667 1.65-.667.748 0 1.239.374 1.239.947v.76c-.374-.444-1.041-.69-1.79-.69-.9 0-1.965.503-1.965 1.825 0 1.263 1.065 1.871 1.965 1.871zm.597-1.005c-.585 0-1.064-.305-1.064-.83 0-.55.48-.855 1.064-.855.48 0 .947.164 1.193.492v.701c-.246.328-.714.492-1.193.492zm8.514.865v-1.298h-2.631l2.585-3.275v-1.076h-4.562v1.298h2.55l-2.55 3.24v1.111h4.608zm4.082.14c1.883 0 3.123-1.04 3.123-2.701 0-1.58-1.181-2.527-2.503-2.527-.713 0-1.345.281-1.72.655v-1.906h3.697v-1.462h-5.357v4.48l1.158.304c.468-.445.994-.632 1.637-.632.89 0 1.404.468 1.404 1.158 0 .631-.526 1.158-1.45 1.158-.819 0-1.544-.304-2.07-.854l-.924 1.158c.666.725 1.649 1.17 3.005 1.17zm5.182-.14 1.298-1.906 1.286 1.906h1.661l-2.023-2.9 1.895-2.75h-1.661l-1.158 1.744-1.17-1.743h-1.66l1.883 2.748-2 2.901h1.649zm8.28 0v-7.801h-1.45l-2.456 2.468.947.994 1.299-1.322v5.661h1.66zm3.205 0v-3.275h3.684v3.275h1.673v-7.801h-1.673v3.064h-3.684v-3.064h-1.66v7.801h1.66zm10.41.14c2.374 0 3.52-1.321 3.52-3.263v-4.678h-1.696v4.631c0 1.088-.62 1.837-1.825 1.837-1.204 0-1.836-.749-1.836-1.837v-4.631h-1.684v4.69c0 1.918 1.146 3.251 3.52 3.251zm6.222-.14 1.965-2.854 1.953 2.854h1.988l-2.83-4.012 2.655-3.79h-2l-1.766 2.668-1.79-2.667h-1.977l2.655 3.801-2.83 4h1.977zm8.093 0v-3.73c.246-.364.9-.644 1.392-.644.164 0 .304.011.41.035v-1.45c-.702 0-1.404.409-1.802.912v-.772h-1.485v5.65h1.485zm6.538.14c1.72 0 2.702-.947 3.263-1.918l-1.427-.69a2.092 2.092 0 0 1-1.836 1.135c-1.415 0-2.444-1.088-2.444-2.562 0-1.473 1.029-2.561 2.444-2.561.807 0 1.509.503 1.836 1.134l1.427-.701c-.55-.971-1.544-1.907-3.263-1.907-2.339 0-4.152 1.638-4.152 4.035 0 2.398 1.813 4.035 4.152 4.035zm5.918-.14v-5.088l3.72 5.088h1.602v-7.801h-1.66v4.9l-3.615-4.9h-1.708v7.801h1.661zm11.825 0v-1.462h-3.298v-6.34h-1.661v7.802h4.959zm4.35.14c1.428 0 2.504-1.076 2.504-2.959 0-1.848-1.065-2.97-2.503-2.97-.667 0-1.298.292-1.743.865v-2.877h-1.485v7.801h1.485v-.725c.445.561 1.064.865 1.743.865zm-.467-1.321c-.48 0-1.03-.27-1.275-.632v-2c.246-.374.795-.655 1.275-.655.865 0 1.439.667 1.439 1.65 0 .982-.574 1.637-1.44 1.637zm5.988 1.321c.62 0 1.018-.163 1.24-.362l-.316-1.123c-.082.082-.292.164-.514.164-.328 0-.515-.27-.515-.62v-2.55h1.146v-1.298h-1.146v-1.544h-1.497v1.544h-.936v1.298h.936v2.948c0 1.005.561 1.543 1.602 1.543zm3.755-.14v-5.462l2.198 5.462h.726l2.198-5.462v5.462h1.673v-7.801h-2.34l-1.894 4.713-1.895-4.713h-2.327v7.801h1.66zm11.415 0c2.444 0 4.14-1.544 4.14-3.895 0-2.35-1.696-3.906-4.14-3.906h-3.076v7.801h3.076zm0-1.462h-1.415v-4.877h1.415c1.602 0 2.444 1.064 2.444 2.444 0 1.322-.9 2.433-2.444 2.433zm10.643 3.614v-7.801h-1.497v.713a2.182 2.182 0 0 0-1.743-.853c-1.45 0-2.503 1.076-2.503 2.959s1.053 2.97 2.503 2.97c.667 0 1.287-.28 1.743-.865v2.877h1.497zm-2.772-3.333c-.842 0-1.427-.667-1.427-1.65 0-.97.585-1.637 1.427-1.637.48 0 1.03.28 1.275.644v2c-.246.35-.795.643-1.275.643zm6.866 1.321c1.158 0 1.86-.503 2.234-1.029l-.971-.9a1.426 1.426 0 0 1-1.193.608c-.9 0-1.532-.667-1.532-1.65 0-.982.631-1.637 1.532-1.637.514 0 .924.21 1.193.608l.97-.912c-.374-.514-1.075-1.017-2.233-1.017-1.743 0-2.994 1.228-2.994 2.959 0 1.742 1.251 2.97 2.994 2.97zm5.777-.14 1.193-3.848 1.193 3.848h1.58l1.719-5.65h-1.544l-1.053 3.802-1.24-3.801h-1.321l-1.24 3.801-1.053-3.801h-1.544l1.72 5.65h1.59zm9.45.14c1.779 0 2.983-1.157 2.983-2.678 0-1.66-1.251-2.538-2.655-2.538-.854 0-1.637.48-2 1.006-.011-.059-.011-.105-.011-.164 0-1.24.807-2.21 1.953-2.21.69 0 1.134.21 1.555.608l.749-1.275c-.562-.48-1.357-.807-2.304-.807-2.304 0-3.638 1.672-3.638 4.035 0 2.199.994 4.023 3.369 4.023zm-.093-1.473c-1.088 0-1.509-.83-1.579-1.58a1.952 1.952 0 0 1 1.52-.736c.75 0 1.451.35 1.451 1.17 0 .55-.491 1.146-1.392 1.146zm6.795 1.473c1.872 0 2.995-1.356 2.995-2.97 0-1.603-1.123-2.96-2.995-2.96-1.86 0-2.982 1.357-2.982 2.96 0 1.614 1.123 2.97 2.982 2.97zm0-1.321c-.923 0-1.438-.76-1.438-1.65 0-.877.515-1.637 1.438-1.637.924 0 1.45.76 1.45 1.638 0 .889-.526 1.649-1.45 1.649zm6.936 1.321c1.883 0 3.123-1.04 3.123-2.701 0-1.58-1.181-2.527-2.503-2.527-.713 0-1.345.281-1.72.655v-1.906h3.697v-1.462h-5.357v4.48l1.158.304c.468-.445.994-.632 1.637-.632.89 0 1.404.468 1.404 1.158 0 .631-.527 1.158-1.45 1.158-.82 0-1.544-.304-2.07-.854l-.925 1.158c.667.725 1.65 1.17 3.006 1.17zm8.082.012c1.415 0 2.526-.585 3.322-1.474v-2.994h-3.72v1.45h2.059v.936c-.316.293-.97.597-1.661.597-1.415 0-2.444-1.088-2.444-2.562 0-1.473 1.029-2.561 2.444-2.561.83 0 1.497.468 1.848 1.017l1.38-.748c-.585-.924-1.602-1.743-3.228-1.743-2.28 0-4.152 1.567-4.152 4.035 0 2.456 1.871 4.047 4.152 4.047zm6.304-.152v-5.088l3.72 5.088h1.602v-7.801h-1.661v4.9l-3.614-4.9h-1.708v7.801h1.661zm8.316 0v-3.801c.246-.34.702-.667 1.286-.667.632 0 1.041.27 1.041 1.053v3.415h1.486v-3.988c0-1.1-.597-1.801-1.836-1.801-.924 0-1.615.444-1.977.877v-.737h-1.485v5.65h1.485zm10.234 0v-1.614h1.006v-1.462h-1.006v-4.725h-2.293l-3.099 4.877v1.31h3.731v1.614h1.66zm-1.661-3.076h-2.105l2.105-3.251v3.251zm4.608 3.076 1.298-1.906 1.287 1.906h1.66l-2.023-2.9 1.895-2.75h-1.66l-1.159 1.744-1.17-1.743h-1.66l1.883 2.748-2 2.901h1.65zm10.34 2.152v-7.801h-1.498v.713a2.182 2.182 0 0 0-1.742-.853c-1.45 0-2.503 1.076-2.503 2.959s1.052 2.97 2.503 2.97c.666 0 1.286-.28 1.742-.865v2.877h1.497zm-2.773-3.333c-.842 0-1.426-.667-1.426-1.65 0-.97.584-1.637 1.426-1.637.48 0 1.03.28 1.275.644v2c-.245.35-.795.643-1.275.643zm5.439 1.181 1.965-2.854 1.953 2.854h1.988l-2.83-4.012 2.655-3.79h-2l-1.766 2.668-1.79-2.667h-1.976l2.655 3.801-2.83 4h1.976z" fill="#2B2D31" fill-rule="nonzero"/>
        <g fill="#4574EB">
            <path d="M98.51 383.006c.2 0 .36.16.36.36v2.474c0 .2.162.36.36.36h2.466c.2 0 .36.16.36.36v4.712a.54.54 0 0 1-.54.54h-5.604l-.092-.008a.525.525 0 0 1-.4-.352.822.822 0 0 1-.049-.288v-7.727c0-.19.242-.431.54-.431zm5.006-2.889c.2 0 .36.16.36.36v2.427c0 .199.161.36.36.36h2.479c.2 0 .36.16.36.36v4.76a.54.54 0 0 1-.541.54h-3.762v-3.638a.892.892 0 0 0-.263-.632l-2.103-2.1c-.005-.007-.011-.011-.016-.016v-1.881a.54.54 0 0 1 .54-.54zm-3.74 2.889c.044 0 .088.015.125.052l.49.489 1.613 1.612a.18.18 0 0 1-.127.307h-2.104a.179.179 0 0 1-.18-.18v-2.1a.18.18 0 0 1 .182-.18zm4.836-2.708c0-.16.194-.24.307-.127l2.104 2.1a.18.18 0 0 1-.128.307h-2.103a.18.18 0 0 1-.18-.18z"/>
        </g>
        <path d="M117.487 389.05c1.719 0 2.701-.948 3.263-1.918l-1.427-.69a2.092 2.092 0 0 1-1.836 1.134c-1.416 0-2.445-1.088-2.445-2.561 0-1.474 1.03-2.562 2.445-2.562.807 0 1.508.503 1.836 1.135l1.427-.702c-.55-.97-1.544-1.906-3.263-1.906-2.34 0-4.152 1.637-4.152 4.035 0 2.397 1.812 4.035 4.152 4.035zm6.842 0c1.871 0 2.994-1.357 2.994-2.971 0-1.602-1.123-2.96-2.994-2.96-1.86 0-2.983 1.358-2.983 2.96 0 1.614 1.123 2.97 2.983 2.97zm0-1.322c-.924 0-1.439-.76-1.439-1.65 0-.876.515-1.636 1.439-1.636s1.45.76 1.45 1.637c0 .889-.526 1.65-1.45 1.65zm5.579 3.333v-2.877c.456.585 1.076.866 1.742.866 1.45 0 2.503-1.088 2.503-2.971s-1.052-2.96-2.503-2.96c-.69 0-1.31.305-1.742.855v-.714h-1.486v7.801h1.486zm1.275-3.333c-.48 0-1.03-.292-1.275-.643v-2c.245-.363.795-.643 1.275-.643.853 0 1.426.666 1.426 1.637 0 .982-.573 1.65-1.426 1.65zm4.596 3.474c.97-.024 1.72-.304 2.14-1.369l2.655-6.573h-1.602l-1.474 3.93-1.473-3.93h-1.591l2.292 5.731-.21.48c-.14.304-.398.41-.784.41-.14 0-.339-.036-.468-.094l-.222 1.333c.187.047.562.082.737.082zm11.03-2.293 1.192-3.848 1.193 3.848h1.58l1.718-5.649h-1.543l-1.053 3.801-1.24-3.8h-1.321l-1.24 3.8-1.053-3.8h-1.544l1.72 5.648h1.59zm8.023.14c.736 0 1.403-.268 1.79-.724v.584h1.485v-3.649c0-1.625-1.182-2.14-2.468-2.14-.89 0-1.778.28-2.468.889l.561.994c.48-.445 1.041-.667 1.65-.667.748 0 1.24.375 1.24.948v.76c-.375-.445-1.042-.69-1.79-.69-.9 0-1.965.503-1.965 1.824 0 1.264 1.064 1.872 1.965 1.872zm.596-1.005c-.585 0-1.064-.304-1.064-.83 0-.55.48-.854 1.064-.854.48 0 .948.163 1.193.49v.703c-.245.327-.713.49-1.193.49zm5.638.865v-7.8h-1.486v7.8h1.486zm2.959 0v-7.8h-1.486v7.8h1.486zm4.128.14c.877 0 1.766-.268 2.328-.783l-.655-.959c-.363.35-1.03.561-1.509.561-.959 0-1.532-.596-1.626-1.31h4.2v-.327c0-1.848-1.147-3.111-2.831-3.111-1.72 0-2.924 1.322-2.924 2.959 0 1.813 1.298 2.97 3.017 2.97zm1.299-3.496h-2.784c.07-.562.468-1.252 1.392-1.252.982 0 1.356.714 1.392 1.252zm4.409 3.497c.62 0 1.017-.164 1.24-.363l-.316-1.123c-.082.082-.293.164-.515.164-.327 0-.514-.269-.514-.62v-2.55h1.146v-1.298h-1.146v-1.544h-1.497v1.544h-.936v1.298h.936v2.948c0 1.006.561 1.544 1.602 1.544zm6.655 0c.737 0 1.403-.27 1.79-.725v.584h1.485v-3.649c0-1.625-1.182-2.14-2.468-2.14-.889 0-1.778.28-2.468.889l.561.994c.48-.445 1.041-.667 1.65-.667.748 0 1.24.375 1.24.948v.76c-.375-.445-1.042-.69-1.79-.69-.9 0-1.965.503-1.965 1.824 0 1.264 1.064 1.872 1.965 1.872zm.596-1.006c-.584 0-1.064-.304-1.064-.83 0-.55.48-.854 1.064-.854.48 0 .948.163 1.193.49v.703c-.245.327-.713.49-1.193.49zm6.293 1.006c.678 0 1.298-.304 1.742-.866v.725h1.498v-7.8h-1.498v2.876a2.176 2.176 0 0 0-1.742-.865c-1.439 0-2.503 1.123-2.503 2.97 0 1.884 1.076 2.96 2.503 2.96zm.456-1.322c-.842 0-1.427-.667-1.427-1.637 0-.983.585-1.65 1.427-1.65.503 0 1.04.27 1.286.644v2c-.245.374-.783.643-1.286.643zm6.398 1.322c.678 0 1.298-.304 1.742-.866v.725h1.497v-7.8h-1.497v2.876a2.176 2.176 0 0 0-1.742-.865c-1.439 0-2.503 1.123-2.503 2.97 0 1.884 1.076 2.96 2.503 2.96zm.456-1.322c-.842 0-1.427-.667-1.427-1.637 0-.983.585-1.65 1.427-1.65.503 0 1.04.27 1.286.644v2c-.245.374-.783.643-1.286.643zm5.742 1.181v-3.73c.246-.363.901-.644 1.392-.644.164 0 .304.012.41.035v-1.45c-.702 0-1.404.41-1.802.912v-.772h-1.485v5.65h1.485zm5.38.14c.878 0 1.767-.268 2.328-.783l-.655-.959c-.363.35-1.03.561-1.509.561-.959 0-1.532-.596-1.625-1.31h4.198v-.327c0-1.848-1.146-3.111-2.83-3.111-1.72 0-2.924 1.322-2.924 2.959 0 1.813 1.298 2.97 3.017 2.97zm1.299-3.496h-2.784c.07-.562.468-1.252 1.392-1.252.982 0 1.357.714 1.392 1.252zm4.55 3.497c1.567 0 2.444-.784 2.444-1.813 0-2.28-3.345-1.58-3.345-2.421 0-.316.35-.562.889-.562.69 0 1.333.293 1.672.655l.597-1.017c-.562-.445-1.322-.772-2.28-.772-1.486 0-2.317.83-2.317 1.778 0 2.222 3.357 1.462 3.357 2.397 0 .351-.304.609-.947.609-.702 0-1.544-.386-1.954-.772l-.643 1.04c.597.55 1.544.878 2.526.878zm5.578 0c1.568 0 2.445-.784 2.445-1.813 0-2.28-3.345-1.58-3.345-2.421 0-.316.35-.562.889-.562.69 0 1.333.293 1.672.655l.597-1.017c-.562-.445-1.322-.772-2.281-.772-1.485 0-2.316.83-2.316 1.778 0 2.222 3.357 1.462 3.357 2.397 0 .351-.304.609-.947.609-.702 0-1.544-.386-1.954-.772l-.643 1.04c.597.55 1.544.878 2.526.878z" fill="#4574EB" fill-rule="nonzero"/>
    </g>
</svg>
