<?xml version="1.0" encoding="UTF-8"?>
<svg width="50px" height="50px" viewBox="0 0 50 50" version="1.1" xmlns="http://www.w3.org/2000/svg" xmlns:xlink="http://www.w3.org/1999/xlink">
    <title>Combined Shape</title>
    <g id="Symbols" stroke="none" stroke-width="1" fill="none" fill-rule="evenodd">
        <g id="Icons-Crypto/Bittorrent" fill="#000000" fill-rule="nonzero">
            <path d="M25,0 C38.8071187,0 50,11.1928813 50,25 C50,38.8071187 38.8071187,50 25,50 C11.1928813,50 0,38.8071187 0,25 C0,11.1928813 11.1928813,0 25,0 Z M32.328125,7.7234375 C27.6935562,5.75779429 22.4595688,5.75779429 17.825,7.7234375 C15.6069501,8.65900574 13.5923582,10.0176347 11.89375,11.7234375 C11.0480312,12.5657139 10.2856377,13.4877025 9.6171875,14.4765625 C8.94644741,15.4800211 8.37003024,16.5434113 7.8953125,17.653125 C5.92966929,22.2876938 5.92966929,27.5216812 7.8953125,32.15625 C8.3546875,33.265625 8.9484375,34.3171875 9.6171875,35.33125 C10.2855995,36.3211026 11.0479882,37.2441319 11.89375,38.0875 C12.7370131,38.9333771 13.660054,39.6957754 14.65,40.3640625 C15.64375,41.0328125 16.715625,41.6078125 17.825,42.0859375 C22.4595688,44.0515807 27.6935562,44.0515807 32.328125,42.0859375 C33.4375,41.6265625 34.4890625,41.0328125 35.503125,40.3640625 C36.493071,39.6957754 37.4161119,38.9333771 38.259375,38.0875 C39.1052521,37.2442369 39.8676504,36.321196 40.5359375,35.33125 C41.2046875,34.3375 41.7796875,33.265625 42.2578125,32.15625 C43.729737,28.6848052 44.1101372,24.8475596 43.3484375,21.1546875 C43.1013136,19.9543756 42.7359911,18.7814707 42.2578125,17.653125 C41.7865654,16.5417362 41.2099755,15.4780272 40.5359375,14.4765625 C39.8675689,13.4871595 39.1051729,12.5646447 38.259375,11.721875 C37.4161119,10.8759979 36.493071,10.1135996 35.503125,9.4453125 C34.5001642,8.77465708 33.4373004,8.19824179 32.328125,7.7234375 Z M25.09375,8.621875 C34.0859375,8.621875 41.3953125,15.93125 41.3953125,24.9234375 C41.3953125,33.915625 34.0875,41.225 25.09375,41.225 C16.0828125,41.225 8.79375,33.915625 8.79375,24.9234375 C8.79375,15.93125 16.103125,8.621875 25.09375,8.621875 Z M26.0140625,13.425 L25.5171875,13.425 L25.0346592,13.4419623 C24.2312619,13.4837435 23.432512,13.5930107 22.646875,13.76875 C21.6981667,13.9832755 20.7748034,14.2975228 19.8921875,14.70625 C18.9921875,15.128125 18.15,15.64375 17.365625,16.2375 C16.5550821,16.8536354 15.8170323,17.55971 15.165625,18.3421875 C14.5522837,19.0663646 14.0199544,19.8554275 13.578125,20.6953125 C13.1410172,21.5049838 12.7881282,22.3573628 12.525,23.2390625 C12.2668893,24.1071358 12.0941942,24.998347 12.009375,25.9 L12.009375,25.9 L11.9515625,26.740625 L11.9515625,27.2375 L11.9689959,27.7240958 C12.0114583,28.5322917 12.1208333,29.3265625 12.2953125,30.1078125 C12.50625,31.065625 12.83125,31.9828125 13.2328125,32.8640625 C13.7125,33.915625 14.5734375,35.465625 15.8546875,36.6328125 C18.4707853,38.6951502 21.706257,39.8143801 25.0375,39.8093917 L25.0375,39.8093917 L25.8234375,39.8093917 L25.8995949,39.8086388 C25.9501736,39.8071329 26.0005208,39.8026153 26.0515625,39.7890625 L26.0515625,39.7890625 L26.071875,39.7890625 C26.1484375,39.7890625 26.2046875,39.7890625 26.28125,39.7703125 L26.28125,39.7703125 L26.3390625,39.7703125 L26.3968171,39.7696181 C26.4352431,39.7682292 26.4734375,39.7640625 26.5109375,39.7515625 L26.5109375,39.7515625 L26.56875,39.7515625 L26.6272569,39.7467014 C26.6671875,39.7411458 26.7098958,39.7328125 26.7609375,39.7328125 L26.7609375,39.7328125 L26.7984375,39.7328125 L27.028125,39.7125 L27.0998264,39.7069444 C27.1453125,39.7 27.1880208,39.6875 27.2390625,39.675 L27.2390625,39.675 L27.2765625,39.675 L27.3630859,39.665625 L27.3630859,39.665625 L27.4484375,39.65625 L27.4875,39.65625 L27.5929688,39.6361328 L27.5929688,39.6361328 L27.6984375,39.6171875 C27.85,39.5984375 28.003125,39.559375 28.1375,39.521875 L28.1375,39.521875 L28.1765625,39.521875 L28.2712891,39.5029297 L28.2712891,39.5029297 L28.3671875,39.4828125 L28.3859375,39.4828125 L28.60625,39.4257813 L28.60625,39.4257813 L28.8265625,39.36875 C27.3934774,39.4141921 25.9603645,39.27928 24.5609375,38.9671875 C22.4546875,38.5078125 20.446875,37.6859375 18.74375,36.26875 C16.0248125,34.006021 14.4657695,30.6418609 14.496875,27.1046875 C14.5106527,24.498777 15.4379,21.980225 17.1171875,19.9875 C19.2984375,17.4046875 22.3984375,16.0453125 25.5734375,15.96875 L25.5734375,15.96875 L26.0140625,15.96875 L26.0140625,13.425 Z M25.975,16.715618 C24.8239139,16.7177814 23.6806673,16.9050691 22.5890625,17.2703125 C21.1958814,17.7298262 19.9127682,18.4724572 18.8203125,19.4515625 C18.2934467,19.9208918 17.8130959,20.4399637 17.3859375,21.0015625 C16.9636694,21.5567407 16.5982902,22.1529684 16.2953125,22.78125 C15.678364,24.0443881 15.3142465,25.4159325 15.2234375,26.81875 C15.128125,28.271875 15.31875,29.725 15.796875,31.103125 C16.2840443,32.5208054 17.0669668,33.8187525 18.09375,34.9109375 C19.03125,35.925 20.121875,36.690625 21.440625,37.3984375 C22.81875,38.125 24.521875,38.5078125 26.3,38.7578125 C27.4484375,38.909375 28.9796875,38.9484375 29.878125,38.9484375 C30.6625,38.6609375 30.9875,38.5265625 31.409375,38.3546875 C31.7734375,38.1828125 32.1359375,38.0109375 32.5,37.8 C32.8640625,37.5890625 32.921875,37.55 33.5328125,37.15 C33.5872369,37.1161554 33.6384875,37.077456 33.6859375,37.034375 C31.58125,37.3984375 31.0453125,37.378125 29.553125,37.359375 C28.6094362,37.3256669 27.6694526,37.2233132 26.740625,37.053125 C22.8,36.3453125 19.4125,33.934375 18.1703125,30.3 C16.6578125,25.8796875 18.9734375,21.096875 23.3734375,19.64375 C24.2119535,19.3627496 25.0906541,19.2202576 25.975,19.221875 C27.1046875,19.221875 28.2328125,19.4515625 29.2671875,19.871875 L29.2671875,19.871875 L30.3375,17.5953125 L29.8522968,17.4078849 L29.8522968,17.4078849 L29.3625,17.2328125 C28.2662959,16.8887586 27.1239277,16.7143473 25.975,16.715618 Z M26.1851563,19.8913781 C24.1249379,19.8913781 22.1492955,20.7107078 20.69375,22.16875 C19.2361963,23.6242369 18.4171875,25.5995437 18.4171875,27.659375 C18.4222891,28.7282801 18.6511585,29.7842729 19.0890625,30.759375 C19.4890625,31.6390625 20.0453125,32.4625 20.753125,33.228125 C21.996875,34.565625 23.6984375,35.6375 25.5171875,36.25 C27.2578125,36.8234375 29.821875,37.034375 32.309375,36.8625 C32.996875,36.8046875 33.5140625,36.746875 34.39375,36.55625 C35.2426752,35.8863269 36.0131876,35.1226285 36.690625,34.2796875 C36.096875,34.3375 35.00625,34.4515625 34.2609375,34.509375 C33.6671875,34.546875 32.825,34.603125 31.86875,34.603125 C30.165625,34.603125 28.0796875,34.4515625 26.3015625,33.8578125 C23.5453125,32.940625 20.94375,30.5875 20.94375,27.678125 C20.9425048,26.2874291 21.4944052,24.9533346 22.4777761,23.9699636 C23.4611471,22.9865927 24.7952416,22.4346923 26.1859375,22.4359375 C28.15625,22.4359375 29.859375,23.5265625 30.759375,25.1140625 L30.759375,25.1140625 L33.0359375,23.9859375 L32.8767858,23.7015992 C32.5462345,23.1404124 32.1427626,22.624921 31.6765625,22.16875 C30.221017,20.7107078 28.2453746,19.8913781 26.1851563,19.8913781 Z" id="Combined-Shape"></path>
        </g>
    </g>
    <g id="TRC20" transform="translate(30.000000, 0.000000)">
      <circle id="Oval" fill="#FF060A" cx="10" cy="10" r="10"></circle>
      <path d="M15.4337111,8.1984446 C14.8911922,7.67907649 14.1407077,6.88596202 13.5294698,6.32346948 L13.4933019,6.29721983 C13.4331242,6.24711641 13.365274,6.20782279 13.2925699,6.18097137 L13.2925699,6.18097137 C11.8187269,5.89597515 4.95947976,4.56661779 4.82565844,4.58349257 C4.78816099,4.58893751 4.75231893,4.6030333 4.72077145,4.62474202 L4.68641192,4.65286665 C4.64410346,4.6974162 4.61196946,4.75123607 4.59237531,4.81036456 L4.58333333,4.83473923 L4.58333333,4.96786247 L4.58333333,4.98848719 C5.35551855,7.21783261 8.4044747,14.5208607 9.00486227,16.234588 C9.0410302,16.3508364 9.10974925,16.5720835 9.23814539,16.5833333 L9.26707973,16.5833333 C9.33579879,16.5833333 9.62875899,16.1820887 9.62875899,16.1820887 C9.62875899,16.1820887 14.8658747,9.59717604 15.3957348,8.89593534 C15.464321,8.80955712 15.5248707,8.7166443 15.5765744,8.61843903 C15.6034191,8.46214098 15.549185,8.302702 15.4337111,8.1984446 Z M10.9723974,8.96530942 L13.2075753,7.04345993 L14.5186626,8.29594331 L10.9723974,8.96530942 Z M10.1043672,8.83968609 L6.2560999,5.56972948 L12.4824083,6.76033868 L10.1043672,8.83968609 Z M10.4515793,9.69654972 L14.3902664,9.03843345 L9.88735966,14.6633588 L10.4515793,9.69654972 Z M5.73347338,5.89597515 L9.78247268,9.45842788 L9.19655228,14.6671088 L5.73347338,5.89597515 Z" id="Shape" fill="#FFFFFF" fill-rule="nonzero"></path>
    </g>
</svg>