<?xml version="1.0" encoding="UTF-8"?>
<svg width="50px" height="50px" viewBox="0 0 50 50" version="1.1" xmlns="http://www.w3.org/2000/svg" xmlns:xlink="http://www.w3.org/1999/xlink">
    <title>Icons Crypto/Tether USD BSC20</title>
    <g id="Icons-Crypto/Tether-USD-BSC20" stroke="none" stroke-width="1" fill="none" fill-rule="evenodd">
        <g id="Tether_Logo" transform="translate(0.184524, 0.275000)" fill-rule="nonzero">
            <circle id="Oval" fill="#26A17B" cx="24.6825397" cy="24.6825397" r="24.6825397"></circle>
            <g id="Group" transform="translate(9.301587, 12.138889)" fill="#FFFFFF">
                <path d="M18.0119048,14.8214286 L18.0119048,14.8174603 C17.8412698,14.8293651 16.9603175,14.8809524 15,14.8809524 C13.4325397,14.8809524 12.3333333,14.8373016 11.9444444,14.8174603 L11.9444444,14.8214286 C5.91666667,14.5555556 1.42063492,13.5079365 1.42063492,12.25 C1.42063492,10.9960317 5.92063492,9.94444444 11.9444444,9.67857143 L11.9444444,13.7777778 C12.3373016,13.8055556 13.468254,13.8730159 15.0277778,13.8730159 C16.9007937,13.8730159 17.8373016,13.7936508 18.0119048,13.7777778 L18.0119048,9.68253968 C24.0277778,9.95238095 28.5119048,11 28.5119048,12.2539683 C28.5119048,13.5079365 24.0238095,14.5555556 18.0119048,14.8253968 M18.0119048,9.25793651 L18.0119048,5.59126984 L26.4047619,5.59126984 L26.4047619,0 L3.55555556,0 L3.55555556,5.59126984 L11.9484127,5.59126984 L11.9484127,9.25793651 C5.12698413,9.57142857 0,10.9206349 0,12.5396825 C0,14.1587302 5.13095238,15.5079365 11.9484127,15.8253968 L11.9484127,27.5793651 L18.015873,27.5793651 L18.015873,15.8253968 C24.8253968,15.5119048 29.9444444,14.1626984 29.9444444,12.5436508 C29.9444444,10.9285714 24.8253968,9.57539683 18.015873,9.26190476" id="Shape"></path>
            </g>
        </g>
        <g id="BSC20" transform="translate(30.000000, 0.000000)">
            <path d="M10,0 C15.5228495,0 20,4.47715047 20,10 C20,15.5228495 15.5228495,20 10,20 C4.47715047,20 0,15.5228495 0,10 C0,4.47715047 4.47715047,0 10,0" id="Combined-Shape" fill="#F0B90B"></path>
            <path d="M12.5791664,11.0774967 L14.0791664,12.5774967 L10.0024953,16.6608256 L5.91250866,12.5774967 L7.41250866,11.0774967 L8.93000533,12.5833289 L9.09666312,12.7500133 L10.0016698,13.6549933 L12.5791664,11.0774967 Z M4.83948069,8.49553928 L6.34560586,10.0016644 L4.83948069,11.5078162 L3.33332889,10.0016644 L4.83948069,8.49553928 Z M15.1611478,8.49468176 L16.667273,10.0008336 L15.1611478,11.5069854 L13.654996,10.0008336 L15.1611478,8.49468176 Z M10.004482,8.49135286 L11.5106072,9.99750466 L10.004482,11.5036565 L8.49833023,9.99750466 L10.004482,8.49135286 Z M10.0024874,3.33331558 L14.0791585,7.41667111 L12.5791585,8.92583222 L10.0024874,6.34082557 L8.92666844,7.41667111 L7.41250067,8.92583222 L5.91250067,7.41667111 L10.0024874,3.33331558 Z" id="Combined-Shape" fill="#FFFFFF"></path>
        </g>
    </g>
</svg>